<?xml version="1.0" encoding="UTF-8"?>
<svg width="1366" height="717" viewBox="0 0 1366 717" xmlns="http://www.w3.org/2000/svg">
  <rect width="1366" height="717" fill="#f8f6f1"/>
  <!-- capa: Capa 1 -->
  <path d="M437.5 305.7 L438.4 305.1 L439.1 304.9 L440.4 304.5 L441.6 303.8 L443.4 302.7 L447.2 300.5 L454.5 296.3 L461.3 292.4 L468.8 288.0 L479.9 280.8 L487.9 275.4 L495.7 269.9 L505.3 262.5 L512.0 256.9 L518.7 251.0 L528.1 243.5 L534.9 237.3 L541.1 231.1 L549.1 223.5 L554.6 217.9 L559.9 212.7 L566.8 205.6 L571.9 200.6 L577.7 195.4 L584.8 188.0 L589.1 183.3 L593.2 179.0 L598.4 173.4 L602.0 169.7 L605.3 166.2 L609.4 161.5 L612.5 158.0 L615.5 154.6 L619.2 150.3 L621.4 147.4 L623.0 144.5 L625.0 141.2 L626.1 139.1 L627.1 137.5 L627.7 136.0 L628.1 135.2 L628.4 134.5 L628.0 135.6 L627.7 137.4 L626.9 140.2 L626.0 143.0 L625.6 144.1 L624.5 147.7 L623.2 151.0 L621.7 154.4 L620.0 159.7 L618.7 164.1 L617.3 170.5 L616.1 175.6 L614.7 182.9 L614.1 188.5 L613.8 194.3 L613.7 201.5 L613.7 207.1 L614.1 214.8 L615.0 220.4 L616.2 226.2 L618.0 234.5 L619.7 241.3 L621.6 248.0 L624.0 257.3 L626.0 264.1 L628.3 270.9 L631.7 279.5 L633.9 286.0 L636.9 293.2 L639.1 298.4 L642.2 304.6 L644.6 308.7 L647.3 312.2 L651.1 316.5 L654.1 319.1 L658.0 321.6 L660.8 323.1 L664.1 324.3 L665.9 324.7 L667.1 324.7 L667.9 324.7 L667.3 324.1" fill="none" stroke="rgb(255,120,0)" stroke-opacity="1.000" stroke-width="8" stroke-linecap="round" stroke-linejoin="round"/>
  <path d="M647.2 301.9 L648.2 302.6 L652.4 302.8 L656.6 301.6 L658.4 300.9 L665.1 297.6 L677.4 290.5 L688.2 283.2 L699.3 274.5 L714.0 261.9 L724.8 251.1 L735.4 239.4 L744.5 227.0 L755.4 211.5 L762.7 200.2 L771.3 185.6 L776.4 175.4 L782.8 163.3 L786.5 155.7 L789.6 148.1 L791.3 143.3 L792.9 139.1 L793.7 137.4 L794.1 136.5 L794.6 135.5 L794.8 137.1 L794.6 137.9 L794.1 141.4 L792.4 147.4 L789.6 155.2 L785.3 167.9 L781.5 178.9 L777.4 191.2 L773.4 208.0 L771.7 220.3 L770.9 236.7 L770.8 248.2 L772.3 261.5 L774.3 270.4 L778.1 280.9 L781.9 287.9 L786.2 293.3 L792.0 299.4 L797.1 302.6 L804.6 305.1 L810.2 306.2 L815.7 306.9 L823.1 307.4 L828.7 307.8 L835.5 308.0 L838.6 308.1 L839.5 308.2 L838.9 308.6" fill="none" stroke="rgb(255,120,0)" stroke-opacity="1.000" stroke-width="8" stroke-linecap="round" stroke-linejoin="round"/>
  <path d="M400.4 159.1 L400.9 159.9" fill="none" stroke="rgb(53,132,228)" stroke-opacity="1.000" stroke-width="8" stroke-linecap="round" stroke-linejoin="round"/>
  <path d="M402.5 151.1 L402.5 152.2 L398.9 159.2 L397.1 164.5 L396.6 166.4 L395.8 171.8 L396.3 176.2 L398.4 179.7 L403.2 182.4 L408.5 182.9 L418.1 180.0 L427.4 175.6 L436.7 170.4 L445.4 164.2 L447.8 161.7 L446.0 160.9 L441.9 163.1 L438.6 166.6 L434.7 173.0 L433.3 177.7 L433.6 181.4 L436.8 184.7 L441.6 185.2 L448.3 184.1 L458.4 180.4 L465.8 176.6 L473.2 172.0 L475.5 170.2 L471.8 171.5 L470.0 173.5 L468.5 176.1 L467.0 180.7 L466.9 186.4 L469.1 189.9 L475.5 192.3 L482.5 191.7 L489.9 188.6 L499.6 182.8 L505.0 178.2 L508.9 173.0 L509.6 171.1 L508.4 171.4 L505.8 174.7 L502.6 179.7 L499.8 187.6 L500.4 192.5 L505.5 195.0 L511.7 194.4 L521.4 189.5 L529.3 184.4 L535.6 179.1 L540.7 172.8 L542.2 170.6 L539.8 172.9 L535.2 179.1 L532.4 184.3 L531.8 188.3 L535.5 190.0 L541.2 188.1 L548.6 184.0 L558.3 177.2 L564.1 172.1 L567.6 168.1 L566.7 167.9 L561.3 171.7 L556.7 176.1 L553.4 181.6 L554.5 183.9 L559.6 185.0 L564.2 184.7 L568.4 183.2 L569.2 182.7 L568.1 182.3 L568.2 183.1 L569.4 183.6 L571.0 184.0 L572.6 184.4 L575.0 184.7 L580.4 184.9 L589.3 184.8 L600.3 183.8 L611.9 182.3 L622.8 180.2 L631.9 177.4 L636.1 175.4 L635.3 175.0 L632.3 175.4 L627.1 176.9 L624.3 178.1 L623.2 179.5 L624.8 180.3 L628.4 180.8 L635.3 180.8 L640.2 180.0 L645.6 177.9 L647.1 176.2 L646.3 174.7 L644.2 174.3 L643.2 174.4 L645.2 175.5 L648.6 175.6 L650.0 175.4 L654.6 174.0 L661.4 170.7 L666.1 167.4 L671.0 162.8 L673.1 159.6 L673.6 156.1 L672.8 154.8 L671.4 153.6 L670.8 153.1 L671.0 154.3 L670.9 155.7 L670.3 156.2 L668.9 155.8 L667.9 155.8 L662.4 157.0 L654.5 158.8 L646.0 160.2 L637.9 160.8 L634.4 160.3 L631.3 158.3 L629.1 156.9 L625.0 155.5 L621.7 155.0 L615.9 154.8 L610.5 155.4 L605.4 157.0 L601.6 159.7 L601.7 161.4 L604.8 162.8 L607.8 163.1 L610.8 162.0 L611.9 160.0 L612.2 157.7 L611.9 155.1 L611.1 154.0 L609.7 153.3 L608.7 153.2 L607.8 153.1" fill="none" stroke="rgb(53,132,228)" stroke-opacity="1.000" stroke-width="8" stroke-linecap="round" stroke-linejoin="round"/>
  <path d="M609.0 153.5 L609.1 152.7 L608.0 151.9 L605.5 150.9 L603.1 150.4 L600.3 150.2 L596.1 149.8 L592.0 149.7 L593.0 150.4 L594.8 150.6 L595.8 150.6 L598.8 150.5 L599.2 149.5 L597.2 147.3 L593.8 145.2 L587.3 143.5 L580.6 143.7 L571.0 146.5 L566.3 149.2 L564.5 151.8 L567.0 153.6 L571.1 153.4 L575.4 151.5 L578.3 148.4" fill="none" stroke="rgb(53,132,228)" stroke-opacity="1.000" stroke-width="8" stroke-linecap="round" stroke-linejoin="round"/>
  <path d="M510.2 142.0 L515.3 143.5 L520.6 143.1 L522.1 140.9 L518.8 136.8 L511.8 134.1 L502.1 132.4 L487.3 132.5 L476.7 134.3 L467.7 137.2 L466.2 139.0 L469.1 140.5 L473.8 140.4 L479.3 138.7 L480.1 136.6 L475.3 133.4 L467.9 131.9 L459.5 131.6 L449.9 133.2 L446.3 135.2 L446.7 138.4 L450.5 140.5 L457.1 141.6 L460.3 141.0 L459.4 138.2 L454.7 135.7 L445.4 133.4 L438.0 133.1 L432.5 134.5 L430.1 137.3 L431.6 139.4 L436.0 141.1 L439.0 141.5 L439.9 140.7 L437.7 138.9 L433.6 137.4 L426.9 136.8 L423.1 137.8 L422.1 140.6 L423.5 143.2 L426.4 145.5 L427.9 145.8 L427.7 145.1 L425.3 143.5 L420.9 142.4 L417.6 143.0 L415.5 145.5 L415.9 148.2 L417.9 149.8 L419.2 149.9 L419.5 148.6 L419.0 146.5" fill="none" stroke="rgb(53,132,228)" stroke-opacity="1.000" stroke-width="8" stroke-linecap="round" stroke-linejoin="round"/>
  <path d="M415.1 148.2 L412.4 150.7 L411.2 152.6 L409.7 154.4 L408.5 156.0 L409.5 154.1 L409.7 153.4 L410.1 151.6 L410.1 150.3 L409.5 149.7 L408.0 151.2 L405.9 154.4 L405.2 156.0 L405.9 155.4 L406.8 154.1 L407.2 153.2 L408.1 149.6 L408.3 148.3 L407.6 149.3 L405.9 152.4 L404.8 156.9 L404.8 158.7 L406.1 158.6 L408.0 156.0 L410.8 151.2 L412.8 147.8 L413.3 147.2 L411.0 152.3 L409.2 158.2 L410.4 162.7 L413.7 162.6 L419.3 157.9 L423.4 152.9 L426.5 148.5 L427.0 146.2 L422.0 150.4 L416.6 159.0 L415.1 163.9 L417.4 164.5 L422.2 161.4 L431.2 154.8 L438.1 149.3 L439.5 148.2 L436.5 150.7 L428.6 158.3 L421.6 165.9 L421.6 167.7 L427.9 165.3 L436.1 160.2 L446.9 153.1 L452.1 149.8 L451.1 150.2 L444.9 153.8 L436.8 160.0 L435.5 162.0 L441.3 160.2 L449.9 155.9 L464.0 148.9 L469.1 146.6 L467.4 148.1 L460.2 152.6 L457.2 154.3 L459.8 153.1 L465.8 149.6 L474.6 144.1 L479.4 141.5 L478.9 142.3 L470.4 147.9 L464.4 151.9 L462.9 153.5 L467.0 151.9 L475.1 147.4 L486.0 141.6 L490.2 140.0 L487.0 143.7 L479.1 149.9 L468.3 157.2 L466.5 159.7 L470.0 158.9 L481.4 153.9 L492.3 148.2 L496.8 146.2 L494.9 148.3 L485.1 154.8 L476.1 160.3 L475.1 161.4 L481.6 158.8 L489.7 154.7 L497.1 151.0 L500.9 149.7 L495.9 153.4 L488.5 158.3 L481.3 163.9 L481.5 165.3 L486.2 163.7 L496.6 158.9 L504.6 155.4 L506.2 155.3 L503.3 157.8 L494.4 164.4 L487.8 169.5 L488.2 170.6 L493.8 168.9 L506.4 163.3 L518.8 157.9 L525.0 155.7 L518.4 160.6 L512.1 164.3 L506.0 167.8 L499.8 171.8 L502.2 171.3 L515.1 165.6 L532.4 157.9 L544.1 153.6 L542.3 155.6 L532.1 161.2 L516.1 169.4 L509.9 172.9 L512.8 172.0 L522.3 167.5 L538.5 160.1 L548.0 155.7 L551.9 154.4 L546.7 157.6 L540.8 161.0 L538.6 163.0 L545.1 161.5 L553.7 158.1 L561.3 155.2 L564.8 154.3 L559.8 157.2 L553.6 160.8 L549.3 163.5 L551.1 163.2 L560.8 159.0 L570.3 154.8 L581.1 150.8 L583.1 150.5 L576.7 154.3 L568.5 158.9 L561.8 163.3 L569.9 161.1 L578.8 157.5 L581.8 156.4 L588.8 153.7 L591.5 153.2 L588.1 155.5 L578.1 161.4 L572.7 164.7 L573.0 165.9 L578.1 164.2 L587.1 160.0 L592.2 157.3 L587.3 160.2 L580.7 163.5 L578.8 164.5 L575.2 166.0 L576.1 166.0 L579.0 164.9 L582.6 163.5 L584.5 162.7 L583.1 163.6 L580.7 165.2 L579.1 166.9 L579.8 167.9 L583.5 167.4 L592.0 164.6 L600.8 161.7 L603.3 161.3 L599.7 163.8 L593.6 167.3 L588.2 170.4 L586.9 171.9 L593.3 170.2 L601.8 167.3 L611.5 164.0 L614.3 163.6 L611.0 165.8 L603.4 170.3 L599.4 173.1 L598.9 174.2 L604.6 173.3 L611.8 170.8 L619.8 168.1 L621.2 167.8 L618.1 169.6 L610.6 173.2 L607.8 174.9 L609.0 175.1 L616.9 172.6 L627.2 168.7 L633.3 166.8 L634.4 166.5 L630.3 168.7 L621.2 172.9 L617.8 174.9 L619.5 174.4 L627.9 171.0 L635.5 167.6 L642.5 163.8 L644.0 162.9 L640.8 164.0 L636.3 165.8 L633.7 166.9 L636.7 165.7 L642.3 163.3 L649.0 160.4 L650.7 159.7 L649.0 160.2 L644.0 162.3 L641.4 163.4 L646.3 161.2 L650.2 159.3 L651.4 158.6 L653.3 157.5 L651.1 158.0 L645.4 160.1 L636.0 163.3 L633.1 164.3 L634.9 163.7 L643.2 160.4 L648.9 158.5 L650.6 157.8 L645.8 159.7 L640.7 161.8 L637.5 163.2 L638.2 163.6 L642.2 163.3 L645.8 162.6 L648.2 162.2 L645.8 163.5 L644.6 164.3 L645.6 164.5 L650.7 163.1 L654.1 161.9 L655.8 161.4 L660.7 160.1 L658.2 162.1 L654.8 163.9 L653.6 164.6 L657.4 163.5 L662.3 161.3 L664.0 160.6 L668.8 158.4 L667.3 159.1 L664.7 160.6 L661.2 162.3 L654.2 165.4 L644.4 168.6 L641.3 169.1 L642.3 167.6" fill="none" stroke="rgb(53,132,228)" stroke-opacity="1.000" stroke-width="8" stroke-linecap="round" stroke-linejoin="round"/>
  <path d="M602.0 174.1 L597.7 175.7 L592.5 177.4 L588.5 178.2" fill="none" stroke="rgb(53,132,228)" stroke-opacity="1.000" stroke-width="8" stroke-linecap="round" stroke-linejoin="round"/>
  <path d="M584.2 176.5 L580.2 177.8 L584.2 176.0 L591.7 172.4 L602.4 167.6 L607.5 165.3 L601.1 167.8 L599.4 168.5 L597.5 169.5 L601.2 169.3 L610.2 166.5 L617.4 164.5 L618.8 164.3 L616.1 165.6 L614.9 166.0 L616.2 165.9 L619.8 164.7 L623.5 163.2 L626.2 162.3 L628.6 161.4 L629.4 161.0 L629.9 160.3 L632.1 158.7 L633.3 157.8 L633.1 156.2 L632.0 155.4 L629.2 155.3 L627.4 155.6 L619.4 157.8 L603.0 162.4 L589.4 166.5 L574.9 172.4 L569.8 176.1 L571.3 177.3 L577.8 176.8 L587.6 173.1 L596.5 168.6 L608.2 161.8 L613.1 157.7 L610.4 156.9 L596.4 162.2 L582.6 168.5 L568.7 176.4 L566.1 179.1 L570.6 178.1 L582.6 171.4 L587.6 167.4 L588.8 164.9 L585.6 164.9 L583.6 165.4" fill="none" stroke="rgb(53,132,228)" stroke-opacity="1.000" stroke-width="8" stroke-linecap="round" stroke-linejoin="round"/>
  <path d="M583.6 157.4 L585.9 154.0 L583.6 152.9 L577.1 154.4 L564.2 159.9 L554.3 165.5 L544.0 171.6 L541.4 173.6 L544.1 172.5 L552.1 167.6 L558.5 163.1 L564.5 158.3 L564.7 157.3 L560.5 159.6 L550.5 166.3 L543.6 171.6 L540.7 175.7 L542.1 175.7" fill="none" stroke="rgb(53,132,228)" stroke-opacity="1.000" stroke-width="8" stroke-linecap="round" stroke-linejoin="round"/>
  <path d="M559.0 163.6 L565.1 157.1 L566.3 155.1 L566.3 154.2 L562.7 153.8 L556.6 156.2 L544.7 163.1 L536.5 168.2 L543.2 163.8 L551.0 158.3 L554.9 155.2 L557.3 153.1 L556.3 152.2 L548.1 155.3 L536.5 160.2 L532.6 161.4 L533.8 160.2 L541.6 155.7 L546.2 152.9 L547.1 151.9 L541.7 153.9 L534.5 157.0 L525.7 160.0 L524.5 160.0 L529.6 156.5 L535.1 152.9 L539.2 148.9 L539.3 147.7 L536.2 147.7 L527.6 150.8 L516.9 156.1 L513.2 160.5 L516.3 161.4 L527.0 157.5 L535.9 152.7 L544.0 145.8 L544.5 141.9 L539.0 142.1 L525.6 147.1 L512.0 154.1 L506.3 158.3 L505.8 160.0 L510.3 158.9 L520.9 153.9 L531.1 147.2 L535.3 141.2 L532.5 138.7 L524.9 139.8 L512.0 145.3 L501.7 153.0 L498.8 157.3 L502.8 159.5 L513.8 156.1 L522.0 151.8 L529.5 144.7 L529.9 139.3 L522.2 138.0 L512.5 139.9 L498.0 147.9 L488.7 154.9 L483.7 161.6 L486.7 162.4 L493.7 158.6 L503.3 150.9 L508.2 142.8 L507.2 138.9 L499.0 138.4 L488.7 142.2 L474.6 150.6 L468.4 155.6 L468.7 158.0 L477.4 154.8 L487.3 148.1 L492.1 141.4 L490.9 139.1 L482.8 139.8 L468.7 145.3 L458.3 150.6 L447.8 156.2 L446.3 157.4 L452.2 153.8 L459.1 148.2 L460.4 144.7 L455.4 144.7 L448.2 147.7 L436.5 154.7 L427.6 161.2 L427.2 162.7 L435.5 159.2 L447.1 151.6 L454.2 145.1 L457.4 139.7 L453.3 139.4 L445.3 142.8 L432.9 151.0 L426.8 156.8 L427.6 158.6 L433.9 156.2 L441.3 150.8 L445.2 145.8 L446.4 141.1 L442.2 141.0 L435.6 144.6 L426.9 151.8 L422.4 157.5 L423.6 159.7 L427.2 158.6 L428.6 157.7" fill="none" stroke="rgb(53,132,228)" stroke-opacity="1.000" stroke-width="8" stroke-linecap="round" stroke-linejoin="round"/>
  <path d="M433.8 152.4 L427.7 149.8 L423.1 152.2 L418.5 155.3 L413.0 160.7 L409.5 166.1 L411.0 167.6 L415.2 166.1 L418.5 164.0 L421.2 162.4 L418.9 163.9 L414.2 166.9 L411.9 168.6 L410.0 169.9 L410.7 169.3 L411.8 168.0 L413.1 166.3 L415.2 162.0 L415.4 159.4 L413.0 159.1 L408.3 161.8 L405.2 165.0 L402.6 169.6 L401.6 173.2 L401.3 174.4 L403.4 172.0 L404.9 169.5 L405.1 168.5 L404.5 167.8 L400.4 170.3 L397.3 173.1 L396.4 175.3 L399.0 176.2 L404.2 176.0 L409.2 174.3 L416.1 171.2 L418.2 170.4 L419.7 169.8 L418.7 170.3 L419.3 169.6 L420.7 167.7 L421.2 166.7 L421.4 166.0 L420.0 167.9 L419.3 169.0 L417.6 172.2 L418.6 173.6 L425.0 170.8 L433.2 165.9 L439.4 161.6 L447.6 155.9 L453.5 151.5 L457.7 148.8 L458.9 148.3 L457.4 150.7 L451.9 156.6 L448.8 161.7 L448.3 166.2 L452.0 166.1 L458.5 162.7 L463.6 159.0 L468.9 154.3 L462.1 157.2 L456.9 161.4 L455.7 162.6 L454.7 164.5 L458.4 163.6 L464.7 160.1 L466.9 158.6 L464.4 160.5 L458.0 165.3 L454.7 169.3 L455.7 171.0 L458.6 170.9 L464.0 169.0 L468.5 166.6 L469.4 166.3 L466.0 169.1 L460.2 172.9 L458.3 175.1 L459.0 175.6 L464.0 174.4 L472.7 171.0 L482.8 167.7 L486.7 166.8 L485.2 169.5 L478.2 174.9 L474.5 178.1 L476.5 179.9 L482.0 179.3 L490.1 176.9 L496.1 175.7 L496.4 176.9 L492.8 180.4 L485.7 185.4 L483.0 187.4 L486.5 185.7 L492.9 182.3 L501.6 177.8 L505.1 176.3 L502.2 178.2 L494.2 182.7 L490.4 185.1 L491.6 185.4 L499.0 182.7 L507.2 179.4 L511.7 177.7 L512.7 177.6 L511.4 178.5 L515.5 177.6 L518.2 176.4 L520.4 175.4 L522.3 174.8 L519.8 176.9 L516.1 179.4 L514.2 180.9 L517.0 180.7 L521.3 179.3 L526.5 177.3 L528.1 176.6 L525.6 177.1 L521.1 179.3 L516.4 182.0 L514.9 183.3 L516.3 183.2 L518.2 182.3 L524.2 179.0 L530.4 176.1 L533.0 174.9 L531.2 176.2 L524.6 180.3 L520.0 183.2 L521.1 184.0 L525.8 182.4 L535.1 178.5 L542.6 174.9 L549.7 171.8 L550.8 171.2 L550.3 171.8 L549.6 172.7 L549.0 173.6 L550.1 173.4 L554.1 171.0 L558.0 167.8 L560.7 165.2 L563.2 162.8 L559.7 165.2 L556.5 167.4 L553.1 170.1 L546.5 176.0 L543.1 179.3 L542.7 179.9 L543.6 177.6 L543.8 176.7 L543.3 175.5 L540.4 176.1 L538.8 176.8 L530.7 181.2 L519.1 187.4 L511.1 191.9 L507.9 193.1 L511.5 189.7 L518.2 184.3 L521.3 181.1 L521.6 179.3 L517.2 179.5 L509.9 182.0 L503.0 184.5 L500.9 185.2 L502.2 184.9 L506.6 182.9 L512.4 179.7 L514.9 178.2 L514.2 179.0 L509.4 182.8 L505.3 186.6 L504.8 187.9 L507.1 186.9 L511.4 184.0 L513.4 182.8 L511.2 184.2 L505.8 187.3 L502.3 189.1 L501.2 189.8 L502.6 189.0 L506.1 186.5 L507.9 184.9 L508.6 183.9 L508.4 183.1 L505.8 182.6 L500.7 182.2 L493.1 182.0 L484.3 181.5 L477.4 181.2 L468.5 181.1 L461.5 180.9 L456.9 181.1 L455.5 181.3 L453.9 181.9 L453.4 183.5 L453.3 185.0 L452.7 186.4 L453.1 184.7 L454.0 183.2 L454.9 181.5 L455.9 178.9 L455.7 176.6 L453.7 175.1 L451.7 173.9 L450.5 173.1 L448.3 172.8 L447.0 173.1 L446.2 173.5 L445.4 174.0 L444.3 174.3 L442.3 176.9 L441.7 177.8 L439.9 180.4 L439.2 181.2 L444.4 178.1 L449.8 174.8 L451.5 173.7 L455.9 171.0 L452.1 172.2 L450.8 172.8 L447.2 174.1 L444.2 174.8" fill="none" stroke="rgb(53,132,228)" stroke-opacity="1.000" stroke-width="8" stroke-linecap="round" stroke-linejoin="round"/>
  <path d="M423.7 178.4 L420.1 179.4 L420.2 178.2 L423.5 175.6 L424.8 174.7 L427.5 172.4 L422.9 173.2 L419.7 174.5 L417.3 175.5 L414.3 176.6 L415.6 174.4" fill="none" stroke="rgb(53,132,228)" stroke-opacity="1.000" stroke-width="8" stroke-linecap="round" stroke-linejoin="round"/>
  <path d="M713.9 238.1 L714.2 237.2 L714.3 236.1 L714.4 234.9 L714.4 234.1 L714.2 233.2 L713.5 232.6 L712.7 232.0 L712.0 231.6 L711.0 231.2 L710.1 230.9 L709.1 230.8 L707.7 230.9 L706.7 231.2 L705.6 231.5 L703.9 232.6 L702.4 233.8 L700.3 236.1 L698.7 237.9 L696.2 241.2 L694.1 245.9 L692.3 251.6 L691.4 256.9 L692.6 261.0 L695.2 263.2 L699.5 264.6 L703.8 264.1 L706.9 263.0 L711.3 261.1 L715.9 259.0 L718.6 257.5 L719.4 256.4 L718.6 255.7 L718.5 256.5 L718.3 261.6 L718.4 263.8 L718.7 266.1 L720.6 270.0 L724.4 272.5 L728.7 273.7 L736.8 274.0 L746.3 272.1 L756.3 269.1 L763.1 266.4 L770.6 262.6 L775.3 258.4 L776.8 254.1 L776.5 251.5 L775.0 249.0 L774.5 249.6 L774.3 250.6 L774.2 251.9 L774.7 254.1 L776.9 257.2 L780.4 260.1 L784.6 262.8 L789.0 264.3 L792.4 265.0 L797.3 265.4 L802.1 265.4 L806.8 264.1 L810.6 262.3 L815.6 259.0 L820.5 254.9 L824.1 250.9 L825.5 248.2 L825.7 245.9 L824.0 247.2 L823.5 248.8 L823.6 252.0 L824.2 253.4 L825.0 254.9 L827.2 257.8 L830.5 260.0 L833.8 261.2 L838.9 262.2 L844.7 262.5 L849.6 262.5 L856.4 261.6 L863.1 260.0 L869.4 257.4 L874.2 254.2 L876.3 251.3 L877.2 246.8 L876.3 242.6 L874.1 239.2 L871.7 236.8 L869.7 235.7 L868.6 235.3 L867.2 235.3 L865.3 235.0 L864.0 234.5 L862.9 234.4 L861.9 235.0 L861.6 235.9 L861.7 237.3 L862.4 238.7 L863.3 239.2 L864.8 237.0 L865.2 235.6 L865.4 234.1 L864.5 231.1 L862.7 229.5 L859.6 228.1 L856.0 227.0 L850.0 225.6 L845.4 225.0 L838.8 224.2 L831.4 223.5 L824.9 223.5 L821.2 224.4 L817.8 226.7 L815.9 229.9 L815.4 233.2 L817.1 235.8 L819.7 237.0 L823.6 237.5 L826.9 236.6 L828.0 234.2 L827.6 232.1 L825.6 229.5 L822.3 227.1 L817.3 225.3 L811.2 223.6 L806.3 222.4 L799.1 221.2 L793.6 220.8 L787.4 221.5 L782.0 223.6 L778.5 225.5 L776.6 227.4 L775.4 229.2 L774.7 231.7 L775.0 234.1 L776.7 235.7 L779.0 236.3 L780.7 236.1 L782.4 234.1 L782.7 231.9 L781.2 229.3 L777.8 226.8 L774.0 225.9 L770.9 225.7 L766.1 226.2 L761.8 228.0 L758.5 230.4 L757.0 232.4 L756.3 234.6 L756.7 235.4 L758.4 235.3 L759.4 234.5 L760.0 233.0 L760.1 232.2 L759.9 231.2 L759.2 230.2 L758.2 229.5 L756.1 228.6 L755.1 228.4 L750.0 228.1 L743.6 229.8 L739.1 232.4 L738.1 233.9 L738.8 235.7 L741.2 237.2 L743.3 237.5 L745.3 236.4 L746.2 233.8 L744.8 231.5 L741.2 230.0 L737.7 229.5 L732.6 229.9 L727.1 232.4 L723.4 234.9 L719.6 237.9 L718.2 240.6 L719.4 241.9 L720.8 242.1 L719.8 240.3 L717.5 239.2 L716.3 239.0 L712.4 238.6 L706.8 239.9 L703.3 242.4 L702.2 245.5 L702.6 248.8 L704.3 250.0 L707.1 249.4 L709.4 246.4 L709.8 244.1 L707.1 242.5 L701.6 242.8 L696.7 245.9 L694.9 249.1 L694.9 253.9 L697.7 258.0 L702.6 258.6 L707.9 256.0 L711.0 252.9 L712.4 248.5 L710.4 244.9 L706.6 244.6 L702.8 247.9 L701.6 251.1 L703.9 254.5 L710.1 255.6 L717.2 253.8 L721.0 251.1 L723.3 247.1 L721.7 243.8 L718.4 242.8 L715.6 244.3 L715.7 246.8 L720.4 248.0 L729.5 247.1 L736.8 245.3 L742.6 242.8 L743.1 242.1 L738.9 243.2 L733.7 247.0 L732.2 250.2 L734.9 254.0 L741.7 255.7 L750.0 255.4 L755.3 253.4 L759.5 250.1 L758.4 247.0 L752.4 245.8 L747.5 247.4 L743.3 251.6 L742.9 256.3 L746.2 259.8 L750.2 260.3 L756.0 258.3 L760.0 253.8 L760.5 249.9 L756.7 245.7 L749.2 245.2 L742.4 249.0 L739.3 254.8 L739.3 260.9 L742.4 263.8 L746.6 263.2 L753.4 258.7 L759.5 252.1 L760.9 242.8 L755.8 239.8 L747.3 242.5 L741.0 248.6 L739.8 254.3 L742.3 260.1 L747.2 263.1 L754.1 262.4 L759.7 259.1 L767.5 252.2 L771.4 244.0" fill="none" stroke="rgb(53,132,228)" stroke-opacity="1.000" stroke-width="8" stroke-linecap="round" stroke-linejoin="round"/>
  <path d="M760.7 241.8 L755.8 245.6 L754.2 249.1 L754.2 251.7 L757.3 254.2 L766.1 254.3 L775.9 251.1 L783.0 247.3 L788.7 242.3 L789.1 237.7 L786.6 235.8 L783.1 238.1 L781.7 242.8 L785.7 246.1 L793.4 245.6 L801.8 241.5 L806.4 237.9 L807.9 234.3 L803.7 233.4 L796.5 237.3 L792.9 242.5 L794.9 246.8 L800.0 247.5 L808.2 245.5 L814.1 242.1 L815.0 239.2 L811.6 238.2 L801.2 241.2 L795.8 246.6 L798.3 249.9 L804.5 250.2 L809.2 248.2 L813.4 244.4 L813.7 241.3 L809.4 240.0 L802.0 242.6 L797.5 247.6 L797.9 251.5 L803.0 254.5 L810.2 254.8 L815.8 252.4 L817.7 249.0 L816.1 246.7 L809.9 245.8 L802.1 248.2 L798.7 252.0 L801.1 254.8 L805.6 255.3 L812.8 252.9 L820.4 248.8 L826.9 244.7 L830.5 241.9 L830.5 238.8 L824.5 239.5 L818.6 243.2 L817.9 246.1 L823.0 248.3 L832.4 248.1 L843.8 244.6 L847.1 243.1 L844.6 243.3 L842.0 246.1 L841.5 247.3 L841.8 251.2 L845.4 252.7 L853.3 252.7 L861.3 250.2 L866.4 247.4 L865.3 246.0 L859.1 247.1 L853.3 251.0 L851.8 254.6 L853.8 256.5 L856.4 257.0" fill="none" stroke="rgb(53,132,228)" stroke-opacity="1.000" stroke-width="8" stroke-linecap="round" stroke-linejoin="round"/>
  <path d="M870.5 244.9 L868.6 243.5 L866.1 242.9 L858.0 242.5 L849.7 244.4 L846.4 246.9 L848.0 248.3 L853.5 248.7 L857.9 246.2 L858.5 242.7 L855.9 239.2 L851.1 237.4 L844.6 238.8 L839.6 242.9 L838.8 245.3 L841.3 246.8 L846.8 245.3 L851.3 241.5 L852.3 238.2 L849.1 236.3 L842.8 237.3 L837.0 239.7 L835.6 240.8 L837.6 241.9 L842.5 241.5 L847.0 239.1 L849.3 235.9 L848.5 233.2 L843.7 232.9 L836.2 235.8 L831.0 239.0 L831.4 240.4 L836.0 240.7 L839.6 239.6 L841.8 236.9 L840.3 232.6 L833.8 230.4 L823.6 231.6 L815.3 235.7 L812.6 239.1 L814.4 240.3 L815.4 239.8 L814.8 237.6 L812.6 234.8 L810.1 232.9 L804.7 232.7 L797.6 236.1 L792.8 239.9 L793.6 241.5 L797.3 241.1 L801.5 237.9 L802.1 234.1 L798.4 231.5 L791.3 231.8 L783.6 235.7 L778.8 239.2 L780.0 240.3 L784.7 239.7 L791.5 236.7 L795.3 232.8 L794.9 230.4 L791.3 229.7 L787.6 230.5 L782.8 233.1 L783.0 234.2 L787.9 234.0 L794.1 231.5 L797.4 229.2 L797.1 227.9 L794.2 227.1 L788.8 228.7 L782.4 232.6 L781.9 235.3 L788.8 235.5 L795.3 233.7 L801.2 230.5 L802.5 228.6 L800.9 227.1 L799.8 226.7 L800.6 226.7 L804.6 226.6 L809.4 226.5 L813.5 226.6 L816.6 227.0 L813.5 227.3 L806.8 227.8 L803.7 228.2 L786.8 231.3 L771.6 235.4 L755.7 240.1 L750.8 240.9 L753.2 238.7 L759.5 235.7 L767.7 231.7 L772.4 229.6 L767.3 233.8 L762.6 237.9 L761.5 239.1 L759.7 242.8 L761.8 243.8 L763.2 243.9" fill="none" stroke="rgb(53,132,228)" stroke-opacity="1.000" stroke-width="8" stroke-linecap="round" stroke-linejoin="round"/>
  <path d="M772.5 241.2 L769.0 237.5 L760.8 239.8 L752.3 243.6 L747.0 246.4 L746.2 246.8 L747.4 245.3 L749.5 241.9 L750.5 238.3 L749.6 235.8 L746.5 235.5 L740.0 238.8 L735.0 242.3 L732.3 245.5 L733.7 246.1 L735.7 244.5 L736.8 241.9 L736.1 240.4 L733.8 240.1 L728.5 242.2 L725.0 245.7 L724.0 248.4 L725.2 249.1 L727.4 247.8 L730.9 244.7 L731.8 242.5 L729.3 241.7 L724.9 242.8 L721.5 246.3 L720.6 251.0 L723.0 254.9 L730.7 256.6 L741.0 257.0 L744.7 257.5 L742.2 259.4 L735.0 263.1 L732.8 265.5 L733.5 266.9 L735.5 268.2 L738.7 268.4 L741.1 266.6 L741.4 265.4 L736.4 266.1 L729.7 269.0 L729.0 271.1 L734.9 271.0 L742.2 268.8 L747.4 266.1 L745.9 265.4 L738.6 265.7 L731.3 267.2 L726.4 268.7 L723.5 269.8 L726.3 269.4 L735.0 267.8 L744.6 265.2 L750.3 263.1 L745.0 263.9 L743.1 264.3 L745.9 263.8 L751.8 262.4 L754.1 261.9 L763.7 259.0 L771.4 255.8 L776.1 253.1 L778.8 251.7 L780.8 251.2 L781.8 251.2 L786.1 251.6 L793.6 251.6 L799.1 252.3 L798.5 254.9 L796.6 257.4 L797.4 257.8 L798.4 257.9 L797.6 259.2 L798.3 259.8 L801.0 260.5" fill="none" stroke="rgb(53,132,228)" stroke-opacity="1.000" stroke-width="8" stroke-linecap="round" stroke-linejoin="round"/>
  <path d="M791.9 257.9 L790.0 259.0 L789.5 260.3 L790.2 260.8 L792.0 260.8 L793.1 260.6 L798.6 259.3 L804.7 257.8 L809.7 256.3 L813.1 255.6 L815.6 255.2 L819.2 254.8 L824.1 254.1 L829.4 252.9 L836.5 251.2 L841.2 249.5 L843.5 248.9 L844.9 249.5 L845.4 251.6 L843.9 254.4 L842.8 256.5 L843.7 256.8 L847.2 255.8 L850.1 254.5 L851.4 253.7 L848.5 255.2 L847.9 255.6 L847.0 256.5 L847.6 257.0 L849.0 257.3 L847.1 258.2 L845.8 258.7 L846.0 259.7 L847.9 260.0 L848.7 260.0 L853.0 259.9 L858.2 259.3 L863.7 258.5 L869.5 257.3 L874.9 255.8 L878.2 254.9 L880.8 254.4 L879.9 254.7 L877.6 255.9 L878.7 257.0 L880.6 257.0 L881.5 256.9 L884.3 256.1 L886.6 254.6 L887.6 252.5 L887.0 249.8 L882.7 246.4 L873.7 243.7 L864.6 243.0 L861.6 243.0 L862.3 242.7 L866.0 241.3 L867.6 240.3 L865.5 240.0 L859.3 241.5 L853.1 243.4 L852.1 244.1 L855.4 243.8 L857.4 243.5 L856.6 243.4 L854.2 243.6 L851.4 244.1 L850.1 244.4 L851.1 244.5 L853.5 244.5 L854.7 244.5" fill="none" stroke="rgb(53,132,228)" stroke-opacity="1.000" stroke-width="8" stroke-linecap="round" stroke-linejoin="round"/>
  <path d="M644.2 299.3 L643.5 299.8 L642.7 300.8 L641.7 302.4 L641.3 303.0 L639.6 306.2 L638.6 309.2 L638.8 311.6 L641.5 313.3 L645.9 314.5 L649.7 315.1 L650.8 316.3 L650.7 317.8 L650.1 320.5 L649.7 323.4 L649.8 326.6 L651.4 329.1 L655.9 330.0 L660.9 330.1 L662.1 330.8 L659.5 333.5 L655.4 336.8 L653.2 340.0 L653.6 342.1 L656.9 343.5 L660.9 344.8 L661.8 347.2 L659.7 350.9 L657.6 354.0 L656.4 357.4 L658.2 359.6 L660.5 361.3 L660.9 363.0 L660.1 364.7 L659.0 367.5 L657.6 370.8 L656.2 374.6 L655.9 377.8 L657.1 380.3 L659.7 382.0 L660.9 383.8 L659.8 386.6 L657.7 389.0 L656.2 391.8 L656.6 393.5 L657.8 394.8 L657.3 397.2 L653.6 401.0 L650.6 404.9 L650.1 407.7 L650.5 410.0 L650.9 411.8 L651.5 413.0 L652.2 414.0 L652.3 416.0 L649.9 419.2 L648.0 422.8 L647.6 425.2 L645.2 428.2 L641.8 431.7 L640.6 434.0 L640.8 435.6 L641.3 437.1 L642.1 438.4 L642.5 440.4 L642.3 442.9 L641.4 445.7 L639.2 449.1 L635.7 452.7 L630.8 456.0 L624.7 458.8 L620.5 460.4 L619.8 460.5 L616.7 461.9 L613.5 463.5 L609.9 465.3 L604.5 467.8 L603.7 468.4 L603.5 469.8 L602.2 471.0 L600.6 472.1 L598.1 474.6 L597.0 476.6 L599.2 477.3 L602.2 477.2 L603.2 477.3 L600.6 478.9 L598.8 480.4 L596.1 482.2 L592.2 484.2 L591.1 484.8 L592.2 484.8 L593.7 484.5 L592.7 485.3 L588.9 487.9 L585.8 490.5 L583.8 492.4 L583.2 493.3 L583.8 493.7 L584.6 493.8" fill="none" stroke="rgb(53,132,228)" stroke-opacity="1.000" stroke-width="8" stroke-linecap="round" stroke-linejoin="round"/>
  <path d="M568.3 320.7 L566.9 321.5 L566.2 321.9 L561.3 324.1 L558.7 325.2 L559.4 324.9 L555.8 325.9 L553.0 326.8 L550.1 327.7 L544.8 329.1 L543.2 329.5 L544.1 329.5 L547.2 328.7 L549.4 327.6 L545.0 328.3 L539.8 330.1 L538.0 330.5 L533.9 331.4 L538.7 329.7 L540.7 328.8 L542.6 327.4 L542.8 326.4 L538.5 326.2 L531.9 327.6 L519.4 330.3 L516.5 331.0 L518.6 329.9 L525.5 327.8 L535.0 324.9 L536.9 324.3 L535.1 325.4 L530.0 328.5 L526.6 331.1 L525.8 332.9" fill="none" stroke="rgb(134,94,60)" stroke-opacity="1.000" stroke-width="8" stroke-linecap="round" stroke-linejoin="round"/>
  <path d="M553.9 337.6 L547.1 340.4 L544.6 341.2 L547.4 340.3" fill="none" stroke="rgb(134,94,60)" stroke-opacity="1.000" stroke-width="8" stroke-linecap="round" stroke-linejoin="round"/>
  <path d="M555.8 337.2 L554.4 337.6 L556.2 337.1 L557.0 336.9 L558.5 336.4 L557.2 337.4 L555.8 338.2 L555.0 338.9 L556.1 339.2 L557.0 339.3" fill="none" stroke="rgb(134,94,60)" stroke-opacity="1.000" stroke-width="8" stroke-linecap="round" stroke-linejoin="round"/>
  <path d="M563.2 339.7 L557.7 342.4 L553.0 344.7" fill="none" stroke="rgb(134,94,60)" stroke-opacity="1.000" stroke-width="8" stroke-linecap="round" stroke-linejoin="round"/>
  <path d="M563.1 342.0 L561.5 343.4 L560.4 344.3 L560.6 345.1 L564.8 345.2" fill="none" stroke="rgb(134,94,60)" stroke-opacity="1.000" stroke-width="8" stroke-linecap="round" stroke-linejoin="round"/>
  <path d="M565.8 370.6 L567.5 370.0 L573.3 368.0 L574.9 367.5 L574.3 368.2 L572.8 369.2 L575.9 367.5 L577.7 366.3 L579.0 365.6 L578.5 364.6 L575.3 364.7 L568.5 367.0 L563.0 368.4 L564.4 367.1 L570.4 363.9 L573.9 362.1 L569.7 363.0 L558.4 367.4 L550.2 371.2 L556.2 369.7 L559.4 369.1 L558.2 371.7 L555.6 374.1 L552.4 377.4 L552.4 379.5 L559.4 379.3 L569.2 377.9 L571.4 379.7 L561.4 387.8 L549.6 395.9 L549.6 397.6 L562.0 392.9 L573.8 387.8 L572.8 388.5 L561.7 394.0 L553.6 397.9 L554.4 398.0 L559.2 396.8 L560.2 397.1 L559.6 397.9 L562.1 398.0 L568.2 396.7 L572.1 396.6 L569.2 399.5 L558.7 406.1 L554.6 409.2 L564.3 406.7 L578.7 402.9 L580.7 405.0 L569.9 413.0 L560.6 420.8 L558.9 423.3 L561.5 424.0 L566.0 423.8 L568.0 423.5" fill="none" stroke="rgb(134,94,60)" stroke-opacity="1.000" stroke-width="8" stroke-linecap="round" stroke-linejoin="round"/>
  <path d="M623.4 325.4 L622.1 325.3 L622.4 323.0 L622.6 322.2 L622.8 321.2 L621.8 320.9 L617.8 323.3 L611.4 327.1 L610.1 328.0 L613.6 327.2 L617.1 326.1 L618.1 325.9 L614.0 328.8 L609.2 332.7 L607.9 335.5 L610.6 337.4 L613.7 339.6 L613.7 343.4 L610.1 349.2 L607.6 354.2 L610.2 356.9 L615.2 358.2 L617.5 359.8 L616.0 362.9 L613.0 367.2 L611.9 370.7 L614.0 372.0 L616.2 372.6 L616.4 373.8 L612.6 377.5 L604.7 382.9 L599.9 386.8 L603.2 387.4 L610.2 386.0 L612.7 385.9 L609.7 388.8 L604.7 392.8 L601.7 395.9 L602.7 397.1 L606.8 397.3 L607.2 398.7 L599.1 404.2 L587.1 411.3 L583.9 414.2 L593.4 410.6 L604.2 407.2 L603.2 409.6 L593.8 416.5 L590.6 419.8 L597.5 417.7 L603.9 415.1 L600.7 417.6 L593.9 420.7 L592.8 421.2 L597.0 419.2 L601.1 417.9 L594.1 421.9 L582.8 427.2 L579.7 429.3 L587.2 427.6 L596.3 426.2 L595.5 429.1 L585.2 436.1 L577.4 440.4 L580.7 440.1 L588.8 436.9 L576.4 442.6 L565.7 446.9 L563.2 447.9 L561.3 448.6" fill="none" stroke="rgb(134,94,60)" stroke-opacity="1.000" stroke-width="8" stroke-linecap="round" stroke-linejoin="round"/>
  <path d="M699.9 334.2 L696.9 334.1 L694.0 334.4 L693.3 334.5 L692.9 333.7 L692.6 332.7 L691.7 332.8 L689.9 333.4 L685.0 335.5 L683.0 336.6 L684.7 336.4 L685.4 338.2 L685.3 339.6 L684.3 341.7 L681.0 346.1 L680.5 348.9 L685.1 350.3 L690.9 350.9 L691.9 352.9 L687.0 357.4 L682.0 361.3 L682.8 363.1 L688.1 363.5 L692.5 364.1 L693.0 366.9 L687.8 373.8 L677.4 382.1 L672.4 388.4 L681.3 389.6 L691.9 388.7 L692.5 390.8 L681.9 397.6 L672.0 403.9 L672.9 405.3 L683.0 403.4 L690.6 401.8 L689.7 403.6 L684.0 407.5 L682.5 409.5 L686.1 410.4 L689.6 410.9 L690.1 412.6 L689.2 414.8 L689.1 416.1 L690.6 417.0 L690.5 418.9 L688.7 421.6 L686.3 424.4 L686.1 426.0 L689.4 426.9 L691.0 428.3 L686.6 433.0 L679.0 438.2 L678.2 440.4 L685.6 440.0 L692.1 439.5 L688.3 444.5 L675.8 452.6 L668.2 459.3 L669.6 461.9 L674.3 463.2 L675.5 465.9 L674.1 468.9 L673.0 471.2 L669.5 475.0 L662.9 481.1 L658.2 486.5 L658.3 488.3 L659.0 488.1" fill="none" stroke="rgb(134,94,60)" stroke-opacity="1.000" stroke-width="8" stroke-linecap="round" stroke-linejoin="round"/>
  <path d="M708.6 321.1 L707.9 321.6 L708.1 322.5 L710.2 323.6 L715.3 323.3 L724.9 321.2 L734.2 319.8 L735.6 320.5 L733.1 322.8 L733.6 323.4 L739.5 322.8 L745.3 321.7 L748.5 321.2 L750.1 321.2 L748.1 323.2 L746.0 324.3 L750.0 323.8 L761.4 320.3 L772.2 317.8 L773.7 319.0 L767.6 324.1 L763.0 328.3 L765.6 329.8 L774.4 329.1 L783.2 327.9 L786.7 328.1 L787.1 329.0 L786.6 330.7 L787.2 332.2 L788.5 334.1 L791.0 335.9 L796.7 336.7 L803.3 337.4 L806.7 338.8 L807.8 341.6 L811.8 342.4 L819.7 341.1 L824.3 340.2 L822.5 342.0 L823.5 342.3 L824.5 342.2 L828.4 341.4 L836.0 339.9 L840.3 339.3 L841.8 339.3 L839.1 341.0 L838.6 341.4 L844.0 340.4 L852.5 338.8 L855.2 338.6 L851.9 341.2 L849.5 342.1" fill="none" stroke="rgb(134,94,60)" stroke-opacity="1.000" stroke-width="8" stroke-linecap="round" stroke-linejoin="round"/>
  <path d="M442.2 314.5 L440.3 314.2 L439.5 314.5 L438.1 315.3 L435.2 317.2 L433.5 318.9 L434.1 319.4 L438.9 318.4 L442.7 317.4 L440.4 320.8 L438.7 322.5 L439.9 324.2 L442.8 323.7 L446.6 322.6 L455.1 320.4 L462.4 319.2 L466.0 319.4 L464.7 322.0 L463.7 324.1 L470.0 322.9 L479.8 320.3 L487.3 319.2 L488.1 321.3 L481.6 327.2 L477.9 330.9 L485.6 329.8 L502.6 324.0 L516.5 320.3 L516.4 323.3 L507.1 330.8 L501.9 336.6 L506.7 338.3 L518.4 336.8 L530.7 335.4 L538.4 334.8 L537.8 336.3 L530.6 340.5 L527.0 342.4 L528.0 342.2" fill="none" stroke="rgb(134,94,60)" stroke-opacity="1.000" stroke-width="8" stroke-linecap="round" stroke-linejoin="round"/>
  <path d="M415.2 326.7 L416.9 325.9 L418.3 325.0 L420.0 324.2 L422.4 323.4 L422.5 324.2 L419.8 327.0 L418.9 328.6 L420.4 330.0 L421.7 330.9 L422.8 331.3 L421.6 331.9 L420.8 332.4 L417.4 334.6 L416.3 335.6 L418.6 336.0 L422.9 335.5 L424.0 335.7 L419.1 338.9 L411.1 343.6 L406.3 345.9 L409.1 343.0 L410.5 341.7 L411.1 340.9 L408.5 340.8 L398.7 343.8 L390.5 345.8 L386.7 345.8 L386.5 343.8 L382.2 345.3 L376.5 348.0 L374.7 348.7 L371.6 350.1 L372.3 349.5" fill="none" stroke="rgb(134,94,60)" stroke-opacity="1.000" stroke-width="8" stroke-linecap="round" stroke-linejoin="round"/>
  <path d="M380.5 344.8 L374.2 348.0 L369.3 350.7 L365.6 353.2 L364.7 353.9 L366.1 354.3 L374.4 351.6 L386.0 348.3 L390.7 348.4" fill="none" stroke="rgb(134,94,60)" stroke-opacity="1.000" stroke-width="8" stroke-linecap="round" stroke-linejoin="round"/>
  <path d="M379.7 370.3 L379.4 371.4 L379.3 372.6 L379.3 373.8 L379.1 371.7 L379.1 370.3 L379.0 365.2 L378.2 356.6 L376.7 347.1 L376.1 342.9 L376.6 344.7 L378.8 355.5 L382.3 369.2 L385.5 378.3 L386.7 376.7 L387.2 367.9 L386.0 355.8 L384.5 342.5 L384.3 337.6 L386.9 344.1 L392.2 359.3 L397.3 371.3 L401.4 374.3 L404.2 368.3 L405.6 358.7 L405.6 347.6 L407.3 343.3 L410.6 350.3 L416.1 367.6 L419.3 373.9 L422.3 373.0 L423.4 362.3 L422.6 350.5 L422.5 342.6 L426.3 344.7 L431.3 358.0 L436.8 367.3 L442.1 368.1 L444.9 363.7 L443.7 356.7 L440.7 351.6 L440.7 355.7 L443.2 363.0 L447.0 364.7 L449.8 360.4 L450.4 354.1 L449.5 348.3 L450.1 350.5 L452.8 358.9 L457.2 364.2 L461.3 362.9 L465.1 353.9 L465.6 346.7" fill="none" stroke="rgb(46,194,126)" stroke-opacity="1.000" stroke-width="8" stroke-linecap="round" stroke-linejoin="round"/>
  <path d="M466.5 334.1 L469.8 352.3 L471.7 366.6 L474.6 369.9 L476.9 364.3 L477.5 352.7" fill="none" stroke="rgb(46,194,126)" stroke-opacity="1.000" stroke-width="8" stroke-linecap="round" stroke-linejoin="round"/>
  <path d="M474.4 330.9 L476.1 342.5 L478.0 355.6 L479.1 363.0 L481.8 369.4 L484.3 365.9 L487.0 349.7" fill="none" stroke="rgb(46,194,126)" stroke-opacity="1.000" stroke-width="8" stroke-linecap="round" stroke-linejoin="round"/>
  <path d="M487.3 330.5 L490.6 350.1 L491.1 355.0 L493.3 366.6 L498.5 371.3 L502.6 363.3 L504.1 356.8" fill="none" stroke="rgb(46,194,126)" stroke-opacity="1.000" stroke-width="8" stroke-linecap="round" stroke-linejoin="round"/>
  <path d="M507.4 328.5 L511.3 345.3 L513.5 360.4 L514.1 364.5 L517.3 373.8 L519.9 369.3 L521.9 356.9 L522.0 352.8" fill="none" stroke="rgb(46,194,126)" stroke-opacity="1.000" stroke-width="8" stroke-linecap="round" stroke-linejoin="round"/>
  <path d="M521.8 338.9 L524.5 365.9 L526.6 368.8 L527.7 368.4 L530.2 361.2 L530.0 346.6 L528.1 334.4 L527.8 338.2 L529.4 355.3 L531.0 369.6 L532.8 371.8 L534.8 363.5 L535.0 352.6" fill="none" stroke="rgb(46,194,126)" stroke-opacity="1.000" stroke-width="8" stroke-linecap="round" stroke-linejoin="round"/>
  <path d="M533.4 334.5 L534.6 359.2 L534.7 367.7 L534.3 376.7 L533.5 381.5 L533.1 382.1" fill="none" stroke="rgb(46,194,126)" stroke-opacity="1.000" stroke-width="8" stroke-linecap="round" stroke-linejoin="round"/>
  <path d="M326.4 399.6 L327.1 400.1 L327.5 399.3 L327.7 398.6 L330.3 386.0 L328.6 373.8 L324.5 359.9 L322.5 354.1 L323.4 358.0 L328.2 374.2 L331.9 392.9 L333.4 404.2 L333.8 407.1 L334.0 404.3 L331.5 390.5 L329.2 372.5 L328.0 358.4 L328.8 359.1 L334.3 380.4 L341.6 398.2 L350.0 407.0 L356.5 406.1 L359.5 395.6 L359.1 379.2 L358.8 369.1 L359.7 371.4 L364.9 391.6 L371.1 404.8 L376.6 408.4 L378.9 401.8 L378.5 387.1 L378.2 382.2" fill="none" stroke="rgb(46,194,126)" stroke-opacity="1.000" stroke-width="8" stroke-linecap="round" stroke-linejoin="round"/>
  <path d="M377.7 362.4 L392.9 390.3 L398.9 402.2 L400.7 403.1 L402.5 397.2 L401.3 382.6" fill="none" stroke="rgb(46,194,126)" stroke-opacity="1.000" stroke-width="8" stroke-linecap="round" stroke-linejoin="round"/>
  <path d="M399.7 367.0 L406.4 383.4 L410.9 395.9 L412.4 398.7 L418.4 401.3 L420.5 390.4 L420.8 381.6" fill="none" stroke="rgb(46,194,126)" stroke-opacity="1.000" stroke-width="8" stroke-linecap="round" stroke-linejoin="round"/>
  <path d="M421.0 363.3 L430.0 378.1 L433.1 391.6 L435.1 396.3 L438.4 397.5 L441.9 387.0 L444.0 372.5" fill="none" stroke="rgb(46,194,126)" stroke-opacity="1.000" stroke-width="8" stroke-linecap="round" stroke-linejoin="round"/>
  <path d="M446.3 356.8 L456.1 385.2 L457.3 392.3 L459.0 395.7 L463.2 394.3 L467.9 381.4 L470.7 361.7 L473.6 357.9 L474.6 374.1 L476.2 389.5 L481.1 392.2 L487.3 384.7 L492.3 370.3 L495.4 357.5 L498.5 366.7 L500.4 385.5 L503.7 393.5 L508.9 390.1 L515.4 374.6 L517.3 360.4 L517.0 376.2 L516.8 380.0 L516.7 385.4 L517.8 387.9 L522.5 386.3 L529.7 378.7 L533.5 369.3 L534.5 382.1 L534.7 385.1 L534.8 390.4" fill="none" stroke="rgb(46,194,126)" stroke-opacity="1.000" stroke-width="8" stroke-linecap="round" stroke-linejoin="round"/>
  <path d="M700.5 342.7 L701.6 343.1 L702.9 343.9 L704.1 344.6 L704.6 345.3 L705.2 345.9 L705.9 346.6 L706.6 347.1 L707.7 345.4 L709.6 342.2 L711.4 338.3 L712.1 336.6 L712.1 337.9 L711.5 343.4 L710.7 350.0 L711.2 351.4 L713.4 348.0 L716.3 339.0 L717.3 331.7 L717.5 328.7 L717.6 333.6 L716.8 347.0 L717.5 360.2 L719.4 360.6 L721.6 355.0 L723.4 346.5 L724.1 340.5" fill="none" stroke="rgb(46,194,126)" stroke-opacity="1.000" stroke-width="8" stroke-linecap="round" stroke-linejoin="round"/>
  <path d="M725.6 329.7 L724.7 359.9 L724.3 363.7 L724.9 370.0 L728.2 368.8 L733.7 361.3 L735.9 355.9" fill="none" stroke="rgb(46,194,126)" stroke-opacity="1.000" stroke-width="8" stroke-linecap="round" stroke-linejoin="round"/>
  <path d="M739.8 339.7 L738.7 364.9 L739.0 368.8 L742.0 375.2 L751.6 371.7 L759.0 363.0 L762.9 352.9 L763.4 351.8 L761.7 361.1 L761.9 368.2 L767.3 365.3 L771.8 358.4 L773.5 350.1 L773.6 349.1 L772.1 360.5 L771.7 376.2 L776.9 377.2 L785.3 369.3 L790.5 360.7" fill="none" stroke="rgb(46,194,126)" stroke-opacity="1.000" stroke-width="8" stroke-linecap="round" stroke-linejoin="round"/>
  <path d="M793.7 348.3 L789.3 369.0 L789.3 371.8 L792.0 375.5 L801.3 371.5 L809.4 362.7 L814.5 353.2 L814.8 355.1 L811.5 370.9 L811.9 379.4 L817.9 378.4 L827.2 367.8 L830.1 361.6" fill="none" stroke="rgb(46,194,126)" stroke-opacity="1.000" stroke-width="8" stroke-linecap="round" stroke-linejoin="round"/>
  <path d="M833.1 350.7 L828.0 377.7 L828.6 382.1 L832.4 384.1 L840.6 379.1 L849.9 366.6" fill="none" stroke="rgb(46,194,126)" stroke-opacity="1.000" stroke-width="8" stroke-linecap="round" stroke-linejoin="round"/>
  <path d="M856.4 352.7 L854.4 371.4 L853.0 379.8 L853.3 381.2 L857.6 381.3 L863.1 374.3 L868.9 357.2 L870.7 351.2 L870.2 362.2 L868.2 377.1 L870.1 383.7 L873.2 381.0 L875.5 372.2 L876.9 357.2 L877.1 354.2 L876.2 365.9 L874.2 380.4 L874.8 382.9 L876.3 379.9 L877.6 372.0 L877.9 369.6 L875.5 379.2 L869.8 392.5 L864.7 395.8 L856.4 392.9 L845.9 384.5" fill="none" stroke="rgb(46,194,126)" stroke-opacity="1.000" stroke-width="8" stroke-linecap="round" stroke-linejoin="round"/>
  <path d="M783.3 375.7 L779.5 371.8 L777.7 368.5 L774.2 358.8 L771.1 346.7 L768.0 336.6 L764.2 343.5 L759.4 362.6 L756.3 375.8 L757.2 376.8 L762.1 366.2 L763.3 353.9 L761.7 344.6 L759.7 347.5 L754.9 360.6 L751.9 368.5 L752.3 365.9 L752.2 358.7 L749.7 353.0 L747.1 353.9 L742.1 363.9 L740.5 367.5" fill="none" stroke="rgb(46,194,126)" stroke-opacity="1.000" stroke-width="8" stroke-linecap="round" stroke-linejoin="round"/>
  <path d="M707.4 396.8 L705.1 398.7 L704.0 399.7 L704.7 394.7 L706.0 390.2 L707.3 382.3 L707.6 371.2 L707.5 368.0 L707.4 376.3 L705.5 401.3 L704.5 410.4 L705.7 410.1 L709.1 400.8 L710.4 386.2 L710.7 373.3 L710.3 383.0 L708.5 402.6 L708.9 418.1 L715.3 413.7 L723.0 402.1" fill="none" stroke="rgb(46,194,126)" stroke-opacity="1.000" stroke-width="8" stroke-linecap="round" stroke-linejoin="round"/>
  <path d="M727.6 382.9 L727.4 402.7 L727.3 413.1 L729.0 415.8 L735.8 413.1 L742.8 404.4 L747.6 391.4 L749.3 387.8 L749.3 399.1 L750.5 408.2 L756.3 408.0 L765.9 398.6 L770.7 387.2 L771.9 384.1 L772.6 395.5 L775.8 401.6 L784.1 399.8 L793.4 392.6 L799.6 383.3 L801.2 382.1 L800.6 393.6 L801.2 403.0 L806.8 404.1 L817.1 396.7 L822.9 386.8 L824.4 381.6 L822.9 392.3 L821.9 402.5 L825.4 405.8 L832.8 402.1 L837.6 394.7 L837.1 384.9 L833.9 392.1 L831.0 405.1 L833.3 411.7 L840.5 409.8 L850.3 400.1 L853.7 388.8 L847.5 407.1 L843.9 418.9 L843.6 421.7 L848.5 424.8 L856.1 417.1 L861.5 404.0 L863.1 395.5 L859.7 406.4 L852.0 422.5 L843.4 435.0 L841.9 436.7" fill="none" stroke="rgb(46,194,126)" stroke-opacity="1.000" stroke-width="8" stroke-linecap="round" stroke-linejoin="round"/>
  <path d="M1113.8 359.1 L1114.6 356.7 L1115.3 354.7 L1116.7 351.3 L1117.0 350.1 L1117.4 349.2 L1117.7 350.0 L1117.5 351.0" fill="none" stroke="rgb(46,194,126)" stroke-opacity="1.000" stroke-width="8" stroke-linecap="round" stroke-linejoin="round"/>
  <path d="M233.3 403.9 L233.5 403.1 L233.4 398.6 L233.4 397.6 L233.4 396.4 L233.3 395.5 L233.1 394.6 L232.8 393.8" fill="none" stroke="rgb(46,194,126)" stroke-opacity="1.000" stroke-width="8" stroke-linecap="round" stroke-linejoin="round"/>
  <path d="M288.7 377.2 L289.4 374.8 L291.8 363.7 L292.0 362.6 L292.4 366.0 L292.6 369.2 L292.8 375.1 L293.4 381.4 L294.0 383.5 L295.3 380.8 L295.4 380.0 L295.5 378.4 L295.0 378.9 L294.7 379.8" fill="none" stroke="rgb(46,194,126)" stroke-opacity="1.000" stroke-width="8" stroke-linecap="round" stroke-linejoin="round"/>
  <path d="M380.8 409.7 L381.4 409.2 L383.3 400.3 L383.5 399.5 L384.5 402.3 L385.5 406.0 L386.9 410.7 L387.3 412.0 L388.6 409.1 L389.1 407.4 L389.3 406.7 L389.9 408.7 L390.2 410.2 L390.5 411.6 L391.2 413.5" fill="none" stroke="rgb(46,194,126)" stroke-opacity="1.000" stroke-width="8" stroke-linecap="round" stroke-linejoin="round"/>
  <path d="M521.3 408.5 L521.2 407.1 L521.7 403.8 L522.1 402.3 L522.3 401.6 L523.2 404.8 L523.4 406.0 L524.0 410.8 L524.9 413.7 L525.1 412.8 L525.4 411.4 L525.5 410.4 L525.6 408.9 L525.4 409.7 L524.9 410.8" fill="none" stroke="rgb(46,194,126)" stroke-opacity="1.000" stroke-width="8" stroke-linecap="round" stroke-linejoin="round"/>
  <path d="M441.5 399.8 L442.9 400.5 L442.7 404.2 L442.6 405.9 L442.5 408.3 L443.3 410.5 L443.9 411.1 L446.7 408.3 L450.2 403.2 L452.1 401.0 L452.8 400.9 L452.7 404.2 L452.5 407.9 L452.8 410.5 L454.1 411.0 L455.3 410.4 L455.9 409.9 L456.2 412.1 L456.6 415.8 L457.5 418.9 L459.2 419.8 L460.2 419.4 L460.5 418.7 L459.4 418.7" fill="none" stroke="rgb(46,194,126)" stroke-opacity="0.580" stroke-width="8" stroke-linecap="round" stroke-linejoin="round"/>
  <path d="M465.8 428.5 L465.6 427.3 L464.8 423.6 L464.5 420.9 L464.1 418.1 L463.7 416.2 L463.6 417.2 L463.9 421.3 L464.0 422.8 L464.4 428.7 L464.4 429.7 L465.3 427.2 L466.7 422.4 L467.4 419.2 L467.9 421.4 L468.2 424.1 L468.6 424.7 L470.0 423.4 L472.1 417.7 L473.2 414.1 L474.3 417.1 L475.9 419.3 L476.7 419.6 L481.3 417.7 L482.3 416.7" fill="none" stroke="rgb(46,194,126)" stroke-opacity="0.580" stroke-width="22" stroke-linecap="round" stroke-linejoin="round"/>
  <path d="M487.5 409.6 L488.9 410.3 L488.8 411.9 L489.2 416.4 L492.1 418.1 L495.3 414.1 L498.7 408.2 L502.8 399.2 L504.2 396.1 L505.1 399.6 L507.7 409.3 L512.7 413.8 L518.3 412.6 L523.0 405.9 L523.7 399.7 L523.7 396.7 L523.2 401.7 L523.7 409.0 L527.5 411.9 L530.0 408.8 L531.5 403.5 L532.6 395.0 L532.7 393.7 L531.7 401.3 L530.7 412.3 L531.8 415.0 L534.2 409.3 L536.7 400.3 L538.2 394.5" fill="none" stroke="rgb(46,194,126)" stroke-opacity="0.580" stroke-width="22" stroke-linecap="round" stroke-linejoin="round"/>
  <path d="M542.5 379.5 L540.7 395.6" fill="none" stroke="rgb(46,194,126)" stroke-opacity="0.580" stroke-width="22" stroke-linecap="round" stroke-linejoin="round"/>
  <path d="M541.5 406.0 L542.4 401.3 L542.8 397.6" fill="none" stroke="rgb(46,194,126)" stroke-opacity="0.580" stroke-width="22" stroke-linecap="round" stroke-linejoin="round"/>
  <path d="M544.0 386.6 L545.1 395.2 L545.1 405.1 L545.1 406.4 L545.3 407.1 L545.5 399.8 L544.6 391.8" fill="none" stroke="rgb(46,194,126)" stroke-opacity="0.580" stroke-width="22" stroke-linecap="round" stroke-linejoin="round"/>
  <path d="M540.0 359.9 L538.9 372.6" fill="none" stroke="rgb(46,194,126)" stroke-opacity="0.580" stroke-width="22" stroke-linecap="round" stroke-linejoin="round"/>
  <path d="M535.0 375.8 L533.6 368.2 L533.0 364.7 L532.2 362.6 L529.7 365.5 L528.5 367.0 L526.8 367.6 L523.6 367.0 L517.9 365.4 L511.5 364.9 L504.9 366.9 L496.1 376.4 L490.5 384.9 L489.9 386.8 L490.9 382.6 L492.1 374.7 L492.2 364.2 L491.6 356.3 L490.8 358.6 L488.3 378.0 L486.0 393.9 L485.6 400.6 L487.1 397.0 L486.8 388.4 L484.6 379.9 L482.7 377.6" fill="none" stroke="rgb(46,194,126)" stroke-opacity="0.580" stroke-width="22" stroke-linecap="round" stroke-linejoin="round"/>
  <path d="M499.8 360.6 L500.2 358.4 L500.2 357.4 L500.0 353.6 L498.6 349.7 L497.4 347.9 L495.7 347.5 L489.8 352.7 L482.3 363.6 L477.2 375.8 L477.6 383.1 L479.6 384.1 L480.8 381.0 L482.2 374.6 L482.8 361.6 L482.9 355.8" fill="none" stroke="rgb(46,194,126)" stroke-opacity="0.580" stroke-width="43" stroke-linecap="round" stroke-linejoin="round"/>
  <path d="M480.1 350.6 L477.3 365.5 L473.4 386.9 L471.8 399.0 L470.6 405.6 L470.4 406.9" fill="none" stroke="rgb(46,194,126)" stroke-opacity="0.580" stroke-width="43" stroke-linecap="round" stroke-linejoin="round"/>
  <path d="M467.6 380.1 L465.8 372.0 L462.9 365.2 L459.1 361.8 L455.2 362.4 L449.5 370.4 L444.3 380.6 L438.4 391.5 L431.9 404.6 L428.7 412.1 L427.7 416.0 L427.7 414.4 L428.1 407.6 L428.2 394.3 L426.5 383.7 L423.1 378.1 L418.7 379.4 L412.1 392.7 L407.0 407.6 L404.2 421.0 L404.3 428.0 L405.3 425.9 L406.6 413.7 L406.6 399.7 L406.1 386.9 L404.4 380.4 L402.5 382.0 L400.1 396.2 L396.8 411.0 L394.0 421.0 L393.1 421.2 L392.5 412.2 L389.3 396.6 L386.0 385.4 L382.2 381.7 L377.8 385.8 L373.4 398.3 L372.4 403.7 L372.3 402.2 L371.1 394.7 L368.7 385.0 L366.1 378.4 L364.0 380.4 L360.3 390.6 L359.3 393.9 L359.1 390.8 L358.6 383.8 L356.7 375.9 L353.0 370.6 L349.3 376.3 L345.3 388.8 L345.2 392.4 L347.0 389.1 L348.2 382.6 L347.7 374.6 L346.7 373.7 L344.8 381.0 L343.6 394.1 L343.1 397.3 L342.9 396.0 L341.6 389.4 L339.7 384.3 L338.2 386.4 L335.4 398.0 L332.7 412.3 L334.1 423.0 L340.0 422.9 L352.1 414.8 L362.0 407.2 L368.5 406.1 L371.2 417.1 L372.6 429.6 L379.3 438.7 L383.2 439.3" fill="none" stroke="rgb(46,194,126)" stroke-opacity="0.580" stroke-width="43" stroke-linecap="round" stroke-linejoin="round"/>
  <path d="M406.1 427.4 L407.3 426.0 L407.5 427.5 L409.4 431.1 L410.6 431.6 L419.1 430.1 L432.4 423.8 L444.7 415.6 L446.6 413.7 L445.3 417.1 L445.2 422.6 L450.9 425.0 L458.8 420.7 L468.5 411.3 L471.0 406.1 L468.9 409.6 L467.4 419.8 L470.7 423.7 L477.3 421.8 L485.4 413.1 L489.0 407.1 L489.7 405.9 L488.2 413.5 L489.2 421.9 L497.1 424.7 L501.3 423.3" fill="none" stroke="rgb(46,194,126)" stroke-opacity="0.580" stroke-width="43" stroke-linecap="round" stroke-linejoin="round"/>
  <path d="M514.9 412.4 L516.1 412.5 L515.6 418.3 L516.1 422.7 L519.2 428.5 L526.3 428.5 L531.8 424.7 L533.1 420.5 L530.9 420.9 L527.6 425.9 L526.6 432.1 L528.7 433.5" fill="none" stroke="rgb(46,194,126)" stroke-opacity="0.580" stroke-width="43" stroke-linecap="round" stroke-linejoin="round"/>
  <path d="M720.8 436.3 L719.1 436.5 L717.7 436.3 L716.4 435.2 L715.6 433.0 L715.1 430.5 L714.5 422.6 L713.7 408.6 L713.2 400.9 L713.2 410.6 L713.5 422.7 L713.5 430.2 L713.8 439.6 L714.6 439.8 L715.3 429.8 L715.0 416.9 L714.3 397.6 L714.3 394.1" fill="none" stroke="rgb(46,194,126)" stroke-opacity="0.580" stroke-width="43" stroke-linecap="round" stroke-linejoin="round"/>
  <path d="M715.1 381.4 L714.9 397.3 L714.6 408.5 L714.5 413.4 L714.5 416.2 L714.6 408.8 L714.9 394.3 L716.1 378.5" fill="none" stroke="rgb(46,194,126)" stroke-opacity="0.580" stroke-width="43" stroke-linecap="round" stroke-linejoin="round"/>
  <path d="M717.9 367.4 L716.7 396.5 L716.3 402.9 L716.2 404.2 L716.6 401.5 L717.4 393.8 L718.7 380.8 L719.7 374.4 L720.6 380.3 L721.5 392.7 L725.6 400.5 L730.8 398.0 L736.4 390.7 L742.1 380.4 L744.3 381.4 L744.8 398.8 L745.3 412.0 L748.3 415.2 L753.4 406.2 L757.0 393.6 L760.4 378.5 L760.6 380.6 L759.5 398.7 L759.8 414.1 L763.2 421.0 L769.9 416.7 L775.4 406.3 L781.9 389.5 L785.0 385.4 L784.4 395.4 L781.5 411.2 L783.2 421.1 L788.1 418.0 L795.5 405.4 L801.0 392.0 L804.5 385.5 L803.2 398.6 L797.4 428.4 L795.6 442.8 L802.9 442.9 L814.4 430.0 L826.9 405.2 L830.8 396.8 L827.4 404.7 L817.8 429.4 L814.3 441.6 L818.1 440.5 L826.7 425.5 L832.1 408.0 L834.4 397.7 L833.1 406.8 L828.1 430.0 L825.0 446.7 L827.9 445.9 L836.2 431.9 L841.3 413.6 L843.2 400.0 L840.8 407.1 L835.6 427.2 L833.4 441.4 L837.0 439.0 L841.8 425.5 L844.4 403.4 L845.0 395.4 L843.8 402.6 L839.3 426.1 L839.3 435.2 L845.7 430.3 L851.6 418.0 L856.1 395.5 L856.2 389.0 L851.5 402.5 L848.9 418.5 L851.3 421.7 L855.1 415.0 L858.3 404.1 L858.8 393.7 L855.9 396.3 L850.4 410.5 L847.7 422.0 L847.3 424.7 L846.3 421.8 L837.2 418.7 L820.2 423.4 L793.9 438.4 L774.1 453.4 L771.3 456.5 L775.9 451.3 L775.4 445.4 L768.1 442.4 L759.0 449.4 L740.4 470.9 L727.0 481.2 L725.8 481.1" fill="none" stroke="rgb(46,194,126)" stroke-opacity="0.580" stroke-width="43" stroke-linecap="round" stroke-linejoin="round"/>
  <path d="M730.6 439.3 L724.9 446.2 L717.7 461.2 L710.3 476.1 L710.2 477.5" fill="none" stroke="rgb(46,194,126)" stroke-opacity="0.580" stroke-width="43" stroke-linecap="round" stroke-linejoin="round"/>
  <path d="M717.0 447.9 L713.2 451.3 L711.2 454.9 L707.2 464.6 L706.0 472.9 L709.8 473.2 L718.4 465.7 L720.3 462.3 L714.4 468.6 L707.5 478.8 L704.5 486.3 L707.7 485.0 L711.2 481.0 L708.3 480.2 L703.6 481.3" fill="none" stroke="rgb(46,194,126)" stroke-opacity="0.580" stroke-width="43" stroke-linecap="round" stroke-linejoin="round"/>
  <path d="M646.8 355.3 L646.7 353.5 L646.7 352.4 L646.8 351.4 L646.6 349.9 L645.9 348.9 L645.4 348.4 L644.9 347.3 L643.9 345.6 L643.2 344.1 L642.9 343.2 L643.0 342.0 L643.3 341.3 L643.7 339.3 L643.6 337.2 L643.5 336.4 L642.3 335.0 L641.3 335.2 L639.9 336.2 L637.3 338.7 L636.5 339.7" fill="none" stroke="rgb(53,132,228)" stroke-opacity="0.580" stroke-width="26" stroke-linecap="round" stroke-linejoin="round"/>
  <path d="M635.9 332.3 L634.7 333.3 L633.9 333.8" fill="none" stroke="rgb(53,132,228)" stroke-opacity="0.580" stroke-width="26" stroke-linecap="round" stroke-linejoin="round"/>
  <path d="M634.9 333.0 L634.2 337.1 L632.7 350.2 L633.9 355.0 L635.7 360.0 L635.5 365.8 L633.2 371.7 L631.5 376.3 L631.2 378.1 L631.5 379.9 L631.9 382.5 L631.0 387.3 L632.2 390.1 L635.4 391.9 L636.0 394.5 L631.5 400.9 L625.8 406.8 L625.7 409.9 L630.7 409.7 L634.3 408.7 L633.1 409.4 L631.2 411.7 L628.8 414.4 L626.4 417.9 L625.0 421.3" fill="none" stroke="rgb(53,132,228)" stroke-opacity="0.580" stroke-width="26" stroke-linecap="round" stroke-linejoin="round"/>
  <path d="M629.5 420.6 L628.2 420.9 L622.4 424.6 L616.8 429.1 L615.4 430.9" fill="none" stroke="rgb(53,132,228)" stroke-opacity="0.580" stroke-width="26" stroke-linecap="round" stroke-linejoin="round"/>
  <path d="M622.2 426.6 L620.2 428.6 L618.5 430.5 L615.2 434.9 L613.0 436.9 L611.4 437.5 L610.4 438.0 L608.1 439.8 L608.1 440.6 L609.5 440.4 L606.8 442.5 L604.6 444.2 L600.6 447.2 L595.7 451.8 L593.3 455.7 L593.4 457.3 L594.1 458.5 L591.3 462.9 L589.8 464.5 L588.3 466.5 L587.7 467.2 L585.8 469.0 L580.4 472.7 L577.1 475.2 L576.8 476.3 L579.1 475.9 L579.7 475.0 L578.5 474.8 L575.9 475.0 L574.2 474.4 L571.2 474.1 L569.7 474.4 L569.9 473.8 L570.1 473.0 L566.8 473.8 L561.6 475.4 L560.4 474.9 L559.8 474.2 L558.3 474.6 L557.6 475.1 L552.5 479.7 L549.2 482.8 L550.9 483.0 L554.9 481.0 L557.9 480.3 L558.2 483.1 L557.5 489.2 L556.1 495.1 L556.8 499.8 L560.3 500.4 L563.1 500.1 L564.3 500.0 L564.9 501.4 L565.0 505.3 L566.1 509.7 L571.1 510.8 L580.5 510.7 L579.8 515.1 L572.5 520.8 L567.4 525.0 L568.1 524.6 L566.8 524.2" fill="none" stroke="rgb(53,132,228)" stroke-opacity="0.580" stroke-width="26" stroke-linecap="round" stroke-linejoin="round"/>
  <path d="M629.3 413.2 L630.3 413.4 L630.5 414.5 L630.1 416.2 L628.4 419.9 L625.1 426.0 L624.1 428.5" fill="none" stroke="rgb(53,132,228)" stroke-opacity="0.580" stroke-width="26" stroke-linecap="round" stroke-linejoin="round"/>
  <path d="M620.1 439.0 L621.0 438.6 L622.1 437.5 L624.5 435.0 L629.5 428.6 L633.3 422.2 L636.5 413.0 L637.2 407.7 L637.1 406.7 L637.4 403.5 L638.2 400.8 L639.0 398.6 L640.1 393.2 L640.1 389.9 L640.0 386.8 L639.8 385.0 L639.5 382.5 L640.4 379.5 L641.1 377.6 L638.9 375.8 L636.4 375.0 L636.6 372.0 L639.0 366.7 L639.8 363.0 L640.3 358.8 L639.4 355.9 L638.0 354.3 L637.7 351.3 L639.1 348.2 L639.8 344.8 L639.7 342.5 L639.5 339.5 L639.8 337.0 L640.0 334.8 L639.9 332.9 L640.1 331.4 L641.1 329.7 L641.9 328.9 L642.0 328.0 L640.3 327.1 L637.5 325.9 L636.5 323.2 L636.5 320.7 L635.3 319.3 L634.3 318.9 L634.4 317.6 L633.0 315.8 L632.2 314.7 L631.7 313.5 L631.5 310.7 L630.6 308.6 L629.3 307.1 L629.3 306.3 L629.6 305.3 L630.1 303.7 L630.5 302.4 L631.0 300.6 L631.2 299.9 L630.5 299.4 L631.2 299.5 L631.3 300.6 L631.0 301.5 L630.0 303.1 L629.2 306.0 L628.1 311.4 L628.6 316.0 L632.1 319.9 L635.1 325.1 L635.5 331.4 L634.5 340.3 L634.2 348.2 L636.4 352.5 L639.4 356.5 L640.3 360.3 L639.9 365.6 L639.1 371.0 L637.4 376.3 L634.2 383.2 L633.2 387.9 L634.4 391.8 L634.0 396.2 L630.0 401.6 L622.8 409.7 L618.3 416.8 L617.8 420.4 L618.3 421.7 L616.2 424.7 L607.3 430.5 L598.9 435.9 L597.5 437.5 L598.5 438.5 L594.3 442.2 L585.1 448.9 L579.6 453.6 L576.2 457.6 L574.5 460.6 L567.7 467.4 L555.8 477.0 L551.1 483.9 L555.5 485.4 L565.6 485.5 L570.4 488.4 L569.2 493.9 L565.2 502.4 L564.6 508.8 L568.1 515.2 L571.3 522.2 L572.0 527.0" fill="none" stroke="rgb(53,132,228)" stroke-opacity="0.580" stroke-width="26" stroke-linecap="round" stroke-linejoin="round"/>
  <path d="M613.0 184.8 L613.1 185.5 L612.3 186.6 L610.7 187.9 L606.3 190.6 L599.9 192.0 L594.9 189.9 L594.3 185.6 L597.4 181.6 L601.4 181.4 L603.2 184.8 L602.2 194.0 L595.1 201.6 L588.8 203.7 L581.7 199.8 L579.5 194.1 L580.4 185.7 L582.1 182.9 L583.1 186.2 L579.7 197.3 L572.8 204.8 L563.6 208.6 L556.5 205.1 L554.5 199.1 L554.6 194.8 L554.9 195.8 L552.9 203.3 L544.8 210.5 L538.8 211.8" fill="none" stroke="rgb(53,132,228)" stroke-opacity="0.580" stroke-width="26" stroke-linecap="round" stroke-linejoin="round"/>
  <path d="M534.3 206.8 L531.4 209.6 L528.3 210.4 L524.3 210.1" fill="none" stroke="rgb(53,132,228)" stroke-opacity="0.580" stroke-width="26" stroke-linecap="round" stroke-linejoin="round"/>
  <path d="M520.0 199.1 L518.1 202.0 L514.6 203.9 L511.5 204.4" fill="none" stroke="rgb(53,132,228)" stroke-opacity="0.580" stroke-width="26" stroke-linecap="round" stroke-linejoin="round"/>
  <path d="M499.1 186.3 L497.8 189.7 L496.6 192.2 L493.0 197.3 L485.8 201.3 L480.3 200.2 L477.2 194.1 L478.7 186.4 L480.7 185.6 L480.6 191.5 L475.3 199.4 L467.8 203.0 L462.4 200.5 L461.2 193.7 L461.9 187.8 L460.5 195.8 L459.6 197.0 L455.7 199.3 L453.0 197.5 L453.0 189.6 L454.0 182.8 L452.1 181.3 L445.8 187.8 L441.2 192.2 L438.9 192.3" fill="none" stroke="rgb(53,132,228)" stroke-opacity="0.580" stroke-width="26" stroke-linecap="round" stroke-linejoin="round"/>
  <path d="M431.3 174.1 L430.1 174.0 L428.3 176.3 L422.5 183.2 L419.8 185.2 L418.7 182.2 L419.2 177.5 L420.2 173.6 L420.2 175.0 L419.0 182.5 L416.9 188.1 L416.2 190.0 L416.4 187.9 L416.6 182.0 L416.2 174.9 L416.1 173.4 L416.4 179.7 L414.7 186.7 L411.9 190.2 L409.2 188.1 L406.6 181.6 L404.3 175.3 L403.9 174.6" fill="none" stroke="rgb(53,132,228)" stroke-opacity="0.580" stroke-width="26" stroke-linecap="round" stroke-linejoin="round"/>
  <path d="M709.3 266.9 L708.6 265.0 L707.6 266.7 L707.2 268.9 L707.1 271.1 L709.0 274.4 L713.8 273.3 L715.0 272.6" fill="none" stroke="rgb(53,132,228)" stroke-opacity="0.580" stroke-width="26" stroke-linecap="round" stroke-linejoin="round"/>
  <path d="M737.9 267.8 L738.5 266.3 L737.6 268.7 L737.3 271.9 L738.5 273.4 L744.0 274.0 L754.1 270.4 L759.7 266.8 L760.6 265.8 L758.9 269.5 L759.8 273.7 L763.9 275.5 L767.3 273.3 L771.9 267.7 L775.1 263.3 L776.0 263.3 L777.1 267.9 L782.9 272.0 L791.0 271.2 L797.1 266.6 L801.5 259.4 L802.2 256.2 L800.9 259.0 L800.5 265.3 L803.0 267.3 L807.7 264.7 L812.3 260.2 L813.6 258.4 L813.7 261.7 L815.2 266.5 L822.0 268.6 L830.6 264.7 L836.7 259.8 L839.4 255.6 L838.9 256.7 L837.8 263.2 L840.6 266.1 L845.3 263.6 L850.1 259.2 L852.4 256.8 L851.2 260.3 L851.8 264.6 L858.1 266.3 L867.1 262.7 L873.3 258.3 L875.7 255.0 L874.9 260.4 L875.6 262.1 L878.2 263.5 L884.3 263.0 L887.3 259.7 L887.3 256.7 L886.8 254.4 L886.6 255.7 L885.9 262.0 L888.3 263.1 L890.1 260.3 L890.8 256.2 L890.0 255.3" fill="none" stroke="rgb(53,132,228)" stroke-opacity="0.580" stroke-width="26" stroke-linecap="round" stroke-linejoin="round"/>
  <path d="M696.5 240.8 L696.4 239.6 L694.9 239.3 L691.7 242.7 L686.6 249.5 L685.0 253.1 L687.2 252.8" fill="none" stroke="rgb(53,132,228)" stroke-opacity="0.580" stroke-width="26" stroke-linecap="round" stroke-linejoin="round"/>
  <path d="M691.0 248.4 L688.9 246.7 L687.6 248.4 L686.1 252.5 L686.1 260.3 L689.9 264.3 L694.5 262.5 L694.9 260.1 L690.7 261.2 L686.9 270.1 L688.2 276.6 L696.0 279.8 L698.8 279.1" fill="none" stroke="rgb(53,132,228)" stroke-opacity="0.580" stroke-width="26" stroke-linecap="round" stroke-linejoin="round"/>
  <path d="M625.7 183.3 L627.4 183.0 L631.3 182.3 L635.4 180.0 L637.5 176.9 L635.3 180.6 L635.3 183.2 L637.7 186.0 L647.4 184.2" fill="none" stroke="rgb(53,132,228)" stroke-opacity="0.580" stroke-width="26" stroke-linecap="round" stroke-linejoin="round"/>
  <path d="M656.4 175.7 L657.5 169.9 L657.4 171.0 L657.4 171.9 L659.1 175.3 L665.6 176.2" fill="none" stroke="rgb(53,132,228)" stroke-opacity="0.580" stroke-width="26" stroke-linecap="round" stroke-linejoin="round"/>
  <path d="M675.8 168.3 L676.6 166.4 L676.1 168.7 L678.2 170.5 L680.8 171.0 L688.2 169.7" fill="none" stroke="rgb(53,132,228)" stroke-opacity="0.580" stroke-width="26" stroke-linecap="round" stroke-linejoin="round"/>
  <path d="M689.7 166.2 L686.3 165.6" fill="none" stroke="rgb(53,132,228)" stroke-opacity="0.580" stroke-width="26" stroke-linecap="round" stroke-linejoin="round"/>
  <path d="M628.1 375.6 L625.6 375.4 L622.8 374.9 L620.9 374.5 L619.5 373.9 L618.1 373.4 L616.9 373.4 L615.9 373.9 L615.2 373.7 L615.5 371.0 L615.7 369.6 L615.6 368.7 L615.4 368.0 L615.9 366.7 L617.6 364.7 L619.4 363.9" fill="none" stroke="rgb(53,132,228)" stroke-opacity="0.580" stroke-width="26" stroke-linecap="round" stroke-linejoin="round"/>
  <path d="M740.5 149.8 L739.9 150.2 L740.1 151.4 L740.7 153.8 L741.2 155.6 L741.5 157.1 L742.2 160.2 L743.7 164.0 L745.4 167.0 L746.7 169.0 L748.5 171.4 L749.5 173.4 L751.0 176.0 L752.0 178.2 L753.7 181.1 L755.8 183.3 L757.0 184.7 L758.1 186.0 L758.1 184.0 L757.7 182.8 L756.2 180.8 L754.8 179.1" fill="none" stroke="rgb(255,120,0)" stroke-opacity="0.580" stroke-width="11" stroke-linecap="round" stroke-linejoin="round"/>
  <path d="M766.3 155.2 L766.3 156.1 L766.1 157.7 L765.9 159.6 L765.8 161.2 L765.8 166.4 L766.3 178.0 L766.3 180.2 L766.3 182.7 L766.3 185.0 L766.3 186.0 L765.8 185.3 L765.4 183.1 L765.1 181.7" fill="none" stroke="rgb(255,120,0)" stroke-opacity="0.580" stroke-width="11" stroke-linecap="round" stroke-linejoin="round"/>
  <path d="M748.8 157.8 L749.6 159.9 L750.0 162.6 L751.0 167.6 L752.2 174.1 L753.0 179.5 L753.4 180.4 L753.7 179.7 L755.3 172.5 L756.6 165.7 L757.2 163.4 L757.9 168.5 L759.1 177.6 L760.0 184.6 L760.3 186.1" fill="none" stroke="rgb(255,120,0)" stroke-opacity="0.580" stroke-width="11" stroke-linecap="round" stroke-linejoin="round"/>
  <path d="M740.5 174.8 L740.5 175.7 L741.2 176.9 L741.9 177.2 L743.0 178.2 L745.8 180.8 L748.4 183.2 L751.8 186.8 L754.1 189.0 L755.6 189.8 L756.9 188.9 L758.2 184.4 L759.8 178.8 L760.8 175.9 L760.0 179.8 L759.9 181.6 L760.4 184.5 L762.0 187.8 L764.4 189.8 L765.4 189.8 L766.0 186.9 L766.8 184.3 L766.8 185.6" fill="none" stroke="rgb(255,120,0)" stroke-opacity="0.580" stroke-width="11" stroke-linecap="round" stroke-linejoin="round"/>
  <path d="M783.4 184.5 L784.3 185.0 L785.0 186.2 L785.2 185.4" fill="none" stroke="rgb(255,120,0)" stroke-opacity="0.580" stroke-width="11" stroke-linecap="round" stroke-linejoin="round"/>
  <path d="M755.3 154.5 L755.6 153.2 L756.3 155.5 L756.7 157.4 L758.0 165.4 L760.1 176.2 L762.0 184.7 L762.5 185.6 L763.1 178.6 L763.3 170.7 L763.6 163.2 L763.8 162.5 L765.1 170.7 L766.3 182.6 L768.1 191.2 L769.0 194.0 L769.5 194.4" fill="none" stroke="rgb(255,120,0)" stroke-opacity="0.580" stroke-width="11" stroke-linecap="round" stroke-linejoin="round"/>
  <path d="M772.8 210.8 L774.0 214.9 L774.7 217.0 L775.2 219.5 L776.3 226.5 L777.5 233.6 L778.8 239.1 L779.4 240.8 L779.2 239.8 L777.6 235.0" fill="none" stroke="rgb(255,120,0)" stroke-opacity="0.580" stroke-width="11" stroke-linecap="round" stroke-linejoin="round"/>
  <path d="M776.2 227.4 L777.6 233.5 L779.2 240.8 L780.7 246.7 L784.5 258.7 L787.2 263.9 L789.2 264.5 L789.5 261.1" fill="none" stroke="rgb(255,120,0)" stroke-opacity="0.580" stroke-width="11" stroke-linecap="round" stroke-linejoin="round"/>
  <path d="M787.1 242.1 L787.4 244.5 L787.6 245.8 L789.2 253.1 L790.2 258.1 L790.4 259.0" fill="none" stroke="rgb(255,120,0)" stroke-opacity="0.580" stroke-width="11" stroke-linecap="round" stroke-linejoin="round"/>
  <path d="M791.2 144.0 L791.0 142.8 L791.0 141.9 L791.2 140.7 L792.0 138.6 L792.4 137.4 L792.7 136.7 L794.1 134.3 L795.4 132.3 L795.9 131.3 L795.9 132.4 L795.5 134.5 L795.2 135.3 L794.9 136.1 L794.9 136.9 L794.9 138.1 L794.9 138.9 L794.6 141.0 L792.9 147.0 L790.8 154.8 L789.7 163.5 L790.5 170.8 L793.2 175.7 L796.1 177.0 L798.3 174.7 L801.2 168.3 L804.1 159.6 L805.4 153.5 L802.1 158.7 L800.7 162.4 L798.3 169.6 L795.9 181.8 L796.1 188.3 L799.1 189.8 L803.3 185.1 L805.1 180.5 L804.2 178.5 L797.5 184.1 L793.1 189.8 L790.4 194.1 L793.1 189.1 L794.1 186.2 L794.9 182.4 L794.6 181.0 L789.7 187.3 L782.2 197.1 L777.6 201.6 L778.3 201.3" fill="none" stroke="rgb(255,120,0)" stroke-opacity="0.580" stroke-width="11" stroke-linecap="round" stroke-linejoin="round"/>
  <path d="M781.2 200.8 L783.8 197.7 L785.0 195.3 L785.2 194.4 L783.9 197.2 L784.9 197.9 L786.4 197.1 L787.0 196.3 L785.7 197.9 L785.1 199.1 L784.8 200.4 L785.0 201.8 L785.7 202.5" fill="none" stroke="rgb(255,120,0)" stroke-opacity="0.580" stroke-width="11" stroke-linecap="round" stroke-linejoin="round"/>
  <path d="M793.2 282.6 L792.7 283.3 L793.1 284.5 L797.5 286.3 L805.5 286.9 L811.3 287.7 L811.6 290.4 L809.1 294.3 L812.9 295.0 L820.7 294.0 L830.0 293.7 L830.1 297.1 L824.4 301.9 L822.1 305.0 L822.5 305.9 L828.0 304.9 L835.8 302.9" fill="none" stroke="rgb(255,120,0)" stroke-opacity="0.580" stroke-width="11" stroke-linecap="round" stroke-linejoin="round"/>
  <path d="M836.7 303.2 L825.2 308.4 L828.1 308.2" fill="none" stroke="rgb(255,120,0)" stroke-opacity="0.580" stroke-width="11" stroke-linecap="round" stroke-linejoin="round"/>
  <path d="M860.6 304.2 L858.7 306.3 L855.9 309.3 L855.2 311.5 L861.0 311.6 L868.0 310.5 L869.0 310.5 L867.6 311.0 L868.9 310.5 L870.6 309.6 L865.9 310.7 L861.6 312.1 L863.6 311.8 L866.6 311.1 L864.0 312.1 L856.4 314.2 L854.6 314.2 L856.7 312.1 L855.2 311.1 L844.9 311.7 L836.5 312.8 L838.6 311.1 L837.7 311.5 L834.3 313.0 L831.6 313.8 L824.9 314.3" fill="none" stroke="rgb(255,120,0)" stroke-opacity="0.580" stroke-width="11" stroke-linecap="round" stroke-linejoin="round"/>
  <path d="M812.9 313.3 L804.1 312.2 L803.0 312.0" fill="none" stroke="rgb(255,120,0)" stroke-opacity="0.580" stroke-width="11" stroke-linecap="round" stroke-linejoin="round"/>
  <path d="M795.5 310.1 L791.1 309.5 L787.5 309.5 L785.9 308.4 L786.2 307.0 L782.4 306.7 L776.9 306.5 L775.6 305.8" fill="none" stroke="rgb(255,120,0)" stroke-opacity="0.580" stroke-width="11" stroke-linecap="round" stroke-linejoin="round"/>
  <path d="M776.0 299.5 L768.3 301.7 L765.7 302.3 L763.0 302.7 L766.8 299.7 L776.1 295.3 L781.2 293.6" fill="none" stroke="rgb(255,120,0)" stroke-opacity="0.580" stroke-width="11" stroke-linecap="round" stroke-linejoin="round"/>
  <path d="M849.4 323.3 L851.0 322.1 L852.3 319.9 L853.1 318.4 L854.4 316.2 L855.5 314.4 L853.3 317.4 L852.1 321.0 L853.0 321.4 L856.2 320.9 L860.5 319.0 L861.6 318.8 L858.3 322.0 L856.0 325.4 L859.3 326.1 L864.1 325.5 L866.0 325.7 L863.6 329.1 L861.9 331.2 L864.5 331.8 L866.9 327.1 L864.0 323.6 L861.0 321.4 L853.7 319.8" fill="none" stroke="rgb(255,120,0)" stroke-opacity="0.580" stroke-width="11" stroke-linecap="round" stroke-linejoin="round"/>
  <path d="M768.2 170.3 L768.5 169.5 L768.2 168.6 L768.5 165.8 L768.6 164.8 L768.9 159.7 L768.0 153.0 L765.8 142.6 L762.7 132.5 L759.2 127.3 L755.3 128.1 L752.5 135.6 L752.4 150.2 L755.1 160.4 L759.6 168.7 L762.8 170.7 L764.4 166.0 L765.6 154.8 L767.8 140.1 L771.1 129.3 L772.6 126.9 L771.6 132.9 L766.9 149.0 L761.8 165.1 L761.0 172.3 L761.6 170.1 L764.0 156.2 L765.8 138.3" fill="none" stroke="rgb(255,120,0)" stroke-opacity="0.580" stroke-width="11" stroke-linecap="round" stroke-linejoin="round"/>
  <path d="M758.8 167.1 L760.3 174.5 L762.7 177.8 L766.4 181.1 L781.0 180.8 L802.5 170.8 L821.3 159.9 L828.4 156.3" fill="none" stroke="rgb(255,120,0)" stroke-opacity="0.580" stroke-width="11" stroke-linecap="round" stroke-linejoin="round"/>
  <path d="M816.6 165.3 L798.9 177.4 L804.7 176.8 L815.0 172.6 L822.8 169.5 L840.4 164.1 L845.4 164.3 L839.2 169.2 L835.1 171.8 L838.4 171.0 L847.7 165.6 L849.7 163.9 L835.6 169.4 L814.3 177.9 L800.6 181.5 L797.4 179.0 L802.3 169.9 L810.7 154.9 L812.8 146.0 L812.1 145.3" fill="none" stroke="rgb(255,120,0)" stroke-opacity="0.580" stroke-width="11" stroke-linecap="round" stroke-linejoin="round"/>
  <path d="M799.7 149.3 L778.0 161.0 L791.2 151.2 L803.7 138.6 L808.2 134.0" fill="none" stroke="rgb(255,120,0)" stroke-opacity="0.580" stroke-width="11" stroke-linecap="round" stroke-linejoin="round"/>
  <path d="M785.3 149.1 L769.4 157.4 L767.8 158.1 L768.7 156.8 L773.8 149.9 L784.1 136.1 L788.6 130.8 L787.7 132.8 L780.2 141.3 L768.4 153.3 L763.3 158.7 L764.7 156.5 L768.5 146.9 L768.2 137.9 L763.9 134.5" fill="none" stroke="rgb(255,120,0)" stroke-opacity="0.580" stroke-width="11" stroke-linecap="round" stroke-linejoin="round"/>
  <path d="M729.4 142.9 L724.9 143.9 L725.7 143.6" fill="none" stroke="rgb(255,120,0)" stroke-opacity="0.580" stroke-width="11" stroke-linecap="round" stroke-linejoin="round"/>
  <path d="M832.9 302.7 L833.8 302.6 L836.7 303.0 L837.7 303.2 L839.4 303.6 L842.8 304.0 L846.8 304.1 L849.9 304.4 L852.1 304.4 L854.9 304.6 L856.8 304.9 L859.5 305.7 L862.9 306.8 L867.1 307.7 L871.3 308.6 L874.3 309.8 L876.1 310.7 L877.8 312.0 L879.1 313.6 L880.1 315.1 L881.8 317.6 L883.2 320.2 L884.0 323.7 L885.3 327.2 L885.9 330.8 L886.2 334.1 L886.3 336.7 L886.3 339.0 L886.4 340.3 L886.6 341.7 L887.0 342.8 L886.9 342.1 L886.3 339.9" fill="none" stroke="rgb(255,120,0)" stroke-opacity="0.000" stroke-width="11" stroke-linecap="round" stroke-linejoin="round"/>
  <path d="M875.5 323.2 L875.2 322.4 L875.0 321.1 L875.5 320.5 L879.3 322.6 L882.0 324.5 L883.9 325.9 L887.4 329.3 L889.0 331.3 L889.5 332.6 L889.5 333.4 L889.5 334.5 L889.5 335.4 L889.4 336.7 L887.7 336.2" fill="none" stroke="rgb(255,120,0)" stroke-opacity="0.000" stroke-width="11" stroke-linecap="round" stroke-linejoin="round"/>
  <path d="M848.3 311.8 L850.2 308.7 L851.2 308.6 L853.2 309.0 L855.4 309.8 L863.0 311.7 L870.3 313.5 L873.8 315.3 L874.1 317.6 L872.9 321.0 L873.3 322.9 L876.5 323.2 L878.7 322.6 L880.4 322.2 L879.1 327.4 L878.9 328.3 L879.7 330.9 L886.6 331.9 L894.2 332.1 L897.8 332.1 L895.7 335.0 L889.7 340.0 L888.7 341.6 L892.3 341.1 L895.8 339.5 L894.7 341.3 L893.6 342.9 L892.9 344.7 L896.5 345.1 L904.9 342.7 L908.1 341.6 L904.9 343.0 L897.1 346.3 L902.6 342.3 L904.1 341.3 L898.3 340.9" fill="none" stroke="rgb(255,120,0)" stroke-opacity="0.000" stroke-width="11" stroke-linecap="round" stroke-linejoin="round"/>
  <path d="M836.8 326.6 L837.6 326.5 L838.2 325.9 L839.4 325.7 L844.7 323.9 L845.9 323.4 L843.4 324.7 L842.2 325.4 L841.4 326.0" fill="none" stroke="rgb(255,120,0)" stroke-opacity="0.340" stroke-width="11" stroke-linecap="round" stroke-linejoin="round"/>
  <path d="M856.6 310.9 L854.3 310.5 L853.1 310.0 L850.6 308.6 L848.4 307.7 L845.9 307.4 L845.0 307.4 L843.9 307.2 L842.4 307.2 L841.6 306.9 L843.6 306.7 L844.7 306.8 L850.1 306.6 L856.9 307.1 L859.8 308.8 L861.9 311.6 L863.3 314.3 L867.2 316.2 L872.9 316.9 L876.5 317.0 L878.0 317.1 L877.8 318.0 L877.1 320.6 L878.1 323.7 L880.0 325.6 L880.7 326.0" fill="none" stroke="rgb(255,120,0)" stroke-opacity="0.340" stroke-width="11" stroke-linecap="round" stroke-linejoin="round"/>
  <path d="M900.6 332.5 L902.0 331.2 L905.2 328.7 L906.9 327.5 L907.5 326.9 L906.5 333.3 L906.5 334.6 L907.5 338.3 L909.5 338.7 L914.0 335.3 L917.0 333.6 L914.7 336.7 L913.2 339.0" fill="none" stroke="rgb(255,120,0)" stroke-opacity="1.000" stroke-width="11" stroke-linecap="round" stroke-linejoin="round"/>
  <path d="M820.7 306.1 L821.3 306.6 L822.4 306.6 L825.9 306.6 L832.8 306.4 L839.8 306.5 L843.7 307.1 L847.5 308.3 L851.9 309.3 L856.4 309.7 L861.2 310.0 L865.4 310.9 L869.8 312.2 L874.6 313.2 L877.3 314.7 L878.4 316.3 L881.1 318.4 L885.3 319.9 L890.0 320.9 L894.0 322.1 L896.2 323.7 L898.7 325.4 L903.1 326.8 L908.9 327.7 L913.7 328.4 L917.0 329.8 L917.2 332.0 L917.5 333.4 L919.7 335.2 L921.2 335.8 L921.8 336.4 L918.0 338.9 L913.9 341.3 L913.8 342.1 L914.8 342.4 L913.8 343.7 L912.9 344.9 L912.3 345.5" fill="none" stroke="rgb(255,120,0)" stroke-opacity="1.000" stroke-width="11" stroke-linecap="round" stroke-linejoin="round"/>
  <path d="M926.0 352.0 L926.8 352.4 L927.3 352.9 L928.0 353.4 L926.6 356.8 L919.4 361.4 L914.9 364.4 L912.9 366.3 L912.7 368.8 L917.8 365.5 L924.5 359.0 L929.5 354.3 L929.5 353.5 L922.7 358.2 L916.9 362.6 L924.3 358.0 L927.5 354.7 L928.2 353.8 L924.6 354.4 L915.5 360.7 L911.3 363.3 L916.5 359.2 L923.3 353.1 L924.5 351.0 L913.7 357.5 L914.3 358.6 L914.5 359.4 L913.7 361.3 L904.4 368.3 L891.6 376.8 L894.1 377.6 L907.9 374.9 L899.3 379.6 L896.6 381.2 L895.2 382.8 L895.9 385.2 L893.6 388.9 L889.0 392.0 L890.1 393.3 L899.1 392.5 L902.6 393.0 L896.4 396.7 L892.3 398.6 L894.5 399.2 L895.7 400.3 L890.2 404.6 L887.8 407.7 L890.9 408.1 L885.3 411.3 L873.9 416.8 L874.3 418.8 L883.7 419.1 L882.7 422.6 L871.0 430.5 L867.2 435.0 L874.5 436.5 L876.9 438.0 L867.2 444.5 L859.0 450.4 L868.1 450.7 L882.3 449.7 L878.4 454.6 L866.2 462.5 L861.0 468.9 L867.6 468.4 L863.8 470.2 L850.7 474.3 L856.2 471.5 L872.3 466.3 L878.9 466.3 L862.1 475.3 L843.7 484.8 L838.6 488.0 L838.9 488.8 L831.0 491.8 L818.1 495.5 L820.9 493.6 L837.7 487.7 L834.0 488.9 L805.2 499.0 L788.0 504.4 L794.4 498.1 L806.9 490.1 L799.1 489.9 L778.6 493.4 L775.0 491.1 L779.8 488.3 L790.0 483.3 L752.5 493.1 L755.8 490.2 L761.3 487.0 L773.1 480.7 L774.7 478.7 L762.6 482.2 L756.6 483.8 L759.3 482.8 L763.4 481.9 L765.2 482.5 L770.2 484.4 L773.0 487.4 L772.2 491.2 L760.8 498.7 L750.8 504.0 L755.1 501.9 L759.9 499.6 L748.7 504.0 L730.6 511.9 L724.2 513.9 L728.3 512.3 L717.1 516.5 L713.9 517.2 L712.7 517.0 L719.2 512.3 L719.7 510.6 L705.6 515.2 L692.8 518.5 L692.0 517.1 L699.6 510.4 L699.3 505.9 L689.2 507.8 L676.1 509.3 L676.3 504.9 L683.5 499.8 L684.6 498.5 L670.3 505.5 L663.1 509.8 L671.3 508.1 L680.9 506.0 L679.4 509.8 L677.8 511.2 L685.8 508.5" fill="none" stroke="rgb(255,120,0)" stroke-opacity="1.000" stroke-width="11" stroke-linecap="round" stroke-linejoin="round"/>
  <path d="M853.2 294.4 L854.0 294.5 L857.0 293.4 L857.9 293.0" fill="none" stroke="rgb(255,120,0)" stroke-opacity="1.000" stroke-width="11" stroke-linecap="round" stroke-linejoin="round"/>
  <path d="M888.5 288.4 L879.8 293.5 L867.2 301.1 L869.6 303.0 L887.9 299.5 L900.9 298.3 L899.3 301.2 L896.0 303.6 L895.1 305.2 L900.6 303.1 L901.4 302.7 L904.0 303.0 L907.9 302.6 L915.8 301.6 L923.9 301.3 L918.4 304.8 L910.0 309.0 L914.1 309.0 L920.0 307.8" fill="none" stroke="rgb(255,120,0)" stroke-opacity="1.000" stroke-width="11" stroke-linecap="round" stroke-linejoin="round"/>
  <path d="M929.0 306.0 L918.3 310.3 L922.7 310.2 L927.9 309.4 L935.9 308.2 L937.8 308.8 L930.9 312.3 L929.7 313.9 L940.6 312.3 L954.4 309.8 L956.3 310.8 L953.0 312.8 L956.4 313.7 L966.3 313.4 L967.6 315.3 L959.3 321.1 L958.6 325.0 L972.2 324.2 L980.7 325.2 L972.8 331.7 L962.8 339.5 L961.9 344.6 L965.2 347.5 L965.9 350.5 L961.5 355.0 L961.7 358.8 L971.0 360.3 L974.7 363.0 L968.2 370.2 L963.9 376.4 L965.7 380.2 L967.5 383.5 L971.5 386.3 L978.0 388.7 L976.4 393.9 L969.3 401.7 L968.2 408.1 L970.2 414.1 L965.4 420.9 L955.5 428.3 L954.3 433.1 L965.0 434.2 L969.5 437.6 L957.0 446.4 L945.7 455.3 L948.2 459.6 L951.8 462.5 L943.1 468.5 L936.6 473.8 L942.8 475.7 L946.9 478.0 L945.2 481.4 L939.2 488.3 L931.8 495.5 L932.8 499.9 L942.1 501.4 L941.4 505.2 L929.8 512.7 L925.3 517.6 L927.3 520.1 L926.4 523.1 L922.0 527.7 L920.6 531.8 L926.6 534.3 L938.3 536.6 L937.7 541.3 L919.9 550.2 L907.8 556.5 L908.7 556.5 L912.4 555.6 L905.4 558.6 L896.1 562.3 L900.5 562.9 L911.4 562.2 L913.1 564.7 L909.4 570.5 L906.2 576.1 L901.6 580.1 L893.8 583.3 L890.0 584.6 L891.4 584.8" fill="none" stroke="rgb(255,120,0)" stroke-opacity="1.000" stroke-width="11" stroke-linecap="round" stroke-linejoin="round"/>
  <path d="M906.4 585.1 L898.1 594.2 L897.5 597.9 L899.4 599.4 L911.2 600.7 L914.6 603.5 L913.1 606.0 L915.6 607.4 L925.3 606.8 L928.0 607.4 L920.3 610.6 L917.9 611.9 L924.2 610.3 L928.4 609.0" fill="none" stroke="rgb(255,120,0)" stroke-opacity="1.000" stroke-width="11" stroke-linecap="round" stroke-linejoin="round"/>
  <path d="M483.2 297.6 L482.1 297.5 L480.4 298.2 L478.2 299.4 L476.0 300.4 L467.4 303.6 L456.6 306.6 L452.3 306.4 L453.0 304.6" fill="none" stroke="rgb(255,120,0)" stroke-opacity="1.000" stroke-width="11" stroke-linecap="round" stroke-linejoin="round"/>
  <path d="M455.4 301.9 L440.9 305.5 L438.8 305.7 L438.7 304.6 L438.9 302.5 L432.9 303.4 L421.2 306.7 L412.4 308.3 L410.0 307.5 L408.3 306.2 L402.6 306.7 L396.8 307.6 L398.4 305.8 L397.3 305.9 L395.5 306.5 L391.5 307.7 L390.0 307.9 L386.5 307.2 L384.6 307.4 L382.1 307.5 L380.6 306.5 L378.5 305.5 L374.2 305.0 L370.7 304.9 L369.0 304.0 L367.6 302.5 L365.8 299.9 L362.4 296.5 L356.6 291.7 L349.1 283.6 L343.5 275.1 L339.0 266.3 L335.7 257.1 L330.4 249.6 L323.7 243.0 L320.1 235.0 L321.8 224.6 L325.1 215.0 L321.1 210.5 L313.0 209.2 L309.2 206.2 L309.9 200.7 L309.9 196.1 L305.3 193.7 L301.6 192.5 L298.9 192.2 L295.3 192.4 L289.4 194.7 L284.2 197.8 L280.4 202.5 L278.0 207.5 L272.5 216.8 L269.3 228.4 L272.0 235.3 L271.8 241.5 L265.1 250.8 L255.9 261.1 L247.0 270.9 L236.9 281.2 L225.8 291.2 L214.6 300.4 L204.9 307.7 L200.9 311.6 L197.4 314.6 L188.7 320.4 L178.0 328.4 L173.6 332.9 L173.3 333.8 L172.3 336.3 L165.2 342.1 L158.5 348.4 L152.0 353.8 L145.0 358.3 L141.1 360.7 L139.5 361.7 L135.9 363.5 L128.2 367.0 L121.2 368.8 L116.5 368.9 L112.5 367.7 L110.4 366.5 L106.6 367.0 L102.9 369.3 L104.5 370.4 L109.8 369.0 L110.6 368.9 L107.0 373.1 L103.6 376.3 L102.6 376.9 L101.6 377.7 L101.0 378.1 L100.3 378.7" fill="none" stroke="rgb(255,120,0)" stroke-opacity="1.000" stroke-width="11" stroke-linecap="round" stroke-linejoin="round"/>
  <path d="M290.4 354.6 L289.5 354.6 L282.5 358.6 L281.5 359.2 L278.4 360.6 L277.6 360.9 L273.0 362.6 L271.9 363.0 L268.2 364.6 L265.9 365.8 L263.6 366.7" fill="none" stroke="rgb(255,120,0)" stroke-opacity="1.000" stroke-width="11" stroke-linecap="round" stroke-linejoin="round"/>
  <path d="M918.9 391.2 L914.1 392.3 L912.0 394.7 L916.7 393.5 L919.1 392.5" fill="none" stroke="rgb(246,211,45)" stroke-opacity="0.270" stroke-width="11" stroke-linecap="round" stroke-linejoin="round"/>
  <path d="M918.7 393.1 L914.9 394.9 L911.7 397.0" fill="none" stroke="rgb(246,211,45)" stroke-opacity="0.270" stroke-width="11" stroke-linecap="round" stroke-linejoin="round"/>
  <path d="M921.8 388.2 L923.0 386.4 L923.0 385.6 L918.4 387.6 L915.7 389.2 L921.5 387.1 L929.9 382.0 L931.4 380.5 L924.6 383.7 L920.0 386.4 L922.8 385.5 L928.8 382.0 L929.7 380.6 L922.5 383.9 L921.1 384.8 L924.2 383.4 L929.0 379.3 L929.0 378.4 L922.1 382.0 L917.9 384.5 L922.8 382.2 L932.8 375.5 L939.5 369.9 L938.8 368.9 L933.8 370.0 L941.4 364.7 L943.6 362.6 L942.9 362.0 L947.2 360.0 L950.5 358.3 L954.3 355.9 L955.8 354.3 L950.3 355.1 L945.3 356.7 L948.0 355.7 L955.4 351.9 L957.4 350.4 L952.4 350.5 L946.9 352.1 L951.0 350.8 L959.9 346.7 L958.7 346.0 L951.1 346.8 L949.4 346.5 L954.8 343.0 L954.6 341.0 L945.8 340.7 L941.1 340.3 L945.4 337.0 L951.0 333.8 L950.2 333.0 L943.5 335.0 L941.7 335.8 L946.4 333.7 L947.1 332.5 L940.2 333.1 L935.3 333.7 L938.5 331.8 L942.8 329.3 L941.1 329.0 L932.8 330.0 L931.4 329.4 L937.1 326.4 L934.0 326.3 L921.5 328.8 L917.9 329.1 L927.4 325.0 L934.9 321.3 L924.2 323.3 L916.4 324.8 L918.9 323.9 L921.0 322.7 L911.0 324.2 L902.8 325.8 L906.7 323.4 L919.9 318.7 L914.4 319.9 L903.5 323.1 L902.6 323.5" fill="none" stroke="rgb(246,211,45)" stroke-opacity="0.270" stroke-width="11" stroke-linecap="round" stroke-linejoin="round"/>
  <path d="M928.8 410.5 L923.3 413.5 L919.1 415.6 L925.6 411.9 L938.0 405.8 L942.0 403.9 L932.1 406.7 L927.7 407.7 L939.9 402.4 L958.0 396.0 L956.7 396.8 L936.9 403.4 L929.7 405.2 L945.0 399.7 L961.6 394.2 L961.2 393.1 L965.0 390.1 L967.8 388.2 L951.7 390.8 L938.3 392.7 L938.4 391.5 L947.6 385.6 L948.2 383.5 L937.9 384.7 L930.5 385.4 L935.2 382.6 L941.9 380.2 L940.2 380.3 L931.1 382.5 L936.6 379.3 L937.8 378.8 L936.4 379.2 L926.8 382.5 L923.5 384.0 L932.0 382.2 L943.1 381.0 L939.0 387.5 L926.1 397.5 L921.5 405.5 L925.2 410.0 L928.0 413.0 L920.4 419.2 L909.9 425.9 L915.8 426.1 L932.0 424.2 L928.4 428.1 L913.0 436.0 L903.4 441.3 L904.9 443.1 L909.1 444.4 L899.3 450.0 L887.2 456.1 L888.4 458.0 L896.2 457.9 L897.6 460.0 L890.8 464.6 L887.1 467.0 L891.4 467.7 L895.6 467.3 L891.7 467.7 L886.0 467.6 L895.2 461.1 L917.4 450.2 L925.0 446.7 L906.0 450.2 L891.9 451.3 L893.3 448.3" fill="none" stroke="rgb(246,211,45)" stroke-opacity="0.270" stroke-width="11" stroke-linecap="round" stroke-linejoin="round"/>
  <path d="M923.1 429.7 L924.1 428.5 L922.3 428.3 L906.4 431.6 L886.3 435.6 L895.0 433.9 L911.6 434.8 L910.5 442.5 L898.6 457.5 L897.2 467.4 L904.7 470.6 L908.5 474.1 L907.1 477.5 L906.5 480.2 L907.9 482.7 L907.2 487.0 L903.6 492.7 L901.6 497.3 L905.9 500.3 L904.0 503.6 L890.6 508.0 L885.8 509.0 L889.9 507.7" fill="none" stroke="rgb(246,211,45)" stroke-opacity="0.270" stroke-width="11" stroke-linecap="round" stroke-linejoin="round"/>
  <path d="M901.9 507.4 L875.0 525.1 L879.2 525.9 L886.7 525.6 L894.5 525.4 L895.5 525.9 L895.6 527.0 L889.2 531.8 L875.8 538.1 L866.0 543.4 L870.6 544.8 L884.7 543.1 L873.6 546.2 L845.8 552.5 L828.2 551.1 L832.0 542.3 L839.6 534.9 L829.5 534.3 L812.5 535.4 L813.0 532.2 L830.1 524.9 L827.1 524.5 L808.8 527.8 L802.4 525.1 L813.8 517.7 L811.3 515.4 L789.2 520.2 L773.6 523.2 L774.1 522.4 L776.6 521.9 L768.0 525.6 L761.3 527.9 L766.0 527.2 L768.0 527.0 L753.6 531.9 L733.7 536.6 L732.1 535.7 L737.3 532.5 L735.9 533.3 L731.8 536.9 L732.2 540.3 L742.8 541.2 L757.9 542.0 L752.4 549.1 L722.7 558.0 L700.4 560.6 L699.6 554.8 L713.8 542.9 L716.8 541.1 L699.4 548.1 L685.9 553.7 L689.4 553.7 L705.4 549.9 L706.8 552.1 L691.8 558.0 L685.9 559.8 L699.0 558.2 L714.6 559.1 L722.1 565.3 L723.8 575.6 L733.1 581.0 L748.4 582.2 L749.5 585.4 L736.6 590.7 L735.9 591.8 L756.8 588.0 L765.6 588.7 L765.0 593.7 L769.5 596.9 L781.6 596.5 L779.7 598.1 L790.1 596.4 L791.9 595.9 L795.6 595.2 L793.2 596.8 L793.1 598.5 L808.3 596.2 L818.8 594.7 L803.1 600.7 L791.9 604.6" fill="none" stroke="rgb(246,211,45)" stroke-opacity="0.270" stroke-width="11" stroke-linecap="round" stroke-linejoin="round"/>
  <path d="M805.5 553.1 L811.8 549.0 L824.1 549.8 L837.5 548.7 L858.2 549.2 L860.8 554.1 L840.2 565.7 L829.4 571.1 L838.0 570.4 L853.1 568.7 L848.4 572.9 L841.0 578.4 L844.5 581.3 L854.7 582.6 L852.8 587.2 L842.2 594.5 L843.7 596.0 L863.4 589.7 L874.4 587.2 L862.4 592.5 L852.1 596.5 L858.1 594.4 L875.6 587.8 L878.9 586.6" fill="none" stroke="rgb(246,211,45)" stroke-opacity="0.270" stroke-width="11" stroke-linecap="round" stroke-linejoin="round"/>
  <path d="M885.8 543.5 L889.2 539.2" fill="none" stroke="rgb(246,211,45)" stroke-opacity="0.270" stroke-width="11" stroke-linecap="round" stroke-linejoin="round"/>
  <path d="M910.0 493.1 L914.3 489.1 L916.2 487.9 L923.2 483.9 L927.1 480.9 L923.4 479.7 L927.3 476.0 L939.5 470.8 L939.5 469.4 L921.4 471.9 L915.6 472.8" fill="none" stroke="rgb(246,211,45)" stroke-opacity="0.270" stroke-width="11" stroke-linecap="round" stroke-linejoin="round"/>
  <path d="M631.6 499.6 L629.5 501.4 L624.1 504.7 L623.6 505.2 L625.0 504.0 L632.4 499.5 L635.4 498.5 L623.3 503.4 L611.3 507.5 L620.0 501.5 L637.3 494.0 L640.6 492.7 L628.2 496.9 L626.7 496.1 L636.8 489.1 L640.3 485.0 L634.9 484.0 L637.2 481.3 L646.9 477.3 L651.8 475.7 L653.8 474.0 L654.9 473.5 L657.1 472.1 L644.0 475.6 L639.5 475.9 L652.1 468.4 L668.9 457.7 L666.2 457.1 L649.6 461.1 L647.8 459.0 L656.9 451.5 L658.8 448.4 L654.2 448.4 L658.6 444.8 L669.7 439.1 L668.8 437.7 L662.1 438.1 L666.8 433.4 L674.9 426.7 L674.7 423.8 L670.2 422.8 L672.2 417.9 L681.5 409.8 L688.6 403.9 L685.8 401.0 L683.1 399.1 L681.6 396.7 L676.8 395.5 L677.9 392.6 L685.7 386.8 L688.5 383.1 L678.4 382.4 L674.6 381.0 L681.4 375.5 L685.8 371.5 L674.7 372.2 L669.0 372.5 L673.7 367.1 L684.7 359.6 L685.7 357.2 L683.0 356.5 L682.4 355.3 L690.2 349.4 L694.9 346.1 L692.8 344.4 L682.2 345.7 L677.9 345.5 L681.0 341.6 L685.1 337.3 L683.4 335.8 L679.4 334.8 L681.6 331.6 L682.9 328.7 L679.6 326.3 L677.2 324.9 L677.5 322.8 L680.4 320.2" fill="none" stroke="rgb(246,211,45)" stroke-opacity="0.270" stroke-width="11" stroke-linecap="round" stroke-linejoin="round"/>
  <path d="M287.5 365.8 L284.7 364.8 L288.2 361.4" fill="none" stroke="rgb(246,211,45)" stroke-opacity="0.270" stroke-width="11" stroke-linecap="round" stroke-linejoin="round"/>
  <path d="M305.4 359.5 L299.5 364.6 L298.2 365.8 L291.5 373.2 L295.1 377.0 L308.3 376.0 L312.4 379.5 L295.7 393.7 L290.6 400.1 L303.7 397.6 L316.4 396.0 L310.5 402.5 L304.0 408.4 L312.3 408.8 L322.4 408.4 L320.3 416.8 L322.1 422.1 L345.6 417.8 L362.6 413.9 L359.6 419.6 L347.4 428.7 L353.3 427.6 L372.1 418.0 L377.3 415.9 L364.0 424.4 L361.7 426.4 L374.3 421.9 L380.5 421.4 L371.8 428.0 L353.3 441.6 L355.2 440.6 L364.9 433.9 L369.2 429.2 L366.0 430.2 L363.9 431.3 L359.7 433.6 L350.0 438.4 L345.2 440.4 L344.4 440.6 L339.1 445.1 L336.0 447.3 L330.3 450.7 L337.8 446.9 L338.6 446.4 L339.8 445.7 L340.7 445.6 L342.1 445.9 L345.8 443.6 L350.4 441.4 L352.3 440.8" fill="none" stroke="rgb(246,211,45)" stroke-opacity="0.270" stroke-width="11" stroke-linecap="round" stroke-linejoin="round"/>
  <path d="M386.7 450.8 L384.9 453.8 L380.3 459.2 L397.2 452.5 L408.2 449.0 L396.8 454.9 L365.2 470.6 L361.5 472.8 L382.9 462.1 L399.7 454.5 L394.6 460.8 L387.4 466.9 L401.0 464.3 L419.7 457.6 L415.3 463.3 L399.8 474.8 L400.9 479.4 L417.8 474.4 L428.6 471.8 L426.6 475.7 L430.5 478.6 L446.8 475.9 L453.7 476.8 L446.1 485.1 L441.3 490.2" fill="none" stroke="rgb(246,211,45)" stroke-opacity="0.270" stroke-width="11" stroke-linecap="round" stroke-linejoin="round"/>
  <path d="M511.9 478.1 L513.5 480.5 L502.1 491.9 L499.5 496.6 L508.2 495.7 L517.9 493.5 L513.6 497.2 L504.5 502.7 L511.2 502.1 L519.8 500.7 L517.6 506.5 L516.0 511.4 L526.3 510.2 L535.7 508.5 L525.6 514.7 L514.0 521.3" fill="none" stroke="rgb(246,211,45)" stroke-opacity="0.270" stroke-width="11" stroke-linecap="round" stroke-linejoin="round"/>
  <path d="M230.8 399.0 L230.1 398.3 L226.9 398.8 L223.3 400.1 L218.8 401.8 L213.1 404.0 L211.9 404.5 L215.0 403.5 L222.9 400.3 L225.7 400.1 L218.8 406.2 L213.7 411.1 L219.5 411.0 L224.6 410.2 L221.1 416.9 L216.7 423.8 L224.8 425.0 L241.3 422.6 L239.2 428.9 L223.3 445.5 L219.5 453.5 L237.1 452.1 L253.3 449.0 L253.7 455.4 L247.0 465.8 L250.1 468.5 L266.0 463.0 L270.3 462.5 L260.3 471.5 L257.1 475.7 L267.5 472.8 L274.8 471.4" fill="none" stroke="rgb(246,211,45)" stroke-opacity="0.270" stroke-width="11" stroke-linecap="round" stroke-linejoin="round"/>
  <path d="M130.7 432.3 L127.6 434.4 L121.8 437.9 L117.9 439.7 L122.1 437.6 L134.9 430.5 L138.8 429.8 L130.9 437.6 L124.1 443.6 L128.7 442.1 L136.6 438.8 L134.2 441.8 L126.2 450.8 L128.7 452.6 L142.3 447.9 L154.2 446.4 L156.6 455.2 L151.3 472.1 L159.8 478.1 L182.0 476.3 L195.5 480.8 L189.8 494.3 L182.9 508.6 L194.3 512.6 L215.1 509.1 L216.4 515.1 L210.6 526.8 L219.6 532.3 L241.5 529.7 L249.4 533.0 L242.1 547.4 L246.3 555.0 L266.7 552.0 L293.1 549.5 L298.2 556.7 L300.1 567.6 L313.6 569.9 L334.6 566.8 L334.2 573.6 L307.8 592.4 L309.0 597.4 L333.8 588.8 L372.0 580.1 L382.8 585.1 L373.7 597.3 L377.3 602.7 L408.4 592.8 L423.6 590.4 L408.6 605.1 L402.5 612.7 L430.0 602.3 L460.8 589.6 L461.9 591.0 L447.5 600.9 L460.0 595.3 L494.3 580.5 L500.7 579.4 L483.4 589.4 L483.3 591.1 L511.7 579.8 L532.3 573.9 L529.3 578.0 L521.7 583.8 L526.3 584.1 L532.5 582.1 L527.4 584.3 L520.1 588.7 L532.6 585.7 L551.9 579.9 L543.5 585.8 L535.4 592.9 L551.0 587.8 L571.7 578.7 L562.1 583.2 L551.5 588.2 L562.1 584.0" fill="none" stroke="rgb(246,211,45)" stroke-opacity="0.270" stroke-width="11" stroke-linecap="round" stroke-linejoin="round"/>
  <path d="M422.2 368.7 L425.0 371.6 L427.0 372.5 L428.5 372.9 L443.3 375.1 L452.6 374.6 L458.3 374.2 L482.4 372.4 L510.2 370.6 L550.4 367.4 L594.8 363.7 L637.9 360.3 L676.5 357.3 L703.9 354.9 L728.9 352.4 L749.8 350.1 L764.0 348.9 L777.4 348.7 L782.1 349.2 L782.6 349.9 L778.8 344.7" fill="none" stroke="rgb(246,211,45)" stroke-opacity="0.270" stroke-width="11" stroke-linecap="round" stroke-linejoin="round"/>
  <text x="631.2" y="556.2" font-size="53" fill="rgb(26,26,46)" opacity="1.000" font-family="system-ui,sans-serif">Bienvenidos a Arte</text>
</svg>