<svg width="1366" height="717" viewBox="0 0 1366 717" xmlns="http://www.w3.org/2000/svg" style="background:#f8f6f1">
  <path d="M683.0,371.0 L823.8,345.7 L817.0,457.0 L683.2,492.5 Z" fill="none" stroke="rgba(26,26,46,1.00)" stroke-width="8" stroke-linecap="round" stroke-linejoin="round"/>
  <path d="M676.9,363.5 L624.1,372.7 L622.6,317.9 L676.7,310.5 Z" fill="none" stroke="rgba(26,26,46,1.00)" stroke-width="8" stroke-linecap="round" stroke-linejoin="round"/>
  <path d="M734.0,404.0 L729.0,402.0 L721.0,402.0 L720.0,402.0 L718.0,402.0 L717.0,402.0 L716.0,402.0 L717.0,402.0 L721.0,402.0 L722.0,402.0 L723.0,402.0 L724.0,402.0 L725.0,402.0 L727.0,402.0 L728.0,402.0 L729.0,402.0 L730.0,402.0 L731.0,402.0 L733.0,402.0 L734.0,402.0 L735.0,402.0 L736.0,402.0 L738.0,401.0 L740.0,400.0 L742.0,398.0 L744.0,397.0 L746.0,395.0 L747.0,395.0 L748.0,394.0 L749.0,393.0 L750.0,392.0 L751.0,391.0 L752.0,391.0 L753.0,391.0 L754.0,390.0 L755.0,390.0 L757.0,390.0 L759.0,390.0 L761.0,390.0 L762.0,390.0 L765.0,390.0 L767.0,390.0 L770.0,390.0 L773.0,389.0 L776.0,389.0 L779.0,388.0 L782.0,388.0 L785.0,388.0 L786.0,388.0 L787.0,388.0" fill="none" stroke="rgba(233,69,96,1.00)" stroke-width="8" stroke-linecap="round" stroke-linejoin="round"/>
  <path d="M575.4,362.8 L575.0,358.8 L574.1,354.8 L572.7,351.1 L570.8,347.6 L568.5,344.4 L565.8,341.6 L562.8,339.2 L559.4,337.3 L555.9,336.0 L552.1,335.1 L548.2,334.8 L544.2,335.1 L540.3,335.9 L536.4,337.3 L532.8,339.3 L529.3,341.7 L526.1,344.6 L523.3,347.9 L520.8,351.5 L518.8,355.4 L517.3,359.6 L516.3,363.9 L515.9,368.2 L515.9,372.5 L516.5,376.7 L517.6,380.7 L519.2,384.5 L521.3,387.9 L523.7,391.0 L526.6,393.7 L529.7,395.9 L533.1,397.6 L536.8,398.8 L540.5,399.5 L544.4,399.6 L548.2,399.1 L552.0,398.2 L555.7,396.7 L559.2,394.8 L562.5,392.4 L565.5,389.5 L568.2,386.4 L570.5,382.9 L572.4,379.1 L573.9,375.2 L574.9,371.1 L575.4,367.0 L575.4,362.8" fill="none" stroke="rgba(233,69,96,1.00)" stroke-width="8" stroke-linecap="round" stroke-linejoin="round"/>
</svg>