<?xml version="1.0" encoding="UTF-8"?>
<svg width="1366" height="717" viewBox="0 0 1366 717" xmlns="http://www.w3.org/2000/svg">
  <rect width="1366" height="717" fill="#f8f6f1"/>
  <!-- capa: Capa 1 -->
  <path d="M597.6 349.3 L598.3 348.6 L598.9 348.3 L600.0 347.7 L601.0 346.9 L602.4 345.7 L605.5 343.1 L611.4 338.2 L616.9 333.7 L622.8 328.6 L631.6 320.6 L637.8 314.8 L643.8 308.9 L651.1 301.2 L656.3 295.4 L661.3 289.4 L668.3 281.7 L673.4 275.6 L678.0 269.4 L683.9 261.9 L687.9 256.5 L691.8 251.4 L696.8 244.5 L700.6 239.6 L704.8 234.6 L709.9 227.4 L713.0 222.9 L716.0 218.7 L719.8 213.4 L722.3 209.9 L724.7 206.5 L727.6 202.1 L729.8 198.7 L732.0 195.5 L734.7 191.5 L736.2 188.7 L737.3 186.1 L738.7 183.0 L739.5 181.1 L740.2 179.6 L740.6 178.3 L740.9 177.5 L741.2 176.9 L740.9 177.9 L740.7 179.5 L740.1 182.0 L739.5 184.5 L739.3 185.5 L738.5 188.7 L737.6 191.7 L736.6 194.8 L735.4 199.5 L734.6 203.4 L733.7 209.0 L732.9 213.5 L732.1 219.8 L731.8 224.6 L731.7 229.5 L731.8 235.5 L731.9 240.2 L732.4 246.4 L733.2 250.8 L734.2 255.4 L735.6 261.9 L737.0 267.1 L738.4 272.1 L740.3 279.1 L741.8 284.1 L743.5 289.1 L746.0 295.2 L747.6 299.8 L749.8 304.7 L751.3 308.3 L753.4 312.5 L755.1 315.1 L756.9 317.3 L759.4 319.8 L761.4 321.2 L764.0 322.4 L765.8 323.1 L768.0 323.4 L769.1 323.4 L769.9 323.3 L770.4 323.1 L770.0 322.8" fill="none" stroke="rgb(255,120,0)" stroke-opacity="1.000" stroke-width="8" stroke-linecap="round" stroke-linejoin="round"/>
  <path d="M756.8 309.7 L757.4 310.1 L760.2 309.5 L762.9 308.0 L764.1 307.2 L768.5 303.8 L776.4 296.8 L783.3 289.9 L790.4 282.0 L799.7 270.7 L806.5 261.4 L813.2 251.4 L818.9 241.2 L825.9 228.2 L830.5 219.0 L836.1 207.0 L839.4 198.7 L843.6 188.8 L846.0 182.5 L848.1 176.3 L849.3 172.4 L850.3 169.0 L850.9 167.6 L851.1 166.8 L851.5 166.0 L851.5 167.3 L851.4 167.9 L851.0 170.7 L849.8 175.6 L847.9 181.9 L845.0 192.2 L842.4 200.9 L839.6 210.8 L836.8 223.9 L835.5 233.3 L834.6 245.5 L834.3 254.0 L834.9 263.4 L835.8 269.5 L837.7 276.5 L839.7 281.0 L842.1 284.2 L845.2 287.7 L847.9 289.3 L852.0 290.1 L855.0 290.1 L858.0 289.9 L862.0 289.3 L865.0 288.8 L868.6 288.1 L870.3 287.8 L870.8 287.7 L870.5 288.1" fill="none" stroke="rgb(255,120,0)" stroke-opacity="1.000" stroke-width="8" stroke-linecap="round" stroke-linejoin="round"/>
  <path d="M546.1 222.7 L546.8 223.4" fill="none" stroke="rgb(53,132,228)" stroke-opacity="1.000" stroke-width="8" stroke-linecap="round" stroke-linejoin="round"/>
  <path d="M547.2 214.5 L547.3 215.5 L544.7 222.9 L543.6 228.4 L543.3 230.3 L543.3 235.8 L544.4 240.0 L546.9 243.1 L552.1 245.2 L557.3 244.9 L566.4 240.8 L574.8 235.2 L583.0 229.1 L590.6 222.1 L592.5 219.4 L590.8 218.8 L587.1 221.5 L584.4 225.3 L581.4 231.8 L580.6 236.5 L581.3 240.0 L584.7 242.6 L589.3 242.5 L595.4 240.6 L604.2 235.8 L610.6 231.3 L616.8 226.1 L618.7 224.1 L615.5 225.8 L614.1 227.9 L613.0 230.5 L612.1 235.0 L612.4 240.2 L614.7 243.1 L620.6 244.5 L626.7 243.1 L632.9 239.3 L640.8 232.8 L645.1 227.9 L648.1 222.8 L648.6 221.0 L647.6 221.3 L645.5 224.7 L643.2 229.6 L641.4 237.1 L642.3 241.4 L646.8 243.1 L651.9 241.7 L659.7 236.2 L665.9 230.6 L670.7 225.2 L674.6 219.0 L675.7 216.8 L673.9 219.2 L670.4 225.3 L668.4 230.2 L668.2 233.8 L671.3 234.9 L675.8 232.5 L681.5 228.1 L688.9 220.9 L693.3 215.9 L695.9 212.0 L695.1 211.9 L691.1 215.8 L687.5 220.2 L685.2 225.4 L686.2 227.2 L690.3 227.6 L693.9 226.8 L697.1 225.1 L697.7 224.5 L696.8 224.4 L696.9 225.0 L697.9 225.3 L699.2 225.5 L700.5 225.6 L702.3 225.6 L706.4 225.2 L713.2 224.1 L721.5 222.1 L730.0 219.6 L737.9 216.7 L744.5 213.4 L747.5 211.3 L746.9 211.1 L744.7 211.7 L741.0 213.5 L739.0 214.8 L738.2 216.0 L739.4 216.6 L742.0 216.6 L746.9 215.9 L750.4 214.8 L754.2 212.5 L755.3 210.9 L754.7 209.7 L753.2 209.6 L752.5 209.8 L753.9 210.5 L756.3 210.3 L757.3 210.0 L760.5 208.3 L765.2 205.0 L768.4 201.8 L771.8 197.5 L773.2 194.7 L773.6 191.7 L773.0 190.7 L772.1 189.8 L771.7 189.5 L771.8 190.4 L771.7 191.6 L771.3 192.1 L770.4 191.9 L769.7 192.0 L765.8 193.5 L760.3 195.6 L754.3 197.6 L748.5 198.8 L746.0 198.7 L743.7 197.3 L742.0 196.3 L739.1 195.4 L736.6 195.3 L732.3 195.7 L728.3 196.7 L724.5 198.6 L721.7 201.2 L721.9 202.7 L724.2 203.7 L726.5 203.6 L728.7 202.3 L729.5 200.5 L729.6 198.5 L729.4 196.3 L728.7 195.4 L727.6 195.0 L726.9 194.9 L726.3 194.9" fill="none" stroke="rgb(53,132,228)" stroke-opacity="1.000" stroke-width="8" stroke-linecap="round" stroke-linejoin="round"/>
  <path d="M727.2 195.1 L727.2 194.4 L726.4 193.8 L724.4 193.2 L722.6 193.0 L720.5 193.0 L717.3 193.0 L714.1 193.3 L714.9 193.9 L716.3 193.9 L717.0 193.8 L719.3 193.4 L719.7 192.6 L718.0 190.7 L715.4 189.2 L710.3 188.3 L705.1 189.1 L697.6 192.4 L694.0 195.3 L692.7 197.7 L694.7 199.1 L697.9 198.6 L701.3 196.5 L703.5 193.4" fill="none" stroke="rgb(53,132,228)" stroke-opacity="1.000" stroke-width="8" stroke-linecap="round" stroke-linejoin="round"/>
  <path d="M647.0 194.0 L651.5 194.9 L656.0 194.0 L657.1 191.8 L654.1 188.3 L647.8 186.4 L639.2 185.7 L626.0 187.1 L616.6 189.8 L608.6 193.6 L607.4 195.4 L610.2 196.6 L614.5 196.0 L619.4 193.8 L619.9 191.7 L615.2 189.1 L608.3 188.3 L600.4 188.9 L591.5 191.4 L588.3 193.8 L589.0 196.8 L592.8 198.5 L599.1 199.0 L602.1 198.0 L601.0 195.4 L596.3 193.4 L587.2 192.0 L580.1 192.5 L574.9 194.5 L572.9 197.5 L574.6 199.4 L579.1 200.6 L582.0 200.7 L582.8 199.9 L580.5 198.3 L576.3 197.2 L569.6 197.4 L566.1 198.8 L565.4 201.6 L567.1 204.1 L570.3 206.1 L571.8 206.2 L571.5 205.5 L569.0 204.2 L564.4 203.6 L561.2 204.6 L559.5 207.3 L560.3 209.9 L562.4 211.3 L563.7 211.2 L563.8 209.9 L563.1 207.9" fill="none" stroke="rgb(53,132,228)" stroke-opacity="1.000" stroke-width="8" stroke-linecap="round" stroke-linejoin="round"/>
  <path d="M559.4 210.0 L557.1 212.8 L556.1 214.8 L554.8 216.9 L553.9 218.5 L554.6 216.6 L554.8 215.9 L554.8 214.0 L554.7 212.7 L554.0 212.2 L552.8 213.8 L551.0 217.3 L550.6 219.0 L551.2 218.3 L551.9 216.9 L552.2 216.0 L552.6 212.3 L552.6 211.0 L552.1 212.0 L550.8 215.3 L550.3 220.0 L550.5 221.8 L551.8 221.4 L553.3 218.7 L555.6 213.6 L557.1 209.9 L557.5 209.2 L555.9 214.6 L554.9 220.6 L556.6 224.9 L559.9 224.4 L564.8 219.1 L568.2 213.8 L570.7 209.0 L570.9 206.7 L566.5 211.4 L562.2 220.5 L561.4 225.5 L563.8 225.8 L568.1 222.2 L576.0 214.7 L582.0 208.5 L583.2 207.3 L580.6 210.0 L573.9 218.4 L568.0 226.7 L568.2 228.4 L574.1 225.3 L581.3 219.4 L590.8 211.2 L595.3 207.4 L594.4 207.9 L588.9 212.1 L581.9 219.1 L581.0 221.2 L586.3 218.7 L593.9 213.6 L606.3 205.2 L610.8 202.5 L609.3 204.1 L603.1 209.2 L600.5 211.2 L602.8 209.7 L608.0 205.7 L615.5 199.5 L619.7 196.6 L619.3 197.3 L612.1 203.6 L607.0 208.1 L605.7 209.8 L609.3 207.8 L616.3 202.7 L625.7 196.0 L629.3 194.0 L626.7 197.9 L620.1 204.6 L611.0 212.7 L609.7 215.3 L612.8 214.1 L622.6 208.1 L631.8 201.6 L635.6 199.2 L634.1 201.5 L625.9 208.6 L618.4 214.8 L617.6 215.9 L623.2 212.8 L630.1 208.0 L636.3 203.8 L639.5 202.1 L635.4 206.1 L629.3 211.5 L623.3 217.6 L623.6 218.8 L627.7 216.8 L636.4 211.2 L643.2 207.1 L644.5 206.8 L642.2 209.5 L634.9 216.5 L629.5 222.1 L630.0 223.0 L634.7 220.7 L645.2 214.2 L655.5 207.9 L660.5 205.3 L655.3 210.4 L650.2 214.5 L645.2 218.4 L640.2 222.7 L642.2 222.0 L652.8 215.4 L666.9 206.5 L676.3 201.3 L674.9 203.4 L666.8 209.5 L653.9 218.7 L648.9 222.6 L651.3 221.4 L659.0 216.3 L672.1 207.8 L679.6 202.9 L682.6 201.4 L678.6 204.7 L674.0 208.4 L672.3 210.4 L677.5 208.4 L684.3 204.4 L690.2 201.1 L693.0 199.9 L689.2 203.1 L684.3 206.9 L681.0 209.7 L682.5 209.4 L690.1 204.6 L697.4 199.9 L705.7 195.3 L707.2 194.9 L702.5 198.9 L696.2 203.7 L691.0 208.3 L697.4 205.5 L704.2 201.5 L706.5 200.2 L711.8 197.2 L713.8 196.5 L711.3 198.8 L703.8 205.0 L699.7 208.5 L700.0 209.5 L703.9 207.5 L710.7 202.9 L714.5 200.0 L710.9 203.0 L705.9 206.6 L704.4 207.6 L701.7 209.4 L702.4 209.2 L704.6 208.0 L707.3 206.4 L708.8 205.5 L707.7 206.5 L705.9 208.1 L704.8 209.8 L705.3 210.5 L708.2 209.7 L714.6 206.4 L721.2 203.0 L723.1 202.5 L720.5 205.0 L715.9 208.6 L711.9 211.9 L710.9 213.3 L715.8 211.2 L722.1 207.8 L729.3 204.0 L731.4 203.4 L728.9 205.7 L723.4 210.2 L720.5 213.1 L720.2 214.0 L724.4 212.7 L729.7 209.9 L735.5 206.7 L736.5 206.4 L734.3 208.2 L728.9 212.0 L726.8 213.7 L727.7 213.7 L733.5 210.9 L740.9 206.6 L745.3 204.3 L746.1 204.0 L743.1 206.2 L736.6 210.7 L734.2 212.8 L735.4 212.1 L741.5 208.4 L746.9 204.8 L751.9 200.9 L752.9 200.0 L750.6 201.2 L747.4 203.2 L745.6 204.4 L747.7 203.1 L751.7 200.5 L756.5 197.5 L757.7 196.7 L756.4 197.3 L752.9 199.5 L751.0 200.7 L754.5 198.4 L757.3 196.4 L758.1 195.8 L759.4 194.6 L757.9 195.3 L753.9 197.5 L747.2 201.2 L745.1 202.2 L746.4 201.5 L752.3 198.0 L756.3 195.8 L757.5 195.1 L754.2 197.2 L750.5 199.4 L748.2 200.9 L748.7 201.1 L751.6 200.5 L754.1 199.6 L755.9 199.1 L754.2 200.4 L753.3 201.1 L754.1 201.2 L757.7 199.6 L760.0 198.3 L761.2 197.7 L764.6 196.2 L762.9 198.1 L760.5 199.9 L759.7 200.6 L762.4 199.3 L765.8 197.1 L766.9 196.3 L770.2 194.1 L769.2 194.8 L767.4 196.3 L765.0 198.0 L760.1 201.3 L753.3 204.8 L751.1 205.6 L751.7 204.1" fill="none" stroke="rgb(53,132,228)" stroke-opacity="1.000" stroke-width="8" stroke-linecap="round" stroke-linejoin="round"/>
  <path d="M722.4 213.7 L719.3 215.5 L715.4 217.5 L712.4 218.6" fill="none" stroke="rgb(53,132,228)" stroke-opacity="1.000" stroke-width="8" stroke-linecap="round" stroke-linejoin="round"/>
  <path d="M709.1 217.5 L706.0 219.1 L709.0 217.1 L714.7 213.3 L722.6 208.0 L726.3 205.6 L721.6 208.3 L720.4 209.1 L719.0 210.2 L721.7 209.6 L728.4 206.3 L733.7 203.9 L734.7 203.6 L732.7 204.9 L731.8 205.4 L732.8 205.2 L735.5 203.8 L738.1 202.2 L740.0 201.2 L741.8 200.1 L742.4 199.7 L742.7 199.1 L744.3 197.5 L745.1 196.7 L744.9 195.3 L744.2 194.8 L742.1 194.9 L740.8 195.3 L735.0 197.9 L722.9 203.4 L712.7 208.3 L701.7 215.0 L697.9 218.8 L699.1 219.7 L704.1 218.5 L711.5 214.2 L718.1 209.5 L726.8 202.4 L730.3 198.4 L728.2 198.0 L717.9 203.9 L707.6 210.7 L697.0 219.2 L695.2 221.8 L698.6 220.4 L707.7 213.3 L711.3 209.3 L712.2 207.0 L709.7 207.4 L708.2 208.0" fill="none" stroke="rgb(53,132,228)" stroke-opacity="1.000" stroke-width="8" stroke-linecap="round" stroke-linejoin="round"/>
  <path d="M707.9 201.0 L709.6 197.7 L707.8 197.0 L702.7 198.9 L692.8 205.1 L685.1 211.1 L677.2 217.6 L675.2 219.6 L677.3 218.4 L683.5 213.2 L688.4 208.4 L693.0 203.6 L693.1 202.6 L689.8 205.1 L682.1 212.2 L676.8 217.7 L674.7 221.6 L675.9 221.5" fill="none" stroke="rgb(53,132,228)" stroke-opacity="1.000" stroke-width="8" stroke-linecap="round" stroke-linejoin="round"/>
  <path d="M688.8 208.9 L693.4 202.5 L694.3 200.6 L694.2 199.8 L691.3 199.7 L686.5 202.5 L677.3 209.9 L670.9 215.4 L676.1 210.7 L682.1 205.0 L685.1 201.7 L687.0 199.6 L686.1 198.9 L679.6 202.6 L670.4 208.1 L667.2 209.6 L668.2 208.4 L674.3 203.5 L678.0 200.5 L678.6 199.5 L674.3 201.9 L668.6 205.5 L661.4 209.1 L660.4 209.2 L664.5 205.5 L668.8 201.6 L672.0 197.6 L672.0 196.4 L669.5 196.8 L662.4 200.5 L653.7 206.4 L650.9 210.9 L653.6 211.3 L662.4 206.7 L669.5 201.3 L675.7 194.3 L675.9 190.6 L671.4 191.3 L660.5 197.2 L649.4 205.1 L644.8 209.6 L644.5 211.2 L648.3 209.7 L657.0 203.9 L665.1 196.8 L668.3 190.8 L665.8 188.8 L659.5 190.5 L648.8 196.9 L640.4 205.1 L638.2 209.5 L641.8 211.1 L651.1 206.8 L657.7 201.9 L663.6 194.6 L663.6 189.6 L657.0 189.1 L648.9 191.8 L636.8 200.7 L629.1 208.3 L625.3 215.2 L628.0 215.5 L633.9 211.2 L641.7 203.0 L645.3 195.0 L644.2 191.3 L637.0 191.7 L628.1 196.3 L616.2 205.8 L611.0 211.2 L611.5 213.4 L619.1 209.4 L627.3 202.0 L631.1 195.2 L629.9 193.1 L622.6 194.6 L610.3 201.3 L601.2 207.5 L592.0 214.1 L590.6 215.5 L595.8 211.3 L601.7 205.1 L602.5 201.6 L597.9 202.1 L591.5 205.8 L581.0 213.9 L573.3 221.4 L573.1 222.9 L580.6 218.5 L590.8 209.7 L596.8 202.6 L599.3 197.0 L595.4 197.1 L588.2 201.4 L577.2 210.7 L572.0 217.2 L573.0 218.8 L578.8 215.8 L585.2 209.6 L588.4 204.3 L589.1 199.6 L585.0 199.9 L579.1 204.2 L571.4 212.3 L567.8 218.4 L569.2 220.3 L572.6 218.9 L573.9 217.8" fill="none" stroke="rgb(53,132,228)" stroke-opacity="1.000" stroke-width="8" stroke-linecap="round" stroke-linejoin="round"/>
  <path d="M578.2 212.0 L572.0 210.1 L567.8 213.1 L563.6 216.7 L558.9 222.7 L556.2 228.4 L557.8 229.6 L561.8 227.7 L564.8 225.2 L567.2 223.3 L565.1 225.0 L560.9 228.6 L558.9 230.5 L557.1 232.1 L557.7 231.3 L558.7 230.0 L559.7 228.1 L561.2 223.7 L561.1 221.1 L558.8 221.1 L554.5 224.3 L551.7 227.9 L549.8 232.7 L549.3 236.4 L549.1 237.6 L550.9 235.0 L552.0 232.3 L552.1 231.3 L551.4 230.8 L547.6 233.7 L544.9 236.9 L544.3 239.1 L547.0 239.7 L552.2 238.7 L556.9 236.4 L563.3 232.5 L565.3 231.5 L566.6 230.7 L565.7 231.3 L566.3 230.5 L567.4 228.5 L567.7 227.5 L567.9 226.8 L566.7 228.9 L566.2 230.0 L564.9 233.2 L566.0 234.5 L571.9 231.0 L579.2 225.2 L584.6 220.3 L591.8 213.8 L596.8 208.9 L600.5 205.9 L601.5 205.3 L600.4 207.7 L595.9 214.1 L593.5 219.3 L593.5 223.7 L596.9 223.1 L602.5 219.1 L606.9 215.0 L611.4 209.9 L605.4 213.4 L601.0 218.0 L600.0 219.3 L599.2 221.2 L602.6 219.9 L608.0 215.9 L609.9 214.2 L607.8 216.3 L602.4 221.6 L599.8 225.8 L600.9 227.2 L603.5 226.8 L608.2 224.4 L612.1 221.6 L612.9 221.2 L610.0 224.2 L605.2 228.6 L603.6 230.8 L604.3 231.2 L608.7 229.4 L616.3 225.2 L625.0 221.0 L628.4 219.6 L627.3 222.4 L621.6 228.2 L618.5 231.6 L620.5 233.0 L625.2 231.7 L632.1 228.6 L637.3 226.8 L637.7 227.8 L634.8 231.5 L629.0 236.9 L626.8 239.0 L629.7 237.0 L635.0 233.2 L642.2 228.0 L645.1 226.2 L642.8 228.3 L636.2 233.4 L633.1 236.0 L634.2 236.1 L640.3 232.8 L647.1 228.8 L650.8 226.7 L651.7 226.5 L650.6 227.4 L653.9 226.1 L656.1 224.8 L658.0 223.7 L659.5 222.9 L657.6 225.1 L654.6 227.7 L653.1 229.3 L655.4 228.8 L659.0 227.0 L663.2 224.7 L664.4 223.8 L662.4 224.6 L658.8 227.1 L655.0 230.0 L653.8 231.4 L655.0 231.2 L656.6 230.1 L661.3 226.5 L666.3 223.1 L668.3 221.8 L667.0 223.2 L661.8 227.5 L658.1 230.7 L659.1 231.2 L662.8 229.3 L670.3 224.7 L676.2 220.7 L681.8 217.1 L682.7 216.5 L682.2 217.1 L681.7 217.9 L681.3 218.8 L682.2 218.5 L685.3 216.0 L688.2 212.7 L690.3 210.1 L692.2 207.7 L689.5 210.2 L687.0 212.5 L684.4 215.3 L679.4 221.2 L676.9 224.5 L676.5 225.1 L677.1 223.0 L677.3 222.1 L676.8 221.1 L674.4 222.0 L673.2 222.8 L666.8 227.6 L657.6 234.6 L651.2 239.5 L648.6 241.0 L651.4 237.5 L656.7 231.8 L659.1 228.7 L659.2 227.0 L655.6 227.7 L649.6 230.9 L643.9 233.9 L642.1 234.8 L643.3 234.4 L646.8 232.0 L651.5 228.5 L653.6 226.8 L653.0 227.6 L649.2 231.6 L646.0 235.5 L645.6 236.7 L647.5 235.6 L651.0 232.5 L652.5 231.2 L650.8 232.6 L646.5 236.1 L643.6 238.2 L642.7 238.9 L643.9 238.0 L646.7 235.4 L648.1 233.7 L648.6 232.6 L648.3 232.0 L646.2 231.9 L641.8 232.1 L635.2 232.9 L627.5 233.5 L621.4 234.1 L613.4 235.1 L607.1 235.8 L603.0 236.6 L601.7 237.0 L600.3 237.8 L599.9 239.3 L600.0 240.7 L599.6 242.1 L599.8 240.5 L600.4 238.9 L601.1 237.3 L601.8 234.6 L601.4 232.6 L599.3 231.4 L597.4 230.5 L596.2 229.9 L594.2 229.9 L592.9 230.4 L592.3 230.9 L591.6 231.4 L590.6 231.9 L589.0 234.6 L588.5 235.5 L587.1 238.2 L586.6 239.0 L591.1 235.4 L595.8 231.6 L597.2 230.4 L601.0 227.2 L597.7 228.9 L596.5 229.6 L593.3 231.3 L590.5 232.4" fill="none" stroke="rgb(53,132,228)" stroke-opacity="1.000" stroke-width="8" stroke-linecap="round" stroke-linejoin="round"/>
  <path d="M571.5 238.5 L568.2 239.9 L568.2 238.8 L571.0 235.8 L572.1 234.7 L574.5 232.2 L570.1 233.6 L567.2 235.2 L565.0 236.5 L562.3 238.0 L563.2 235.7" fill="none" stroke="rgb(53,132,228)" stroke-opacity="1.000" stroke-width="8" stroke-linecap="round" stroke-linejoin="round"/>
  <path d="M799.8 252.9 L800.0 252.2 L800.1 251.4 L800.2 250.5 L800.2 249.9 L800.1 249.1 L799.6 248.8 L799.1 248.4 L798.7 248.2 L798.1 248.0 L797.5 247.9 L796.9 247.9 L796.0 248.1 L795.3 248.5 L794.6 248.9 L793.5 249.9 L792.6 251.0 L791.2 253.0 L790.2 254.6 L788.6 257.4 L787.2 261.2 L786.0 265.7 L785.4 269.8 L786.2 272.8 L787.8 274.1 L790.6 274.6 L793.3 273.7 L795.2 272.5 L798.0 270.5 L800.9 268.3 L802.6 266.9 L803.1 266.0 L802.6 265.6 L802.5 266.2 L802.4 270.0 L802.4 271.6 L802.6 273.3 L803.7 275.9 L806.0 277.3 L808.6 277.6 L813.6 276.7 L819.3 274.2 L825.3 270.8 L829.4 268.0 L833.8 264.4 L836.7 260.8 L837.6 257.6 L837.5 255.7 L836.7 254.1 L836.4 254.5 L836.3 255.3 L836.2 256.3 L836.4 257.8 L837.6 259.8 L839.6 261.5 L842.0 262.9 L844.4 263.5 L846.3 263.6 L849.1 263.3 L851.8 262.7 L854.5 261.3 L856.6 259.6 L859.6 256.7 L862.4 253.3 L864.5 250.1 L865.4 248.0 L865.6 246.3 L864.6 247.4 L864.3 248.7 L864.2 250.9 L864.5 251.8 L864.9 252.8 L866.0 254.6 L867.7 255.8 L869.5 256.3 L872.2 256.4 L875.3 256.0 L877.9 255.4 L881.6 254.1 L885.2 252.3 L888.6 249.8 L891.3 247.1 L892.5 244.9 L893.1 241.7 L892.9 238.9 L891.9 236.8 L890.8 235.3 L889.7 234.7 L889.2 234.6 L888.5 234.6 L887.5 234.6 L886.8 234.4 L886.2 234.4 L885.7 235.0 L885.4 235.6 L885.4 236.6 L885.7 237.6 L886.2 237.8 L887.1 236.1 L887.4 235.0 L887.5 234.0 L887.2 232.0 L886.3 231.0 L884.7 230.3 L882.8 229.9 L879.6 229.4 L877.2 229.4 L873.6 229.5 L869.6 229.7 L866.0 230.3 L863.9 231.4 L861.8 233.4 L860.7 235.8 L860.3 238.3 L861.1 240.0 L862.6 240.6 L864.7 240.5 L866.6 239.6 L867.3 237.8 L867.1 236.3 L866.1 234.6 L864.4 233.2 L861.7 232.4 L858.3 231.7 L855.5 231.3 L851.4 231.2 L848.3 231.5 L844.6 232.6 L841.5 234.6 L839.4 236.4 L838.2 238.0 L837.4 239.5 L836.9 241.4 L837.1 243.2 L838.0 244.2 L839.3 244.4 L840.4 244.0 L841.4 242.3 L841.6 240.7 L840.8 239.0 L838.9 237.5 L836.7 237.2 L834.9 237.3 L832.0 238.3 L829.4 240.0 L827.4 242.2 L826.4 243.8 L826.0 245.5 L826.2 246.1 L827.2 245.8 L827.8 245.1 L828.2 243.9 L828.3 243.3 L828.2 242.6 L827.8 241.9 L827.2 241.5 L826.0 241.1 L825.4 241.0 L822.3 241.3 L818.4 243.3 L815.6 245.8 L814.9 247.0 L815.3 248.3 L816.8 249.1 L818.0 249.1 L819.3 248.1 L819.9 246.1 L819.1 244.5 L816.9 243.7 L814.8 243.8 L811.6 244.6 L808.2 247.1 L805.8 249.4 L803.4 252.2 L802.5 254.3 L803.3 255.2 L804.1 255.2 L803.5 253.9 L802.1 253.4 L801.4 253.3 L798.9 253.5 L795.3 255.1 L793.1 257.4 L792.4 259.9 L792.6 262.4 L793.7 263.1 L795.4 262.3 L796.9 259.7 L797.2 258.0 L795.5 257.0 L792.0 258.0 L788.9 260.9 L787.7 263.5 L787.7 267.2 L789.4 269.9 L792.6 269.7 L795.9 267.1 L797.9 264.4 L798.8 261.0 L797.6 258.5 L795.2 258.7 L792.7 261.7 L791.9 264.2 L793.4 266.5 L797.3 266.6 L801.7 264.3 L804.2 261.9 L805.6 258.6 L804.7 256.3 L802.6 255.9 L800.8 257.4 L800.9 259.3 L803.8 259.6 L809.5 257.9 L814.0 255.7 L817.6 253.2 L817.9 252.6 L815.3 253.9 L812.0 257.3 L811.1 259.9 L812.7 262.3 L816.8 262.8 L821.8 261.6 L825.0 259.6 L827.6 256.6 L827.0 254.4 L823.4 254.3 L820.4 256.0 L817.8 259.6 L817.5 263.1 L819.4 265.2 L821.8 265.2 L825.3 263.0 L827.8 259.2 L828.2 256.3 L826.0 253.7 L821.5 254.2 L817.3 257.8 L815.4 262.4 L815.2 266.9 L817.1 268.7 L819.6 267.7 L823.8 263.6 L827.5 258.1 L828.5 251.1 L825.6 249.4 L820.4 252.4 L816.5 257.6 L815.7 262.0 L817.1 265.9 L820.0 267.5 L824.1 266.2 L827.5 263.1 L832.3 257.2 L834.7 250.8" fill="none" stroke="rgb(53,132,228)" stroke-opacity="1.000" stroke-width="8" stroke-linecap="round" stroke-linejoin="round"/>
  <path d="M828.5 250.4 L825.4 253.7 L824.4 256.5 L824.4 258.4 L826.2 259.9 L831.4 258.9 L837.2 255.5 L841.4 251.9 L844.8 247.6 L845.2 244.3 L843.8 243.2 L841.7 245.2 L840.8 248.8 L843.0 250.7 L847.4 249.6 L852.3 245.7 L855.1 242.6 L856.0 239.9 L853.7 239.6 L849.5 243.2 L847.2 247.4 L848.3 250.3 L851.2 250.2 L855.8 247.9 L859.3 244.8 L859.9 242.6 L858.0 242.3 L852.0 245.6 L848.8 250.0 L850.1 252.1 L853.6 251.6 L856.3 249.7 L858.8 246.5 L859.1 244.3 L856.7 243.8 L852.5 246.5 L849.7 250.6 L849.8 253.3 L852.7 254.9 L856.7 254.3 L859.9 252.0 L861.0 249.4 L860.2 247.9 L856.8 247.9 L852.3 250.5 L850.3 253.6 L851.5 255.3 L854.1 255.2 L858.2 252.7 L862.6 249.0 L866.3 245.4 L868.4 243.0 L868.5 240.8 L865.1 241.9 L861.8 245.2 L861.3 247.3 L864.0 248.3 L869.2 247.2 L875.5 243.5 L877.4 242.1 L876.0 242.6 L874.5 244.8 L874.2 245.7 L874.2 248.4 L876.1 249.1 L880.3 248.2 L884.7 245.7 L887.5 243.2 L886.9 242.4 L883.6 243.8 L880.4 247.1 L879.4 249.7 L880.4 250.8 L881.8 250.9" fill="none" stroke="rgb(53,132,228)" stroke-opacity="1.000" stroke-width="8" stroke-linecap="round" stroke-linejoin="round"/>
  <path d="M889.8 241.1 L888.8 240.3 L887.5 240.1 L883.2 240.6 L878.7 242.8 L876.8 244.9 L877.6 245.7 L880.6 245.5 L883.0 243.3 L883.5 240.7 L882.3 238.5 L879.8 237.7 L876.2 239.4 L873.3 242.8 L872.8 244.5 L874.1 245.4 L877.1 243.7 L879.7 240.6 L880.4 238.1 L878.7 237.1 L875.3 238.5 L872.0 240.8 L871.2 241.7 L872.3 242.3 L874.9 241.5 L877.5 239.3 L878.8 236.8 L878.5 235.0 L875.9 235.3 L871.7 238.1 L868.8 240.9 L868.9 241.9 L871.4 241.6 L873.4 240.5 L874.7 238.3 L874.1 235.4 L870.6 234.4 L865.0 236.3 L860.2 240.1 L858.5 242.8 L859.5 243.5 L860.1 243.1 L859.8 241.5 L858.7 239.7 L857.3 238.6 L854.3 239.0 L850.1 242.2 L847.3 245.5 L847.7 246.6 L849.8 245.9 L852.3 243.2 L852.7 240.3 L850.7 238.8 L846.7 239.7 L842.1 243.4 L839.2 246.5 L839.9 247.2 L842.6 246.2 L846.6 243.3 L848.9 240.0 L848.8 238.3 L846.7 238.2 L844.5 239.2 L841.6 241.6 L841.8 242.4 L844.6 241.7 L848.2 239.2 L850.2 237.2 L850.1 236.3 L848.4 236.0 L845.3 237.8 L841.5 241.3 L841.1 243.3 L845.1 242.7 L848.9 240.7 L852.4 237.8 L853.1 236.2 L852.3 235.4 L851.6 235.1 L852.1 235.1 L854.4 234.6 L857.2 234.1 L859.5 233.7 L861.2 233.7 L859.4 234.2 L855.6 235.3 L853.9 235.8 L844.0 239.9 L835.0 244.5 L825.5 249.7 L822.6 250.9 L824.1 248.9 L827.9 246.0 L832.8 242.2 L835.7 240.1 L832.6 243.8 L829.7 247.3 L829.0 248.3 L827.8 251.2 L829.1 251.8 L829.9 251.7" fill="none" stroke="rgb(53,132,228)" stroke-opacity="1.000" stroke-width="8" stroke-linecap="round" stroke-linejoin="round"/>
  <path d="M835.5 248.6 L833.5 246.3 L828.5 248.9 L823.4 252.6 L820.1 255.3 L819.6 255.7 L820.4 254.4 L821.7 251.7 L822.4 248.9 L821.9 247.1 L820.0 247.3 L816.0 250.5 L812.9 253.6 L811.2 256.4 L812.0 256.7 L813.3 255.2 L814.0 253.1 L813.6 252.1 L812.2 252.1 L808.9 254.3 L806.7 257.3 L806.0 259.5 L806.8 259.8 L808.2 258.6 L810.3 255.9 L810.9 254.2 L809.4 253.9 L806.7 255.2 L804.5 258.3 L803.9 261.8 L805.4 264.5 L810.1 264.8 L816.3 263.9 L818.6 263.7 L817.0 265.5 L812.6 269.0 L811.2 271.1 L811.6 272.0 L812.8 272.7 L814.8 272.5 L816.3 270.8 L816.4 270.0 L813.4 271.1 L809.3 274.0 L808.9 275.7 L812.4 274.8 L816.9 272.3 L820.0 269.7 L819.2 269.4 L814.7 270.5 L810.3 272.5 L807.3 274.2 L805.5 275.4 L807.2 274.7 L812.6 272.5 L818.4 269.4 L821.9 267.2 L818.6 268.4 L817.5 268.9 L819.2 268.3 L822.7 266.5 L824.1 265.8 L829.8 262.6 L834.5 259.4 L837.2 256.9 L838.9 255.6 L840.0 255.0 L840.6 254.9 L843.1 254.7 L847.4 253.8 L850.5 253.7 L850.1 255.7 L848.9 257.7 L849.3 257.9 L849.9 257.8 L849.4 258.8 L849.8 259.2 L851.3 259.4" fill="none" stroke="rgb(53,132,228)" stroke-opacity="1.000" stroke-width="8" stroke-linecap="round" stroke-linejoin="round"/>
  <path d="M846.2 258.6 L845.1 259.6 L844.8 260.6 L845.2 260.9 L846.2 260.6 L846.8 260.4 L850.0 258.8 L853.5 257.0 L856.3 255.4 L858.3 254.5 L859.7 254.0 L861.7 253.3 L864.4 252.3 L867.4 250.9 L871.3 248.9 L873.9 247.2 L875.2 246.6 L875.9 246.9 L876.1 248.3 L875.2 250.4 L874.5 252.0 L875.0 252.1 L876.9 251.0 L878.5 249.8 L879.3 249.1 L877.6 250.5 L877.3 250.8 L876.8 251.5 L877.1 251.8 L877.8 251.9 L876.8 252.7 L876.1 253.2 L876.1 253.9 L877.1 253.9 L877.5 253.8 L879.9 253.3 L882.6 252.3 L885.6 251.2 L888.6 249.7 L891.5 248.2 L893.3 247.2 L894.7 246.6 L894.2 246.9 L893.0 248.0 L893.5 248.6 L894.5 248.4 L894.9 248.3 L896.4 247.4 L897.6 246.2 L898.3 244.6 L898.1 242.8 L896.0 240.9 L891.5 239.9 L886.7 240.3 L885.1 240.6 L885.5 240.3 L887.6 239.0 L888.4 238.2 L887.3 238.2 L884.0 239.8 L880.6 241.8 L880.0 242.3 L881.8 241.8 L882.9 241.4 L882.4 241.4 L881.1 241.8 L879.7 242.4 L878.9 242.8 L879.4 242.7 L880.8 242.5 L881.4 242.4" fill="none" stroke="rgb(53,132,228)" stroke-opacity="1.000" stroke-width="8" stroke-linecap="round" stroke-linejoin="round"/>
  <path d="M754.7 308.2 L754.3 308.6 L753.8 309.5 L753.1 310.8 L752.9 311.4 L751.8 314.0 L751.1 316.4 L751.3 318.1 L753.1 319.0 L756.0 319.1 L758.5 319.0 L759.3 319.7 L759.2 320.8 L758.8 322.9 L758.6 325.0 L758.7 327.3 L759.8 328.9 L762.7 328.8 L765.9 328.1 L766.7 328.4 L765.0 330.7 L762.4 333.8 L761.0 336.4 L761.3 337.8 L763.5 338.3 L766.0 338.6 L766.6 340.1 L765.3 343.0 L764.0 345.6 L763.3 348.2 L764.4 349.4 L765.9 350.2 L766.1 351.3 L765.6 352.6 L764.9 354.8 L764.1 357.3 L763.3 360.2 L763.1 362.5 L763.9 364.0 L765.5 364.7 L766.3 365.7 L765.6 367.8 L764.3 369.8 L763.4 372.0 L763.6 373.1 L764.4 373.8 L764.1 375.5 L761.8 378.7 L759.9 381.9 L759.7 383.9 L759.9 385.3 L760.2 386.5 L760.6 387.2 L761.0 387.7 L761.1 389.0 L759.6 391.6 L758.4 394.4 L758.2 396.1 L756.7 398.5 L754.7 401.5 L753.9 403.3 L754.0 404.3 L754.4 405.1 L754.9 405.9 L755.2 407.1 L755.1 408.8 L754.6 410.8 L753.2 413.5 L751.1 416.6 L748.0 419.7 L744.2 422.8 L741.6 424.7 L741.1 424.9 L739.1 426.5 L737.1 428.2 L734.9 430.1 L731.4 432.9 L730.9 433.5 L730.8 434.4 L730.0 435.5 L729.0 436.6 L727.4 438.8 L726.8 440.3 L728.2 440.3 L730.1 439.6 L730.8 439.4 L729.2 441.0 L728.0 442.4 L726.3 444.1 L723.8 446.3 L723.1 446.9 L723.8 446.7 L724.8 446.1 L724.1 446.9 L721.8 449.4 L719.8 451.8 L718.5 453.5 L718.2 454.2 L718.6 454.3 L719.1 454.2" fill="none" stroke="rgb(53,132,228)" stroke-opacity="1.000" stroke-width="8" stroke-linecap="round" stroke-linejoin="round"/>
  <path d="M702.5 336.6 L701.4 337.5 L701.0 337.9 L697.4 340.5 L695.6 341.8 L696.1 341.4 L693.5 342.8 L691.5 344.0 L689.4 345.2 L685.5 347.2 L684.3 347.9 L685.0 347.7 L687.3 346.5 L688.9 345.3 L685.6 346.6 L681.8 348.9 L680.5 349.6 L677.5 351.0 L681.0 348.8 L682.5 347.7 L683.8 346.3 L683.9 345.6 L680.6 346.2 L675.8 348.5 L666.4 352.9 L664.2 354.0 L665.7 352.8 L670.9 349.8 L678.0 345.8 L679.4 345.0 L678.1 346.2 L674.4 349.5 L671.9 352.2 L671.4 353.7" fill="none" stroke="rgb(134,94,60)" stroke-opacity="1.000" stroke-width="8" stroke-linecap="round" stroke-linejoin="round"/>
  <path d="M692.6 352.0 L687.7 355.3 L685.9 356.4 L687.9 355.3" fill="none" stroke="rgb(134,94,60)" stroke-opacity="1.000" stroke-width="8" stroke-linecap="round" stroke-linejoin="round"/>
  <path d="M694.0 351.3 L693.0 351.9 L694.3 351.2 L694.8 350.9 L695.9 350.2 L695.0 351.2 L694.0 352.1 L693.5 352.8 L694.3 352.8 L695.0 352.7" fill="none" stroke="rgb(134,94,60)" stroke-opacity="1.000" stroke-width="8" stroke-linecap="round" stroke-linejoin="round"/>
  <path d="M699.5 351.9 L695.6 354.8 L692.2 357.5" fill="none" stroke="rgb(134,94,60)" stroke-opacity="1.000" stroke-width="8" stroke-linecap="round" stroke-linejoin="round"/>
  <path d="M699.5 353.6 L698.4 355.0 L697.6 355.8 L697.8 356.4 L700.8 355.6" fill="none" stroke="rgb(134,94,60)" stroke-opacity="1.000" stroke-width="8" stroke-linecap="round" stroke-linejoin="round"/>
  <path d="M702.4 374.1 L703.7 373.3 L707.7 370.8 L708.8 370.1 L708.4 370.7 L707.4 371.7 L709.5 369.9 L710.7 368.7 L711.6 367.9 L711.2 367.3 L709.0 368.0 L704.3 370.9 L700.4 373.1 L701.4 371.8 L705.5 368.3 L707.9 366.3 L704.9 367.8 L697.1 373.2 L691.3 377.6 L695.6 375.3 L697.8 374.2 L697.1 376.4 L695.3 378.6 L693.2 381.7 L693.2 383.2 L698.2 381.6 L705.1 378.7 L706.7 379.6 L700.0 387.3 L691.9 395.6 L691.9 396.8 L700.6 390.8 L708.7 384.8 L708.0 385.6 L700.4 391.7 L694.8 396.1 L695.4 396.1 L698.7 394.2 L699.5 394.2 L699.0 394.9 L700.8 394.4 L705.1 392.3 L707.8 391.4 L705.8 394.1 L698.7 400.9 L696.0 403.9 L702.7 400.1 L712.5 394.5 L714.0 395.6 L706.8 403.4 L700.6 410.8 L699.5 412.8 L701.4 412.8 L704.5 411.6 L705.9 411.1" fill="none" stroke="rgb(134,94,60)" stroke-opacity="1.000" stroke-width="8" stroke-linecap="round" stroke-linejoin="round"/>
  <path d="M741.1 330.8 L740.3 330.9 L740.4 329.2 L740.6 328.6 L740.6 327.8 L740.0 327.7 L737.3 330.1 L733.0 334.0 L732.1 334.9 L734.5 333.8 L736.9 332.3 L737.5 332.0 L734.8 334.8 L731.6 338.5 L730.8 340.8 L732.7 341.7 L734.9 342.8 L734.9 345.5 L732.6 350.4 L731.0 354.5 L732.8 355.9 L736.2 356.0 L737.8 356.7 L736.9 359.2 L734.9 362.8 L734.3 365.4 L735.7 366.0 L737.2 366.0 L737.4 366.8 L734.9 370.1 L729.7 375.4 L726.6 379.1 L728.8 378.8 L733.5 376.5 L735.1 376.0 L733.2 378.6 L729.9 382.3 L728.0 385.1 L728.7 385.7 L731.4 385.1 L731.7 385.9 L726.4 391.3 L718.5 398.7 L716.4 401.3 L722.7 396.9 L729.9 392.4 L729.3 394.2 L723.2 400.9 L721.1 403.8 L725.7 401.0 L729.9 397.9 L727.8 400.2 L723.4 403.7 L722.6 404.3 L725.4 402.0 L728.1 400.3 L723.5 404.5 L716.1 410.4 L714.0 412.5 L719.1 409.8 L725.1 406.9 L724.6 409.1 L717.9 416.0 L712.8 420.6 L715.0 419.6 L720.4 415.8 L712.2 422.2 L705.0 427.5 L703.3 428.8 L702.1 429.6" fill="none" stroke="rgb(134,94,60)" stroke-opacity="1.000" stroke-width="8" stroke-linecap="round" stroke-linejoin="round"/>
  <path d="M790.5 324.9 L788.6 325.2 L786.9 325.9 L786.4 326.1 L786.2 325.6 L786.0 324.9 L785.4 325.1 L784.3 325.8 L781.2 328.1 L780.0 329.2 L781.1 328.8 L781.5 329.9 L781.4 331.0 L780.8 332.6 L778.7 336.2 L778.4 338.3 L781.3 338.4 L784.9 338.0 L785.5 339.2 L782.5 343.0 L779.4 346.6 L779.9 347.7 L783.1 347.1 L785.9 346.8 L786.1 348.6 L782.9 354.2 L776.5 361.7 L773.4 366.8 L778.9 366.0 L785.4 363.6 L785.7 364.9 L779.3 371.3 L773.3 377.3 L773.8 378.1 L780.0 375.0 L784.6 372.6 L784.0 373.9 L780.6 377.5 L779.7 379.1 L781.9 379.1 L784.0 378.8 L784.3 379.8 L783.7 381.4 L783.7 382.3 L784.6 382.6 L784.5 383.9 L783.4 385.9 L782.0 388.2 L781.8 389.3 L783.9 389.3 L784.8 389.9 L782.1 393.8 L777.6 398.6 L777.1 400.1 L781.5 398.5 L785.4 396.9 L783.2 400.9 L775.7 408.5 L771.2 414.2 L772.0 415.6 L774.8 415.5 L775.5 417.0 L774.7 419.2 L774.0 420.9 L772.0 424.0 L768.0 429.1 L765.2 433.5 L765.3 434.6 L765.7 434.3" fill="none" stroke="rgb(134,94,60)" stroke-opacity="1.000" stroke-width="8" stroke-linecap="round" stroke-linejoin="round"/>
  <path d="M795.9 314.3 L795.4 314.8 L795.6 315.4 L796.9 315.8 L800.0 314.9 L805.8 312.0 L811.4 309.7 L812.1 310.0 L810.6 311.9 L810.9 312.3 L814.5 311.0 L817.9 309.4 L819.8 308.7 L820.7 308.4 L819.5 310.1 L818.3 311.1 L820.6 310.2 L827.2 306.2 L833.5 303.0 L834.3 303.6 L830.7 308.0 L828.0 311.5 L829.4 312.1 L834.5 310.4 L839.5 308.4 L841.4 308.0 L841.6 308.6 L841.3 309.8 L841.6 310.8 L842.3 311.9 L843.6 312.7 L846.7 312.4 L850.3 312.0 L852.1 312.4 L852.6 314.2 L854.8 314.2 L859.1 312.2 L861.6 311.0 L860.6 312.4 L861.1 312.5 L861.6 312.3 L863.7 311.2 L867.8 309.2 L870.1 308.2 L870.9 308.0 L869.4 309.5 L869.1 309.9 L872.0 308.4 L876.4 306.3 L877.8 305.8 L876.0 307.9 L874.8 308.8" fill="none" stroke="rgb(134,94,60)" stroke-opacity="1.000" stroke-width="8" stroke-linecap="round" stroke-linejoin="round"/>
  <path d="M602.4 355.6 L600.8 355.8 L600.2 356.2 L599.0 357.1 L596.7 359.3 L595.4 361.0 L595.9 361.3 L600.0 359.5 L603.2 357.9 L601.6 361.1 L600.2 362.8 L601.4 363.9 L603.8 363.0 L607.0 361.3 L614.0 357.8 L620.0 355.3 L623.0 354.8 L622.1 357.1 L621.5 359.0 L626.5 356.7 L634.4 352.8 L640.4 350.4 L641.2 351.9 L636.4 357.8 L633.6 361.5 L639.8 359.1 L652.9 351.2 L663.6 345.7 L663.7 348.0 L656.9 355.6 L653.2 361.1 L657.0 361.5 L665.9 358.1 L675.3 354.6 L681.0 352.8 L680.6 354.1 L675.4 358.6 L672.8 360.7 L673.5 360.4" fill="none" stroke="rgb(134,94,60)" stroke-opacity="1.000" stroke-width="8" stroke-linecap="round" stroke-linejoin="round"/>
  <path d="M580.1 371.2 L581.5 370.2 L582.7 369.2 L584.1 368.2 L586.1 367.0 L586.3 367.7 L584.3 370.5 L583.6 372.0 L585.0 372.8 L586.3 373.3 L587.2 373.4 L586.3 374.1 L585.6 374.7 L582.9 377.2 L582.0 378.3 L584.1 378.1 L587.8 376.8 L588.7 376.7 L584.8 380.3 L578.3 385.9 L574.2 388.8 L576.4 385.9 L577.5 384.5 L578.0 383.8 L575.6 384.2 L567.3 388.9 L560.1 392.4 L556.7 393.3 L556.3 391.8 L552.4 394.0 L547.5 397.6 L545.9 398.6 L543.2 400.4 L543.8 399.8" fill="none" stroke="rgb(134,94,60)" stroke-opacity="1.000" stroke-width="8" stroke-linecap="round" stroke-linejoin="round"/>
  <path d="M550.8 394.0 L545.4 398.1 L541.2 401.5 L538.0 404.4 L537.3 405.3 L538.7 405.3 L546.0 401.0 L556.3 395.5 L560.6 394.5" fill="none" stroke="rgb(134,94,60)" stroke-opacity="1.000" stroke-width="8" stroke-linecap="round" stroke-linejoin="round"/>
  <path d="M553.1 414.8 L553.0 415.7 L553.1 416.7 L553.2 417.7 L552.8 416.1 L552.6 414.9 L551.9 410.9 L550.2 404.1 L547.6 396.7 L546.6 393.5 L547.2 394.8 L550.5 403.1 L555.4 413.3 L559.3 419.7 L560.2 418.1 L559.6 411.0 L557.1 401.6 L554.2 391.2 L553.5 387.1 L556.6 391.9 L563.2 402.9 L569.1 411.2 L573.0 412.6 L574.8 407.2 L575.0 399.3 L573.8 390.4 L574.9 386.5 L578.5 391.4 L585.0 403.8 L588.5 408.0 L590.9 406.6 L590.9 398.0 L589.0 388.9 L588.1 382.6 L591.6 383.4 L597.2 392.8 L602.7 398.8 L607.2 398.2 L609.2 394.1 L607.5 389.0 L604.6 385.6 L604.9 388.9 L607.7 394.0 L610.9 394.5 L612.9 390.5 L612.9 385.5 L611.7 381.1 L612.3 382.7 L615.3 388.7 L619.3 391.8 L622.6 389.9 L625.0 382.2 L624.8 376.4" fill="none" stroke="rgb(46,194,126)" stroke-opacity="1.000" stroke-width="8" stroke-linecap="round" stroke-linejoin="round"/>
  <path d="M624.6 366.3 L628.6 379.9 L631.2 390.5 L633.8 392.4 L635.3 387.6 L634.9 378.6" fill="none" stroke="rgb(46,194,126)" stroke-opacity="1.000" stroke-width="8" stroke-linecap="round" stroke-linejoin="round"/>
  <path d="M630.8 362.2 L633.0 371.0 L635.5 380.8 L636.9 386.2 L639.5 390.4 L641.2 387.2 L642.3 374.3" fill="none" stroke="rgb(46,194,126)" stroke-opacity="1.000" stroke-width="8" stroke-linecap="round" stroke-linejoin="round"/>
  <path d="M641.2 359.3 L645.1 373.9 L645.9 377.5 L648.3 385.8 L652.6 388.3 L655.3 381.4 L656.1 376.2" fill="none" stroke="rgb(46,194,126)" stroke-opacity="1.000" stroke-width="8" stroke-linecap="round" stroke-linejoin="round"/>
  <path d="M656.9 353.8 L661.0 366.0 L663.5 377.0 L664.2 379.9 L667.1 386.2 L668.9 382.4 L669.7 372.7 L669.5 369.5" fill="none" stroke="rgb(46,194,126)" stroke-opacity="1.000" stroke-width="8" stroke-linecap="round" stroke-linejoin="round"/>
  <path d="M668.7 359.1 L672.1 378.9 L673.9 380.6 L674.7 380.0 L676.1 374.2 L675.3 363.3 L673.2 354.4 L673.2 357.3 L675.2 369.9 L677.2 380.3 L678.6 381.6 L679.7 375.0 L679.3 366.8" fill="none" stroke="rgb(46,194,126)" stroke-opacity="1.000" stroke-width="8" stroke-linecap="round" stroke-linejoin="round"/>
  <path d="M677.2 353.4 L679.3 371.8 L679.8 378.1 L680.0 384.8 L679.6 388.5 L679.3 389.0" fill="none" stroke="rgb(46,194,126)" stroke-opacity="1.000" stroke-width="8" stroke-linecap="round" stroke-linejoin="round"/>
  <path d="M507.4 452.2 L508.1 452.4 L508.3 451.7 L508.4 451.1 L509.1 440.2 L505.6 430.8 L499.5 420.4 L496.6 416.2 L498.2 419.2 L505.3 431.3 L511.6 445.3 L514.7 453.9 L515.5 456.0 L515.3 453.8 L510.9 443.5 L506.0 429.6 L502.7 418.3 L503.6 418.6 L512.1 434.7 L521.6 446.9 L530.6 451.5 L536.4 449.0 L537.9 440.0 L535.4 427.1 L533.8 419.0 L534.9 420.7 L542.3 435.4 L549.5 444.1 L554.8 445.4 L556.1 439.7 L554.1 428.3 L553.2 424.6" fill="none" stroke="rgb(46,194,126)" stroke-opacity="1.000" stroke-width="8" stroke-linecap="round" stroke-linejoin="round"/>
  <path d="M550.4 409.0 L567.3 427.2 L573.7 434.8 L575.4 435.1 L576.4 430.1 L573.7 419.2" fill="none" stroke="rgb(46,194,126)" stroke-opacity="1.000" stroke-width="8" stroke-linecap="round" stroke-linejoin="round"/>
  <path d="M570.7 407.3 L578.3 418.5 L583.5 427.0 L585.0 428.7 L590.3 429.3 L591.1 420.5 L590.5 413.6" fill="none" stroke="rgb(46,194,126)" stroke-opacity="1.000" stroke-width="8" stroke-linecap="round" stroke-linejoin="round"/>
  <path d="M588.9 399.3 L598.0 408.7 L601.7 418.4 L603.8 421.4 L606.6 421.5 L608.6 412.7 L609.1 401.2" fill="none" stroke="rgb(46,194,126)" stroke-opacity="1.000" stroke-width="8" stroke-linecap="round" stroke-linejoin="round"/>
  <path d="M609.7 388.5 L620.1 408.1 L621.6 413.2 L623.2 415.3 L626.5 413.3 L629.3 402.5 L630.1 386.9 L632.1 383.4 L634.1 395.6 L636.5 406.7 L640.5 407.6 L644.8 400.7 L647.8 388.9 L649.4 378.5 L652.4 384.8 L655.0 398.5 L658.0 403.6 L661.8 399.9 L665.8 387.2 L666.4 376.2 L667.1 388.0 L667.1 390.9 L667.3 394.9 L668.3 396.4 L671.7 394.3 L676.7 387.2 L679.0 379.5 L680.4 388.7 L680.6 390.9 L680.9 394.7" fill="none" stroke="rgb(46,194,126)" stroke-opacity="1.000" stroke-width="8" stroke-linecap="round" stroke-linejoin="round"/>
  <path d="M790.8 330.7 L791.5 330.8 L792.3 331.2 L793.0 331.5 L793.3 331.9 L793.6 332.2 L794.1 332.6 L794.5 332.8 L795.2 331.5 L796.3 329.0 L797.5 326.0 L797.9 324.7 L797.9 325.6 L797.5 329.5 L797.0 334.1 L797.3 335.1 L798.6 332.4 L800.5 325.7 L801.1 320.5 L801.3 318.4 L801.3 321.8 L800.7 331.2 L800.9 340.1 L802.1 340.0 L803.5 335.9 L804.6 329.8 L805.1 325.5" fill="none" stroke="rgb(46,194,126)" stroke-opacity="1.000" stroke-width="8" stroke-linecap="round" stroke-linejoin="round"/>
  <path d="M806.1 317.9 L805.3 338.7 L805.0 341.4 L805.2 345.5 L807.2 344.2 L810.5 338.2 L811.9 334.3" fill="none" stroke="rgb(46,194,126)" stroke-opacity="1.000" stroke-width="8" stroke-linecap="round" stroke-linejoin="round"/>
  <path d="M814.4 322.7 L813.4 339.9 L813.5 342.4 L815.1 346.2 L820.7 342.4 L825.0 335.5 L827.5 328.1 L827.8 327.4 L826.6 333.8 L826.6 338.5 L829.7 335.7 L832.4 330.5 L833.5 324.7 L833.6 324.0 L832.5 331.8 L831.9 342.2 L834.8 342.1 L839.6 335.6 L842.7 329.2" fill="none" stroke="rgb(46,194,126)" stroke-opacity="1.000" stroke-width="8" stroke-linecap="round" stroke-linejoin="round"/>
  <path d="M844.8 320.6 L841.8 334.8 L841.7 336.7 L843.1 338.7 L848.3 334.7 L852.9 327.8 L855.9 320.8 L856.0 322.1 L853.8 332.8 L853.7 338.2 L857.0 336.7 L862.2 328.5 L864.0 324.1" fill="none" stroke="rgb(46,194,126)" stroke-opacity="1.000" stroke-width="8" stroke-linecap="round" stroke-linejoin="round"/>
  <path d="M865.9 316.6 L862.3 334.8 L862.5 337.4 L864.4 338.2 L868.8 333.8 L874.1 324.5" fill="none" stroke="rgb(46,194,126)" stroke-opacity="1.000" stroke-width="8" stroke-linecap="round" stroke-linejoin="round"/>
  <path d="M877.9 314.8 L876.2 326.9 L875.2 332.4 L875.2 333.3 L877.4 332.8 L880.5 327.6 L884.1 316.0 L885.3 311.9 L884.6 318.9 L882.9 328.6 L883.6 332.5 L885.3 330.3 L886.8 324.5 L888.1 314.9 L888.4 312.9 L887.4 320.5 L885.8 329.8 L886.0 331.3 L886.9 329.2 L887.9 324.1 L888.1 322.6 L886.5 328.9 L883.1 338.0 L880.5 340.7 L876.4 340.2 L871.4 336.4" fill="none" stroke="rgb(46,194,126)" stroke-opacity="1.000" stroke-width="8" stroke-linecap="round" stroke-linejoin="round"/>
  <path d="M838.3 340.1 L836.3 338.1 L835.4 336.3 L833.7 330.4 L832.2 322.8 L830.7 316.4 L828.4 321.6 L825.3 335.2 L823.3 344.4 L823.8 344.9 L826.7 337.1 L827.7 328.8 L826.9 322.7 L825.7 325.0 L822.8 334.5 L820.9 340.2 L821.2 338.5 L821.2 333.7 L819.9 330.2 L818.4 331.2 L815.4 338.7 L814.4 341.4" fill="none" stroke="rgb(46,194,126)" stroke-opacity="1.000" stroke-width="8" stroke-linecap="round" stroke-linejoin="round"/>
  <path d="M794.7 366.3 L793.3 368.0 L792.6 368.8 L793.1 365.4 L793.9 362.2 L794.7 356.7 L794.9 349.2 L794.9 347.0 L794.8 352.6 L793.5 369.6 L792.9 375.7 L793.6 375.3 L795.6 368.6 L796.5 358.8 L796.8 350.0 L796.5 356.6 L795.3 369.9 L795.4 380.0 L799.2 376.0 L803.8 367.1" fill="none" stroke="rgb(46,194,126)" stroke-opacity="1.000" stroke-width="8" stroke-linecap="round" stroke-linejoin="round"/>
  <path d="M806.7 353.6 L806.3 366.7 L806.2 373.5 L807.1 374.9 L811.1 372.1 L815.2 365.2 L818.1 356.0 L819.1 353.3 L818.9 360.7 L819.5 366.4 L822.7 365.3 L828.3 357.7 L831.2 349.5 L831.9 347.3 L832.0 354.6 L833.7 358.0 L838.3 355.5 L843.5 349.5 L847.1 342.6 L847.9 341.6 L847.3 349.0 L847.4 354.9 L850.3 354.7 L856.0 348.4 L859.3 341.3 L860.3 337.8 L859.2 344.8 L858.3 351.3 L860.0 352.9 L864.0 349.4 L866.7 344.1 L866.8 337.9 L864.9 343.0 L863.0 351.5 L863.9 355.3 L867.7 353.0 L873.0 345.5 L875.2 338.0 L871.3 350.3 L869.1 358.1 L868.9 359.9 L871.3 361.0 L875.3 355.1 L878.5 346.3 L879.6 340.8 L877.5 348.0 L873.1 359.0 L868.3 368.0 L867.5 369.3" fill="none" stroke="rgb(46,194,126)" stroke-opacity="1.000" stroke-width="8" stroke-linecap="round" stroke-linejoin="round"/>
  <path d="M993.6 287.9 L994.2 286.4 L994.6 285.2 L995.4 283.1 L995.6 282.4 L995.8 281.9 L995.9 282.3 L995.7 282.9" fill="none" stroke="rgb(46,194,126)" stroke-opacity="1.000" stroke-width="8" stroke-linecap="round" stroke-linejoin="round"/>
  <path d="M412.5 483.8 L412.5 483.1 L411.5 479.4 L411.2 478.6 L411.0 477.6 L410.7 476.8 L410.2 476.1 L409.8 475.5" fill="none" stroke="rgb(46,194,126)" stroke-opacity="1.000" stroke-width="8" stroke-linecap="round" stroke-linejoin="round"/>
  <path d="M466.2 444.7 L466.5 442.5 L467.1 432.5 L467.1 431.5 L468.1 434.3 L468.9 436.9 L470.1 441.7 L471.8 446.9 L472.8 448.4 L473.6 445.8 L473.6 445.1 L473.5 443.7 L473.1 444.3 L472.9 445.1" fill="none" stroke="rgb(46,194,126)" stroke-opacity="1.000" stroke-width="8" stroke-linecap="round" stroke-linejoin="round"/>
  <path d="M558.7 445.3 L559.2 444.7 L559.8 437.4 L560.0 436.7 L561.2 438.6 L562.4 441.3 L564.2 444.5 L564.7 445.3 L565.5 442.8 L565.7 441.4 L565.8 440.8 L566.6 442.1 L567.0 443.2 L567.5 444.1 L568.2 445.4" fill="none" stroke="rgb(46,194,126)" stroke-opacity="1.000" stroke-width="8" stroke-linecap="round" stroke-linejoin="round"/>
  <path d="M672.0 410.6 L671.8 409.6 L672.0 407.1 L672.2 406.0 L672.4 405.4 L673.2 407.5 L673.4 408.4 L674.1 411.6 L674.8 413.5 L675.0 412.8 L675.1 411.7 L675.1 411.0 L675.1 409.9 L675.0 410.5 L674.7 411.4" fill="none" stroke="rgb(46,194,126)" stroke-opacity="1.000" stroke-width="8" stroke-linecap="round" stroke-linejoin="round"/>
  <path d="M609.4 422.6 L610.6 422.7 L610.8 425.5 L610.8 426.8 L611.0 428.6 L611.8 430.1 L612.3 430.4 L614.3 427.6 L616.8 423.0 L618.1 420.9 L618.7 420.6 L618.9 423.1 L619.0 425.9 L619.5 427.7 L620.5 427.8 L621.4 427.1 L621.9 426.6 L622.3 428.1 L622.9 430.7 L623.8 432.8 L625.3 433.0 L626.0 432.5 L626.2 431.9 L625.3 432.1" fill="none" stroke="rgb(46,194,126)" stroke-opacity="0.580" stroke-width="8" stroke-linecap="round" stroke-linejoin="round"/>
  <path d="M631.1 437.8 L630.8 436.9 L630.0 434.4 L629.5 432.5 L629.0 430.6 L628.5 429.3 L628.6 430.1 L629.1 433.0 L629.3 434.1 L630.0 438.2 L630.1 438.9 L630.6 436.9 L631.4 433.1 L631.7 430.6 L632.2 432.1 L632.6 434.0 L633.0 434.3 L634.0 433.0 L635.2 428.4 L635.8 425.6 L636.9 427.4 L638.3 428.7 L638.9 428.7 L642.3 426.3 L643.0 425.3" fill="none" stroke="rgb(46,194,126)" stroke-opacity="0.580" stroke-width="22" stroke-linecap="round" stroke-linejoin="round"/>
  <path d="M646.6 419.0 L647.7 419.1 L647.8 420.3 L648.3 423.5 L650.7 424.0 L652.8 420.4 L655.1 415.4 L657.6 408.0 L658.5 405.4 L659.4 407.7 L661.9 414.2 L665.9 416.2 L669.9 414.1 L673.0 408.3 L673.3 403.7 L673.1 401.6 L673.0 405.3 L673.8 410.4 L676.6 411.6 L678.3 408.9 L679.2 404.8 L679.5 398.4 L679.6 397.5 L679.2 403.2 L679.0 411.2 L679.9 412.9 L681.4 408.3 L682.8 401.4 L683.6 396.9" fill="none" stroke="rgb(46,194,126)" stroke-opacity="0.580" stroke-width="22" stroke-linecap="round" stroke-linejoin="round"/>
  <path d="M686.1 385.2 L685.5 397.2" fill="none" stroke="rgb(46,194,126)" stroke-opacity="0.580" stroke-width="22" stroke-linecap="round" stroke-linejoin="round"/>
  <path d="M686.5 404.4 L686.9 400.9 L687.0 398.2" fill="none" stroke="rgb(46,194,126)" stroke-opacity="0.580" stroke-width="22" stroke-linecap="round" stroke-linejoin="round"/>
  <path d="M687.4 390.0 L688.6 396.0 L689.0 403.0 L689.1 404.0 L689.3 404.4 L689.1 399.2 L688.2 393.7" fill="none" stroke="rgb(46,194,126)" stroke-opacity="0.580" stroke-width="22" stroke-linecap="round" stroke-linejoin="round"/>
  <path d="M683.3 371.3 L683.1 380.9" fill="none" stroke="rgb(46,194,126)" stroke-opacity="0.580" stroke-width="22" stroke-linecap="round" stroke-linejoin="round"/>
  <path d="M680.5 384.0 L679.0 378.7 L678.4 376.2 L677.7 374.8 L676.0 377.5 L675.2 378.9 L674.0 379.7 L671.5 379.9 L667.2 379.8 L662.3 380.7 L657.3 383.6 L651.1 392.6 L647.3 400.1 L647.0 401.7 L647.5 398.3 L648.0 392.2 L647.3 384.2 L646.4 378.4 L645.9 380.3 L645.2 395.5 L644.4 407.8 L644.5 412.9 L645.5 409.8 L644.7 403.5 L642.4 397.7 L640.7 396.4" fill="none" stroke="rgb(46,194,126)" stroke-opacity="0.580" stroke-width="22" stroke-linecap="round" stroke-linejoin="round"/>
  <path d="M653.1 380.0 L653.2 378.2 L653.1 377.5 L652.7 374.6 L651.4 371.9 L650.3 370.8 L649.0 370.8 L644.7 376.0 L639.5 385.9 L636.3 396.3 L637.1 401.6 L638.8 402.0 L639.5 399.4 L640.2 394.3 L639.8 384.2 L639.4 379.8" fill="none" stroke="rgb(46,194,126)" stroke-opacity="0.580" stroke-width="43" stroke-linecap="round" stroke-linejoin="round"/>
  <path d="M636.8 376.4 L635.6 388.5 L634.1 405.4 L633.7 414.8 L633.2 420.0 L633.1 421.0" fill="none" stroke="rgb(46,194,126)" stroke-opacity="0.580" stroke-width="43" stroke-linecap="round" stroke-linejoin="round"/>
  <path d="M628.9 401.6 L626.9 395.9 L624.1 391.3 L620.7 389.6 L617.5 390.9 L613.5 398.3 L610.1 407.3 L606.1 417.0 L601.9 428.5 L599.9 434.8 L599.4 438.0 L599.3 436.8 L599.0 431.6 L597.9 421.6 L595.5 413.9 L592.1 410.4 L588.5 412.4 L584.1 424.3 L581.2 436.9 L580.3 447.7 L581.0 452.9 L581.7 451.1 L581.5 441.6 L580.2 431.0 L578.4 421.3 L576.2 416.6 L574.7 418.3 L574.1 430.0 L572.9 442.1 L571.5 450.4 L570.7 450.8 L569.2 444.2 L564.8 433.0 L560.6 425.2 L556.8 423.2 L553.3 427.5 L550.8 438.5 L550.6 442.8 L550.3 441.8 L548.3 436.3 L544.9 429.3 L541.8 424.7 L540.0 426.8 L537.9 435.9 L537.5 438.7 L536.8 436.4 L535.5 430.9 L532.7 425.1 L528.5 421.8 L525.8 427.4 L523.8 438.4 L524.2 441.3 L525.4 438.2 L525.6 432.7 L524.1 426.4 L523.0 425.9 L522.2 432.3 L522.9 443.1 L522.8 445.8 L522.5 444.8 L520.3 439.9 L517.9 436.4 L516.7 438.4 L515.6 448.5 L515.1 460.5 L517.9 468.4 L523.4 466.6 L533.5 457.0 L541.6 448.4 L547.3 445.8 L551.1 453.5 L553.8 462.6 L560.6 467.5 L564.1 467.0" fill="none" stroke="rgb(46,194,126)" stroke-opacity="0.580" stroke-width="43" stroke-linecap="round" stroke-linejoin="round"/>
  <path d="M582.4 452.0 L583.4 450.6 L583.7 451.7 L585.6 453.8 L586.6 453.9 L593.6 450.6 L604.0 442.5 L613.3 433.5 L614.7 431.6 L613.9 434.4 L614.3 438.5 L619.1 438.8 L625.0 433.8 L632.0 424.6 L633.6 420.2 L632.1 423.2 L631.7 431.1 L634.5 433.1 L639.6 430.2 L645.2 422.0 L647.6 416.8 L648.0 415.8 L647.4 421.6 L648.7 427.4 L654.8 427.6 L657.9 425.6" fill="none" stroke="rgb(46,194,126)" stroke-opacity="0.580" stroke-width="43" stroke-linecap="round" stroke-linejoin="round"/>
  <path d="M667.5 414.8 L668.3 414.6 L668.2 418.8 L668.9 421.8 L671.4 425.2 L676.5 423.6 L680.3 419.7 L681.1 416.5 L679.6 417.2 L677.4 421.5 L677.0 426.1 L678.5 426.6" fill="none" stroke="rgb(46,194,126)" stroke-opacity="0.580" stroke-width="43" stroke-linecap="round" stroke-linejoin="round"/>
  <path d="M802.2 389.6 L801.2 390.0 L800.4 390.1 L799.7 389.7 L799.2 388.4 L799.0 386.9 L798.7 381.9 L798.3 373.0 L798.1 368.0 L798.0 374.4 L798.1 382.2 L798.0 387.0 L798.1 393.0 L798.6 393.0 L799.1 386.4 L799.0 378.2 L798.7 365.7 L798.7 363.3" fill="none" stroke="rgb(46,194,126)" stroke-opacity="0.580" stroke-width="43" stroke-linecap="round" stroke-linejoin="round"/>
  <path d="M799.4 354.8 L799.1 365.3 L798.8 372.7 L798.7 376.0 L798.7 377.8 L798.9 373.0 L799.1 363.4 L800.0 352.7" fill="none" stroke="rgb(46,194,126)" stroke-opacity="0.580" stroke-width="43" stroke-linecap="round" stroke-linejoin="round"/>
  <path d="M801.1 344.8 L800.2 364.5 L799.9 368.8 L799.8 369.6 L800.1 367.8 L800.6 362.6 L801.5 353.7 L802.1 349.3 L802.6 353.1 L803.0 361.2 L805.3 365.6 L808.4 363.1 L811.7 357.4 L815.1 349.6 L816.4 350.0 L816.4 361.3 L816.5 369.7 L818.1 371.3 L821.1 364.7 L823.3 355.9 L825.5 345.5 L825.6 346.8 L824.7 358.8 L824.6 368.6 L826.3 372.5 L830.1 368.6 L833.3 361.1 L837.3 349.3 L839.1 346.1 L838.5 352.6 L836.5 363.2 L837.2 369.2 L839.9 366.4 L844.3 357.2 L847.6 347.9 L849.6 343.2 L848.5 351.8 L844.7 371.4 L843.4 380.5 L847.2 379.4 L853.6 369.6 L860.8 352.3 L863.2 346.4 L861.1 351.8 L855.4 368.7 L853.2 376.7 L855.2 375.4 L860.1 364.8 L863.4 353.2 L865.0 346.4 L864.0 352.3 L860.7 367.3 L858.5 378.0 L860.1 377.1 L864.8 367.3 L868.0 355.2 L869.4 346.5 L868.0 351.3 L864.6 364.5 L863.0 373.4 L864.9 371.4 L867.8 362.5 L869.9 348.4 L870.5 343.4 L869.6 348.0 L866.5 363.2 L866.2 368.8 L869.6 364.8 L873.0 356.3 L876.1 341.8 L876.4 337.8 L873.6 346.9 L871.7 357.1 L872.7 358.6 L874.9 354.0 L876.9 346.8 L877.6 340.3 L876.0 342.4 L872.7 351.9 L870.9 359.4 L870.6 361.1 L870.2 359.5 L865.7 359.0 L856.8 364.6 L842.6 378.2 L831.6 390.7 L830.0 393.2 L832.6 389.2 L832.5 385.6 L828.6 385.0 L823.5 391.0 L812.9 407.6 L805.3 416.5 L804.6 416.7" fill="none" stroke="rgb(46,194,126)" stroke-opacity="0.580" stroke-width="43" stroke-linecap="round" stroke-linejoin="round"/>
  <path d="M807.8 389.7 L804.4 395.1 L800.2 405.9 L795.9 416.5 L795.8 417.4" fill="none" stroke="rgb(46,194,126)" stroke-opacity="0.580" stroke-width="43" stroke-linecap="round" stroke-linejoin="round"/>
  <path d="M799.9 397.6 L797.7 400.5 L796.5 403.1 L794.2 410.0 L793.4 415.4 L795.6 414.9 L800.6 408.5 L801.7 406.0 L798.3 411.1 L794.2 418.8 L792.5 424.0 L794.4 422.5 L796.3 419.4 L794.7 419.5 L792.0 421.0" fill="none" stroke="rgb(46,194,126)" stroke-opacity="0.580" stroke-width="43" stroke-linecap="round" stroke-linejoin="round"/>
  <path d="M757.1 348.4 L757.0 347.1 L756.9 346.3 L757.0 345.6 L756.8 344.6 L756.4 344.0 L756.1 343.7 L755.7 343.0 L755.1 342.0 L754.6 341.0 L754.4 340.4 L754.4 339.6 L754.6 339.0 L754.8 337.5 L754.8 336.0 L754.7 335.5 L753.9 334.6 L753.2 334.9 L752.3 335.9 L750.6 338.1 L750.1 339.0" fill="none" stroke="rgb(53,132,228)" stroke-opacity="0.580" stroke-width="26" stroke-linecap="round" stroke-linejoin="round"/>
  <path d="M749.6 333.7 L748.8 334.6 L748.3 335.2" fill="none" stroke="rgb(53,132,228)" stroke-opacity="0.580" stroke-width="26" stroke-linecap="round" stroke-linejoin="round"/>
  <path d="M749.0 334.4 L748.6 337.5 L747.7 347.2 L748.6 350.4 L749.9 353.6 L749.8 357.7 L748.4 362.3 L747.4 365.8 L747.1 367.1 L747.4 368.3 L747.7 370.0 L747.2 373.5 L748.0 375.2 L750.1 375.9 L750.5 377.5 L747.7 382.8 L744.1 387.9 L744.1 390.0 L747.3 389.0 L749.6 387.6 L748.9 388.3 L747.6 390.2 L746.2 392.5 L744.6 395.3 L743.8 397.9" fill="none" stroke="rgb(53,132,228)" stroke-opacity="0.580" stroke-width="26" stroke-linecap="round" stroke-linejoin="round"/>
  <path d="M746.7 396.5 L745.9 397.0 L742.2 400.6 L738.6 404.7 L737.7 406.2" fill="none" stroke="rgb(53,132,228)" stroke-opacity="0.580" stroke-width="26" stroke-linecap="round" stroke-linejoin="round"/>
  <path d="M742.1 402.0 L740.8 403.7 L739.8 405.4 L737.7 409.0 L736.3 410.8 L735.3 411.5 L734.7 412.0 L733.2 413.7 L733.2 414.2 L734.1 413.8 L732.4 415.8 L731.0 417.3 L728.5 420.2 L725.3 424.3 L723.8 427.4 L723.9 428.5 L724.4 429.1 L722.7 432.6 L721.8 434.0 L720.8 435.6 L720.4 436.2 L719.2 437.8 L715.8 441.5 L713.6 443.8 L713.5 444.6 L715.0 443.8 L715.3 443.1 L714.6 443.2 L712.8 443.9 L711.7 444.0 L709.6 444.4 L708.6 445.0 L708.8 444.5 L708.9 443.9 L706.7 445.2 L703.2 447.4 L702.4 447.4 L701.9 447.1 L700.9 447.7 L700.5 448.2 L697.2 452.4 L695.0 455.2 L696.2 455.0 L698.9 452.7 L700.8 451.6 L701.2 453.4 L700.9 457.5 L700.2 461.6 L700.8 464.6 L703.2 464.1 L705.0 463.2 L705.8 462.9 L706.3 463.7 L706.5 466.2 L707.3 468.7 L710.7 468.2 L716.8 466.0 L716.5 468.9 L711.9 474.2 L708.7 478.1 L709.1 477.7 L708.3 477.7" fill="none" stroke="rgb(53,132,228)" stroke-opacity="0.580" stroke-width="26" stroke-linecap="round" stroke-linejoin="round"/>
  <path d="M746.5 391.6 L747.1 391.5 L747.3 392.2 L747.0 393.4 L746.0 396.3 L743.9 401.0 L743.4 402.9" fill="none" stroke="rgb(53,132,228)" stroke-opacity="0.580" stroke-width="26" stroke-linecap="round" stroke-linejoin="round"/>
  <path d="M740.9 410.7 L741.5 410.2 L742.2 409.3 L743.7 407.2 L746.8 401.9 L749.1 396.9 L751.1 390.1 L751.4 386.4 L751.4 385.7 L751.5 383.5 L752.0 381.4 L752.5 379.8 L753.1 375.9 L753.1 373.6 L753.0 371.6 L752.8 370.3 L752.6 368.7 L753.2 366.4 L753.6 364.9 L752.1 364.1 L750.5 364.0 L750.6 361.8 L752.1 357.7 L752.6 355.0 L752.8 352.0 L752.3 350.0 L751.3 349.1 L751.1 347.1 L751.9 344.6 L752.4 342.1 L752.3 340.5 L752.1 338.3 L752.3 336.5 L752.4 334.9 L752.3 333.5 L752.4 332.4 L753.0 331.0 L753.5 330.3 L753.6 329.6 L752.5 329.3 L750.6 328.8 L749.9 327.0 L749.9 325.2 L749.0 324.4 L748.3 324.3 L748.4 323.3 L747.4 322.1 L746.9 321.5 L746.5 320.7 L746.4 318.6 L745.7 317.2 L744.8 316.3 L744.8 315.7 L745.0 314.9 L745.3 313.7 L745.5 312.6 L745.9 311.2 L746.0 310.6 L745.5 310.4 L746.0 310.3 L746.1 311.1 L745.9 311.9 L745.2 313.2 L744.7 315.5 L744.0 319.7 L744.5 323.0 L746.9 325.3 L749.0 328.7 L749.4 333.2 L748.8 339.8 L748.7 345.5 L750.2 348.1 L752.3 350.5 L752.9 353.0 L752.7 356.8 L752.2 360.7 L751.2 364.7 L749.2 370.1 L748.6 373.5 L749.5 376.0 L749.2 379.1 L746.7 383.6 L742.2 390.4 L739.4 396.1 L739.1 398.7 L739.5 399.5 L738.2 401.9 L732.4 407.7 L727.0 413.0 L726.2 414.4 L726.8 414.8 L724.1 418.2 L718.2 424.7 L714.7 429.0 L712.5 432.4 L711.5 434.7 L707.1 440.8 L699.3 449.9 L696.4 455.5 L699.4 455.5 L706.3 453.2 L709.6 454.0 L708.9 457.8 L706.5 464.3 L706.3 468.5 L708.8 471.7 L711.1 475.4 L711.8 478.3" fill="none" stroke="rgb(53,132,228)" stroke-opacity="0.580" stroke-width="26" stroke-linecap="round" stroke-linejoin="round"/>
  <path d="M730.9 221.6 L731.0 222.2 L730.4 223.2 L729.3 224.5 L726.1 227.2 L721.4 229.1 L717.6 227.9 L717.0 224.2 L719.2 220.5 L722.2 219.9 L723.7 222.6 L723.1 230.5 L718.1 237.7 L713.4 240.3 L708.0 237.7 L706.1 233.2 L706.5 225.9 L707.6 223.3 L708.5 226.0 L706.4 235.9 L701.4 243.0 L694.5 247.5 L688.8 245.4 L686.9 240.4 L686.8 236.8 L687.1 237.5 L685.9 244.3 L679.8 251.5 L675.1 253.4" fill="none" stroke="rgb(53,132,228)" stroke-opacity="0.580" stroke-width="26" stroke-linecap="round" stroke-linejoin="round"/>
  <path d="M671.2 249.7 L669.0 252.4 L666.6 253.6 L663.3 253.8" fill="none" stroke="rgb(53,132,228)" stroke-opacity="0.580" stroke-width="26" stroke-linecap="round" stroke-linejoin="round"/>
  <path d="M659.1 244.8 L657.7 247.6 L654.9 249.7 L652.4 250.6" fill="none" stroke="rgb(53,132,228)" stroke-opacity="0.580" stroke-width="26" stroke-linecap="round" stroke-linejoin="round"/>
  <path d="M640.7 236.0 L639.8 239.3 L639.0 241.7 L636.3 246.7 L630.3 251.3 L625.5 251.0 L622.3 245.9 L623.0 238.7 L624.6 237.7 L625.1 243.1 L621.1 251.0 L614.8 255.3 L609.7 253.8 L608.0 247.7 L608.1 242.2 L607.6 249.7 L606.9 251.0 L603.6 253.6 L600.9 252.3 L600.2 245.0 L600.5 238.6 L598.5 237.4 L593.4 244.3 L589.6 249.1 L587.5 249.5" fill="none" stroke="rgb(53,132,228)" stroke-opacity="0.580" stroke-width="26" stroke-linecap="round" stroke-linejoin="round"/>
  <path d="M578.4 233.4 L577.1 233.4 L575.6 235.8 L570.9 243.2 L568.6 245.5 L567.2 242.7 L567.1 238.2 L567.5 234.3 L567.8 235.6 L567.5 243.1 L566.2 248.6 L565.7 250.6 L565.6 248.5 L565.1 242.9 L563.8 236.1 L563.5 234.7 L564.6 240.7 L563.8 247.6 L561.6 251.3 L558.6 249.7 L555.3 243.9 L552.2 238.1 L551.7 237.4" fill="none" stroke="rgb(53,132,228)" stroke-opacity="0.580" stroke-width="26" stroke-linecap="round" stroke-linejoin="round"/>
  <path d="M796.7 275.1 L796.3 273.8 L795.7 275.1 L795.4 276.8 L795.3 278.5 L796.5 280.6 L799.4 279.2 L800.2 278.5" fill="none" stroke="rgb(53,132,228)" stroke-opacity="0.580" stroke-width="26" stroke-linecap="round" stroke-linejoin="round"/>
  <path d="M814.3 272.1 L814.7 270.9 L814.1 272.8 L813.9 275.1 L814.6 276.1 L817.8 275.9 L823.9 272.0 L827.3 268.7 L827.9 267.9 L826.8 270.8 L827.3 273.7 L829.6 274.5 L831.6 272.5 L834.5 267.9 L836.4 264.4 L836.9 264.3 L837.5 267.5 L840.7 269.6 L845.3 268.1 L848.9 264.1 L851.7 258.5 L852.1 256.2 L851.3 258.4 L850.9 262.8 L852.2 264.0 L855.0 261.6 L857.7 257.9 L858.4 256.5 L858.4 258.8 L859.1 262.0 L862.7 262.7 L867.6 259.0 L871.1 255.0 L872.7 251.7 L872.4 252.6 L871.6 257.2 L873.0 258.9 L875.6 256.7 L878.3 253.1 L879.6 251.2 L878.9 253.8 L879.0 256.7 L882.3 257.1 L887.2 253.7 L890.6 250.0 L892.0 247.6 L891.3 251.3 L891.6 252.4 L892.9 253.1 L896.1 252.1 L897.8 249.6 L897.9 247.5 L897.8 246.0 L897.6 246.9 L897.0 251.2 L898.1 251.8 L899.2 249.7 L899.7 246.8 L899.4 246.3" fill="none" stroke="rgb(53,132,228)" stroke-opacity="0.580" stroke-width="26" stroke-linecap="round" stroke-linejoin="round"/>
  <path d="M788.7 257.0 L788.7 256.1 L787.7 256.1 L785.6 259.1 L782.3 264.9 L781.3 267.8 L782.7 267.3" fill="none" stroke="rgb(53,132,228)" stroke-opacity="0.580" stroke-width="26" stroke-linecap="round" stroke-linejoin="round"/>
  <path d="M785.2 263.5 L783.8 262.4 L783.0 263.9 L782.0 267.2 L782.0 273.1 L784.5 275.6 L787.4 273.7 L787.6 271.8 L785.0 273.2 L782.5 280.4 L783.3 285.0 L788.3 286.3 L790.1 285.5" fill="none" stroke="rgb(53,132,228)" stroke-opacity="0.580" stroke-width="26" stroke-linecap="round" stroke-linejoin="round"/>
  <path d="M740.1 219.0 L741.3 218.6 L744.1 217.6 L747.0 215.2 L748.5 212.4 L746.9 215.8 L747.0 217.9 L748.8 220.0 L755.6 217.5" fill="none" stroke="rgb(53,132,228)" stroke-opacity="0.580" stroke-width="26" stroke-linecap="round" stroke-linejoin="round"/>
  <path d="M761.8 209.6 L762.5 204.7 L762.5 205.6 L762.5 206.3 L763.6 209.0 L768.2 209.2" fill="none" stroke="rgb(53,132,228)" stroke-opacity="0.580" stroke-width="26" stroke-linecap="round" stroke-linejoin="round"/>
  <path d="M775.1 201.7 L775.6 200.0 L775.3 202.0 L776.7 203.3 L778.5 203.5 L783.5 201.7" fill="none" stroke="rgb(53,132,228)" stroke-opacity="0.580" stroke-width="26" stroke-linecap="round" stroke-linejoin="round"/>
  <path d="M784.5 198.7 L782.2 198.5" fill="none" stroke="rgb(53,132,228)" stroke-opacity="0.580" stroke-width="26" stroke-linecap="round" stroke-linejoin="round"/>
  <path d="M745.1 366.0 L743.5 366.2 L741.6 366.4 L740.3 366.4 L739.4 366.3 L738.5 366.2 L737.6 366.4 L737.0 367.0 L736.6 366.9 L736.7 365.0 L736.8 363.9 L736.7 363.3 L736.5 362.9 L736.8 361.9 L738.0 360.2 L739.2 359.2" fill="none" stroke="rgb(53,132,228)" stroke-opacity="0.580" stroke-width="26" stroke-linecap="round" stroke-linejoin="round"/>
  <path d="M817.8 181.2 L817.4 181.6 L817.5 182.6 L817.9 184.4 L818.2 185.9 L818.3 187.0 L818.7 189.4 L819.6 192.4 L820.6 194.7 L821.4 196.1 L822.5 197.9 L823.0 199.4 L823.9 201.3 L824.5 202.9 L825.5 205.0 L826.7 206.6 L827.4 207.5 L828.1 208.4 L828.1 206.9 L827.9 206.0 L827.0 204.6 L826.2 203.4" fill="none" stroke="rgb(255,120,0)" stroke-opacity="0.580" stroke-width="11" stroke-linecap="round" stroke-linejoin="round"/>
  <path d="M833.8 183.6 L833.8 184.3 L833.6 185.6 L833.4 187.1 L833.3 188.4 L833.2 192.5 L833.3 201.5 L833.2 203.2 L833.2 205.1 L833.1 206.9 L833.1 207.7 L832.8 207.2 L832.6 205.6 L832.5 204.5" fill="none" stroke="rgb(255,120,0)" stroke-opacity="0.580" stroke-width="11" stroke-linecap="round" stroke-linejoin="round"/>
  <path d="M822.9 187.1 L823.3 188.7 L823.5 190.7 L824.1 194.6 L824.7 199.7 L825.1 203.8 L825.3 204.5 L825.5 203.9 L826.6 198.2 L827.6 192.7 L828.0 190.8 L828.3 194.8 L828.9 201.8 L829.3 207.2 L829.4 208.4" fill="none" stroke="rgb(255,120,0)" stroke-opacity="0.580" stroke-width="11" stroke-linecap="round" stroke-linejoin="round"/>
  <path d="M817.4 201.2 L817.4 202.0 L817.8 202.8 L818.2 203.0 L818.9 203.7 L820.6 205.5 L822.2 207.1 L824.2 209.6 L825.5 211.1 L826.5 211.6 L827.3 210.8 L828.2 207.2 L829.3 202.7 L829.9 200.4 L829.4 203.5 L829.3 204.9 L829.5 207.1 L830.4 209.5 L831.8 210.8 L832.4 210.7 L832.9 208.5 L833.4 206.4 L833.4 207.4" fill="none" stroke="rgb(255,120,0)" stroke-opacity="0.580" stroke-width="11" stroke-linecap="round" stroke-linejoin="round"/>
  <path d="M843.4 205.1 L843.9 205.4 L844.3 206.3 L844.4 205.7" fill="none" stroke="rgb(255,120,0)" stroke-opacity="0.580" stroke-width="11" stroke-linecap="round" stroke-linejoin="round"/>
  <path d="M827.0 183.9 L827.3 182.9 L827.6 184.6 L827.8 186.1 L828.5 192.3 L829.5 200.7 L830.5 207.1 L830.8 207.7 L831.3 202.3 L831.6 196.1 L832.0 190.2 L832.1 189.6 L832.7 195.9 L833.1 205.1 L834.0 211.6 L834.5 213.6 L834.8 213.9" fill="none" stroke="rgb(255,120,0)" stroke-opacity="0.580" stroke-width="11" stroke-linecap="round" stroke-linejoin="round"/>
  <path d="M836.3 226.0 L837.0 229.0 L837.3 230.5 L837.6 232.3 L838.0 237.4 L838.6 242.5 L839.2 246.4 L839.5 247.6 L839.4 246.9 L838.6 243.5" fill="none" stroke="rgb(255,120,0)" stroke-opacity="0.580" stroke-width="11" stroke-linecap="round" stroke-linejoin="round"/>
  <path d="M838.0 238.1 L838.6 242.4 L839.4 247.6 L840.1 251.7 L842.0 260.0 L843.4 263.4 L844.5 263.6 L844.8 261.1" fill="none" stroke="rgb(255,120,0)" stroke-opacity="0.580" stroke-width="11" stroke-linecap="round" stroke-linejoin="round"/>
  <path d="M843.9 247.7 L844.0 249.4 L844.1 250.4 L844.8 255.4 L845.3 258.9 L845.3 259.5" fill="none" stroke="rgb(255,120,0)" stroke-opacity="0.580" stroke-width="11" stroke-linecap="round" stroke-linejoin="round"/>
  <path d="M849.2 173.0 L849.1 172.0 L849.2 171.3 L849.3 170.3 L849.9 168.6 L850.1 167.7 L850.3 167.1 L851.2 165.1 L852.1 163.4 L852.4 162.5 L852.4 163.5 L852.0 165.2 L851.9 165.8 L851.7 166.4 L851.7 167.1 L851.6 168.0 L851.6 168.7 L851.3 170.4 L850.1 175.2 L848.7 181.5 L847.7 188.4 L847.9 194.0 L849.4 197.5 L851.1 198.3 L852.4 196.3 L854.3 191.2 L856.3 184.3 L857.3 179.4 L855.2 183.7 L854.2 186.7 L852.6 192.4 L850.8 201.9 L850.7 206.9 L852.4 207.8 L855.0 203.9 L856.2 200.2 L855.8 198.7 L851.7 203.6 L848.9 208.3 L847.2 211.8 L848.9 207.8 L849.6 205.5 L850.2 202.5 L850.1 201.5 L847.0 206.7 L842.3 214.8 L839.4 218.6 L839.9 218.3" fill="none" stroke="rgb(255,120,0)" stroke-opacity="0.580" stroke-width="11" stroke-linecap="round" stroke-linejoin="round"/>
  <path d="M841.6 217.7 L843.2 215.1 L844.0 213.2 L844.1 212.5 L843.3 214.7 L843.9 215.2 L844.7 214.4 L845.1 213.8 L844.4 215.1 L843.9 216.0 L843.7 217.0 L843.8 218.1 L844.2 218.5" fill="none" stroke="rgb(255,120,0)" stroke-opacity="0.580" stroke-width="11" stroke-linecap="round" stroke-linejoin="round"/>
  <path d="M846.3 275.9 L846.0 276.5 L846.2 277.2 L848.6 277.9 L853.0 277.4 L856.2 277.3 L856.3 279.1 L854.8 282.1 L856.9 282.1 L861.2 280.5 L866.2 279.1 L866.1 281.4 L862.9 285.3 L861.6 287.8 L861.8 288.3 L864.8 286.9 L869.0 284.6" fill="none" stroke="rgb(255,120,0)" stroke-opacity="0.580" stroke-width="11" stroke-linecap="round" stroke-linejoin="round"/>
  <path d="M869.5 284.7 L863.1 289.7 L864.7 289.1" fill="none" stroke="rgb(255,120,0)" stroke-opacity="0.580" stroke-width="11" stroke-linecap="round" stroke-linejoin="round"/>
  <path d="M882.0 282.5 L881.0 284.1 L879.4 286.5 L878.9 288.0 L882.0 287.3 L885.6 285.8 L886.1 285.7 L885.4 286.2 L886.0 285.7 L887.0 284.9 L884.5 286.2 L882.2 287.6 L883.2 287.2 L884.8 286.4 L883.5 287.3 L879.4 289.7 L878.5 289.9 L879.7 288.2 L879.0 287.7 L873.5 289.4 L869.0 291.2 L870.2 289.8 L869.7 290.2 L867.9 291.6 L866.4 292.5 L862.8 293.7" fill="none" stroke="rgb(255,120,0)" stroke-opacity="0.580" stroke-width="11" stroke-linecap="round" stroke-linejoin="round"/>
  <path d="M856.3 294.6 L851.5 294.9 L850.9 294.9" fill="none" stroke="rgb(255,120,0)" stroke-opacity="0.580" stroke-width="11" stroke-linecap="round" stroke-linejoin="round"/>
  <path d="M846.8 294.7 L844.4 294.8 L842.3 295.3 L841.5 294.7 L841.7 293.7 L839.6 294.0 L836.4 294.6 L835.7 294.3" fill="none" stroke="rgb(255,120,0)" stroke-opacity="0.580" stroke-width="11" stroke-linecap="round" stroke-linejoin="round"/>
  <path d="M836.1 289.8 L831.6 292.4 L830.1 293.1 L828.5 293.8 L830.8 291.2 L836.2 286.9 L839.2 285.1" fill="none" stroke="rgb(255,120,0)" stroke-opacity="0.580" stroke-width="11" stroke-linecap="round" stroke-linejoin="round"/>
  <path d="M875.4 296.6 L876.3 295.5 L877.1 293.9 L877.5 292.9 L878.3 291.2 L878.9 289.9 L877.7 292.2 L876.9 294.7 L877.4 294.8 L879.1 294.1 L881.4 292.3 L881.9 292.0 L880.1 294.6 L878.8 297.1 L880.4 297.1 L883.0 296.1 L883.9 296.0 L882.5 298.5 L881.6 300.2 L882.9 300.2 L884.3 296.8 L883.0 294.9 L881.5 293.8 L877.8 293.7" fill="none" stroke="rgb(255,120,0)" stroke-opacity="0.580" stroke-width="11" stroke-linecap="round" stroke-linejoin="round"/>
  <path d="M834.6 195.3 L834.8 194.7 L834.6 194.1 L834.9 191.8 L835.0 191.0 L835.3 186.9 L834.9 181.8 L833.8 173.6 L832.1 165.6 L830.1 161.6 L827.6 162.5 L825.7 168.9 L825.3 180.7 L826.8 188.6 L829.4 194.8 L831.3 196.1 L832.4 192.3 L833.4 183.3 L835.1 171.4 L837.4 162.5 L838.4 160.5 L837.6 165.4 L834.3 178.7 L830.8 191.8 L830.1 197.5 L830.6 195.7 L832.4 184.6 L833.9 170.1" fill="none" stroke="rgb(255,120,0)" stroke-opacity="0.580" stroke-width="11" stroke-linecap="round" stroke-linejoin="round"/>
  <path d="M828.9 193.6 L829.7 199.3 L831.0 201.7 L833.3 203.9 L842.1 202.5 L855.0 193.1 L866.3 183.3 L870.5 180.0" fill="none" stroke="rgb(255,120,0)" stroke-opacity="0.580" stroke-width="11" stroke-linecap="round" stroke-linejoin="round"/>
  <path d="M863.4 187.8 L852.7 198.4 L856.1 197.4 L862.2 193.4 L866.8 190.5 L877.0 185.1 L879.7 184.9 L876.0 189.0 L873.6 191.3 L875.5 190.4 L881.0 185.6 L882.1 184.3 L874.0 189.4 L861.6 197.5 L853.6 201.4 L851.7 199.7 L854.9 192.4 L860.3 180.2 L861.9 173.1 L861.5 172.6" fill="none" stroke="rgb(255,120,0)" stroke-opacity="0.580" stroke-width="11" stroke-linecap="round" stroke-linejoin="round"/>
  <path d="M854.1 176.5 L840.8 187.3 L849.0 178.6 L856.8 167.9 L859.6 163.9" fill="none" stroke="rgb(255,120,0)" stroke-opacity="0.580" stroke-width="11" stroke-linecap="round" stroke-linejoin="round"/>
  <path d="M845.5 177.4 L835.7 185.2 L834.7 185.8 L835.2 184.7 L838.6 178.8 L845.2 167.2 L848.1 162.6 L847.5 164.3 L842.6 171.6 L835.1 182.0 L831.9 186.7 L832.8 184.8 L835.4 176.8 L835.4 169.6 L832.8 167.2" fill="none" stroke="rgb(255,120,0)" stroke-opacity="0.580" stroke-width="11" stroke-linecap="round" stroke-linejoin="round"/>
  <path d="M810.8 176.4 L807.9 177.6 L808.4 177.3" fill="none" stroke="rgb(255,120,0)" stroke-opacity="0.580" stroke-width="11" stroke-linecap="round" stroke-linejoin="round"/>
  <path d="M867.5 284.9 L868.0 284.7 L869.5 284.6 L870.0 284.6 L870.9 284.6 L872.7 284.5 L874.8 284.1 L876.4 283.9 L877.6 283.7 L879.0 283.5 L880.0 283.4 L881.4 283.6 L883.1 284.0 L885.2 284.1 L887.4 284.1 L888.8 284.6 L889.7 284.9 L890.5 285.6 L891.1 286.5 L891.6 287.4 L892.3 288.8 L892.9 290.3 L893.1 292.5 L893.6 294.6 L893.8 296.9 L893.8 298.9 L893.7 300.6 L893.6 302.1 L893.6 302.9 L893.7 303.8 L893.8 304.4 L893.8 304.0 L893.6 302.6" fill="none" stroke="rgb(255,120,0)" stroke-opacity="0.000" stroke-width="11" stroke-linecap="round" stroke-linejoin="round"/>
  <path d="M888.9 293.2 L888.8 292.7 L888.7 291.9 L889.0 291.4 L890.8 292.3 L892.1 293.2 L893.0 294.0 L894.6 295.7 L895.3 296.8 L895.5 297.6 L895.5 298.1 L895.4 298.8 L895.4 299.4 L895.3 300.2 L894.5 300.1" fill="none" stroke="rgb(255,120,0)" stroke-opacity="0.000" stroke-width="11" stroke-linecap="round" stroke-linejoin="round"/>
  <path d="M875.3 289.1 L876.4 286.7 L876.9 286.6 L878.0 286.6 L879.1 286.9 L883.0 287.2 L886.7 287.5 L888.4 288.3 L888.4 289.7 L887.6 292.1 L887.8 293.3 L889.4 293.1 L890.5 292.4 L891.4 292.0 L890.5 295.5 L890.4 296.1 L890.7 297.7 L894.1 297.5 L897.9 296.6 L899.7 296.2 L898.5 298.3 L895.3 302.3 L894.7 303.4 L896.5 302.6 L898.3 301.2 L897.7 302.5 L897.1 303.6 L896.6 304.9 L898.4 304.6 L902.6 302.1 L904.3 301.0 L902.6 302.3 L898.6 305.3 L901.6 302.1 L902.3 301.3 L899.5 301.7" fill="none" stroke="rgb(255,120,0)" stroke-opacity="0.000" stroke-width="11" stroke-linecap="round" stroke-linejoin="round"/>
  <path d="M868.7 300.4 L869.1 300.2 L869.4 299.7 L870.1 299.4 L873.0 297.6 L873.6 297.1 L872.2 298.2 L871.5 298.9 L871.1 299.4" fill="none" stroke="rgb(255,120,0)" stroke-opacity="0.340" stroke-width="11" stroke-linecap="round" stroke-linejoin="round"/>
  <path d="M879.7 287.5 L878.5 287.5 L877.9 287.3 L876.6 286.7 L875.5 286.3 L874.2 286.4 L873.7 286.5 L873.1 286.5 L872.4 286.7 L872.0 286.6 L873.0 286.3 L873.6 286.2 L876.4 285.4 L880.0 284.9 L881.4 285.7 L882.4 287.3 L883.0 288.9 L884.9 289.6 L887.8 289.4 L889.6 289.1 L890.4 288.9 L890.3 289.6 L889.8 291.3 L890.2 293.2 L891.1 294.2 L891.4 294.4" fill="none" stroke="rgb(255,120,0)" stroke-opacity="0.340" stroke-width="11" stroke-linecap="round" stroke-linejoin="round"/>
  <path d="M901.0 296.1 L901.8 295.1 L903.5 293.1 L904.3 292.1 L904.7 291.7 L903.9 295.9 L903.8 296.7 L904.1 298.9 L905.1 299.0 L907.4 296.3 L909.0 294.8 L907.7 297.1 L906.9 298.7" fill="none" stroke="rgb(255,120,0)" stroke-opacity="1.000" stroke-width="11" stroke-linecap="round" stroke-linejoin="round"/>
  <path d="M860.8 288.7 L861.1 289.0 L861.7 288.8 L863.5 288.3 L867.3 287.4 L871.0 286.6 L873.1 286.5 L875.0 286.8 L877.3 287.0 L879.6 286.7 L882.1 286.3 L884.2 286.4 L886.5 286.7 L888.8 286.8 L890.2 287.4 L890.7 288.4 L891.9 289.4 L894.0 289.8 L896.3 290.0 L898.2 290.2 L899.3 291.0 L900.4 291.8 L902.5 292.2 L905.3 292.0 L907.6 291.9 L909.2 292.4 L909.1 293.8 L909.2 294.7 L910.2 295.5 L910.9 295.7 L911.1 296.0 L909.2 298.0 L907.1 300.1 L907.0 300.6 L907.5 300.6 L906.9 301.6 L906.5 302.5 L906.1 302.9" fill="none" stroke="rgb(255,120,0)" stroke-opacity="1.000" stroke-width="11" stroke-linecap="round" stroke-linejoin="round"/>
  <path d="M912.4 305.3 L912.8 305.4 L913.0 305.7 L913.3 305.9 L912.4 308.2 L908.8 312.0 L906.5 314.4 L905.4 315.9 L905.2 317.4 L907.8 314.7 L911.3 309.8 L913.9 306.3 L914.0 305.8 L910.5 309.6 L907.5 313.0 L911.3 309.2 L913.0 306.8 L913.3 306.1 L911.6 307.0 L906.9 312.0 L904.8 314.2 L907.5 311.0 L911.0 306.3 L911.7 304.8 L906.2 310.3 L906.4 310.9 L906.5 311.3 L906.0 312.7 L901.2 318.2 L894.6 325.2 L895.8 325.3 L902.6 321.8 L898.2 325.9 L896.8 327.2 L896.1 328.4 L896.3 329.8 L895.0 332.4 L892.7 334.9 L893.1 335.5 L897.5 333.8 L899.2 333.6 L896.0 336.8 L893.9 338.5 L895.0 338.6 L895.5 339.1 L892.7 342.4 L891.4 344.7 L892.9 344.5 L890.0 347.2 L884.2 352.2 L884.3 353.4 L888.9 352.2 L888.3 354.5 L882.2 361.0 L880.2 364.2 L883.7 364.0 L884.8 364.5 L879.8 369.9 L875.6 374.7 L880.0 373.5 L887.0 370.6 L884.9 374.1 L878.6 380.7 L875.9 385.3 L879.1 383.9 L877.2 385.6 L870.6 390.2 L873.4 387.6 L881.5 382.0 L884.7 380.9 L876.2 388.9 L866.8 397.5 L864.2 400.2 L864.3 400.6 L860.3 403.7 L853.6 408.2 L855.1 406.6 L863.7 400.2 L861.8 401.6 L846.9 412.6 L837.9 418.9 L841.4 414.0 L848.0 407.0 L844.0 408.3 L833.2 414.1 L831.3 413.4 L833.9 410.9 L839.4 406.0 L819.2 418.8 L821.1 416.5 L824.1 413.5 L830.5 407.5 L831.5 406.0 L824.9 410.4 L821.6 412.4 L823.1 411.4 L825.3 410.1 L826.3 410.0 L828.9 410.3 L830.3 411.6 L829.9 414.0 L823.6 420.6 L818.1 425.7 L820.5 423.6 L823.1 421.3 L817.0 426.1 L807.0 434.3 L803.4 436.8 L805.7 435.0 L799.4 439.8 L797.6 440.8 L796.9 441.0 L800.7 436.8 L800.9 435.7 L793.0 441.3 L785.7 445.9 L785.2 445.3 L789.6 439.7 L789.4 437.0 L783.6 440.3 L776.0 443.9 L776.1 441.1 L780.3 436.5 L780.9 435.5 L772.5 442.8 L768.3 446.9 L773.2 444.1 L778.8 440.8 L777.9 443.5 L777.0 444.7 L781.6 441.4" fill="none" stroke="rgb(255,120,0)" stroke-opacity="1.000" stroke-width="11" stroke-linecap="round" stroke-linejoin="round"/>
  <path d="M878.6 276.8 L879.0 276.8 L880.6 275.7 L881.1 275.3" fill="none" stroke="rgb(255,120,0)" stroke-opacity="1.000" stroke-width="11" stroke-linecap="round" stroke-linejoin="round"/>
  <path d="M897.1 268.8 L892.4 273.1 L885.6 279.6 L886.7 280.7 L896.2 276.2 L902.8 273.9 L901.9 276.0 L900.1 277.9 L899.6 279.1 L902.4 277.1 L902.9 276.7 L904.1 276.7 L906.1 276.0 L910.0 274.4 L914.0 273.3 L911.1 276.2 L906.8 279.9 L908.8 279.4 L911.7 277.9" fill="none" stroke="rgb(255,120,0)" stroke-opacity="1.000" stroke-width="11" stroke-linecap="round" stroke-linejoin="round"/>
  <path d="M916.2 275.8 L910.8 279.7 L912.9 279.2 L915.5 278.1 L919.4 276.4 L920.3 276.6 L916.8 279.6 L916.1 280.8 L921.4 278.5 L928.1 275.4 L928.9 275.8 L927.3 277.5 L928.8 277.6 L933.5 276.4 L933.9 277.4 L929.8 282.0 L929.2 284.5 L935.5 282.5 L939.4 282.1 L935.4 287.0 L930.3 293.1 L929.6 296.3 L931.0 297.7 L931.2 299.4 L928.9 302.7 L928.7 305.1 L932.9 304.8 L934.4 306.0 L931.1 311.2 L928.8 315.5 L929.4 317.5 L930.0 319.3 L931.7 320.4 L934.5 321.0 L933.4 324.3 L929.8 329.8 L929.0 333.7 L929.5 336.9 L927.1 341.6 L922.2 347.3 L921.4 350.2 L926.1 349.4 L928.0 350.7 L921.9 357.5 L916.4 364.3 L917.3 366.3 L918.8 367.4 L914.6 372.1 L911.4 376.1 L914.1 376.3 L915.8 376.9 L914.9 379.1 L911.8 383.9 L908.1 389.1 L908.4 391.4 L912.5 390.8 L912.0 393.0 L906.5 399.0 L904.2 402.4 L905.0 403.5 L904.5 405.3 L902.3 408.5 L901.4 411.0 L904.0 411.4 L909.2 410.7 L908.7 413.3 L900.4 421.1 L894.6 426.6 L895.0 426.5 L896.7 425.3 L893.4 428.2 L889.0 431.8 L891.0 431.3 L896.0 429.0 L896.7 430.1 L894.7 433.8 L893.1 437.4 L890.8 440.4 L887.1 443.5 L885.3 444.9 L886.0 444.7" fill="none" stroke="rgb(255,120,0)" stroke-opacity="1.000" stroke-width="11" stroke-linecap="round" stroke-linejoin="round"/>
  <path d="M892.8 442.1 L888.7 448.4 L888.3 450.5 L889.1 451.0 L894.3 449.5 L895.7 450.3 L894.9 451.9 L896.0 452.2 L900.3 450.1 L901.5 449.9 L898.0 453.0 L896.9 454.0 L899.7 452.1 L901.6 450.7" fill="none" stroke="rgb(255,120,0)" stroke-opacity="1.000" stroke-width="11" stroke-linecap="round" stroke-linejoin="round"/>
  <path d="M635.6 333.9 L634.6 334.0 L633.3 334.8 L631.6 336.2 L629.8 337.5 L622.9 341.7 L614.0 346.3 L610.4 346.9 L610.8 345.3" fill="none" stroke="rgb(255,120,0)" stroke-opacity="1.000" stroke-width="11" stroke-linecap="round" stroke-linejoin="round"/>
  <path d="M612.6 342.6 L600.5 348.5 L598.7 349.1 L598.5 348.2 L598.5 346.4 L593.3 348.3 L583.3 353.5 L575.6 356.6 L573.4 356.5 L571.7 355.7 L566.6 357.3 L561.4 359.4 L562.6 357.5 L561.7 357.8 L560.0 358.7 L556.5 360.6 L555.2 361.1 L551.8 361.3 L550.1 361.8 L547.7 362.4 L546.2 361.9 L544.0 361.6 L539.9 362.0 L536.5 362.7 L534.8 362.3 L533.2 361.3 L531.1 359.5 L527.4 357.3 L521.0 354.3 L512.4 348.8 L505.4 342.4 L499.5 335.3 L494.5 327.5 L487.8 321.7 L479.5 316.7 L474.2 309.9 L474.2 299.4 L476.0 289.5 L470.7 285.8 L461.5 285.9 L456.7 283.6 L456.4 277.9 L455.5 273.3 L449.8 271.7 L445.2 271.2 L442.1 271.3 L438.0 272.1 L431.6 275.5 L426.1 279.6 L422.6 285.2 L421.0 290.7 L416.5 301.3 L415.3 313.7 L420.1 319.9 L421.1 326.1 L415.4 336.8 L406.9 349.0 L398.6 360.6 L389.0 373.0 L378.1 385.5 L366.8 397.4 L356.8 407.1 L352.9 411.9 L349.3 415.8 L340.0 423.9 L328.7 434.7 L324.4 440.3 L324.2 441.3 L323.7 444.0 L316.3 451.6 L309.6 459.7 L302.7 466.9 L294.9 473.5 L290.5 477.1 L288.7 478.6 L284.5 481.6 L275.4 487.5 L266.6 491.8 L260.2 493.7 L254.4 494.0 L251.0 493.7 L245.9 495.5 L241.6 499.1 L244.1 499.5 L251.1 496.2 L252.2 495.8 L248.6 501.1 L244.9 505.4 L243.8 506.3 L242.7 507.4 L242.0 508.1 L241.2 508.8" fill="none" stroke="rgb(255,120,0)" stroke-opacity="1.000" stroke-width="11" stroke-linecap="round" stroke-linejoin="round"/>
  <path d="M464.0 425.2 L463.1 425.4 L456.5 430.8 L455.5 431.6 L452.5 433.6 L451.7 434.1 L447.2 436.9 L446.1 437.5 L442.4 440.0 L440.2 441.6 L437.9 443.1" fill="none" stroke="rgb(255,120,0)" stroke-opacity="1.000" stroke-width="11" stroke-linecap="round" stroke-linejoin="round"/>
  <path d="M907.1 330.3 L904.8 331.6 L903.6 333.4 L905.9 332.0 L907.1 331.1" fill="none" stroke="rgb(246,211,45)" stroke-opacity="0.270" stroke-width="11" stroke-linecap="round" stroke-linejoin="round"/>
  <path d="M906.9 331.5 L905.0 333.1 L903.4 334.8" fill="none" stroke="rgb(246,211,45)" stroke-opacity="0.270" stroke-width="11" stroke-linecap="round" stroke-linejoin="round"/>
  <path d="M908.6 328.1 L909.2 326.9 L909.3 326.4 L907.0 328.2 L905.7 329.5 L908.5 327.4 L912.7 323.2 L913.5 322.1 L910.2 325.0 L907.8 327.2 L909.2 326.3 L912.2 323.4 L912.7 322.4 L909.1 325.4 L908.5 326.1 L910.0 324.9 L912.5 321.7 L912.5 321.1 L909.0 324.2 L906.9 326.4 L909.4 324.3 L914.4 318.9 L917.9 314.6 L917.6 314.1 L915.2 315.4 L919.0 311.2 L920.1 309.6 L919.8 309.4 L922.0 307.6 L923.6 306.1 L925.5 304.2 L926.3 303.0 L923.7 304.2 L921.2 305.8 L922.6 304.8 L926.2 301.6 L927.2 300.4 L924.9 301.1 L922.2 302.8 L924.2 301.5 L928.6 297.9 L928.1 297.6 L924.5 299.0 L923.7 299.0 L926.4 296.2 L926.5 294.9 L922.3 295.8 L920.2 296.1 L922.4 293.6 L925.2 290.9 L924.8 290.5 L921.6 292.5 L920.7 293.3 L923.0 291.4 L923.4 290.6 L920.1 291.7 L917.8 292.7 L919.4 291.1 L921.5 289.1 L920.8 289.0 L916.8 290.6 L916.1 290.4 L919.0 287.9 L917.6 288.2 L911.4 291.3 L909.7 291.9 L914.4 288.1 L918.2 284.9 L913.0 287.4 L909.1 289.3 L910.4 288.5 L911.5 287.4 L906.5 289.6 L902.4 291.5 L904.4 289.5 L911.2 285.0 L908.4 286.4 L902.9 289.7 L902.4 290.1" fill="none" stroke="rgb(246,211,45)" stroke-opacity="0.270" stroke-width="11" stroke-linecap="round" stroke-linejoin="round"/>
  <path d="M910.8 340.6 L908.1 343.1 L906.0 345.0 L909.2 341.8 L915.3 336.5 L917.3 334.8 L912.5 337.8 L910.4 339.0 L916.4 334.2 L925.0 328.0 L924.4 328.6 L914.9 335.2 L911.5 337.3 L918.9 331.9 L926.7 326.4 L926.6 325.8 L928.5 323.5 L929.9 322.0 L922.4 325.6 L916.1 328.6 L916.2 327.8 L920.8 323.1 L921.2 321.8 L916.3 323.8 L912.8 325.2 L915.2 322.9 L918.4 320.6 L917.7 320.8 L913.3 323.4 L916.0 320.7 L916.6 320.3 L915.9 320.7 L911.2 324.0 L909.6 325.3 L913.7 323.1 L918.9 320.9 L916.7 325.3 L910.2 333.1 L907.6 338.6 L909.1 340.7 L910.3 342.1 L906.5 346.9 L901.2 352.4 L904.0 351.6 L911.6 348.2 L909.8 351.0 L902.2 357.9 L897.4 362.4 L898.1 363.3 L900.0 363.4 L895.1 368.2 L889.1 373.6 L889.6 374.5 L893.3 373.2 L893.9 374.2 L890.5 378.0 L888.6 380.0 L890.6 379.7 L892.6 378.8 L890.7 379.7 L888.0 380.5 L892.7 375.3 L903.6 365.5 L907.3 362.4 L898.3 367.2 L891.5 370.1 L892.3 368.1" fill="none" stroke="rgb(246,211,45)" stroke-opacity="0.270" stroke-width="11" stroke-linecap="round" stroke-linejoin="round"/>
  <path d="M907.2 352.7 L907.8 351.8 L906.9 352.0 L899.3 356.3 L889.5 361.7 L893.7 359.4 L901.6 357.4 L900.7 362.1 L894.4 372.7 L893.4 378.6 L896.8 379.3 L898.4 380.7 L897.6 382.8 L897.2 384.5 L897.7 385.7 L897.2 388.2 L895.3 392.1 L894.2 395.0 L896.0 396.0 L895.0 398.2 L888.6 402.8 L886.3 404.2 L888.3 402.8" fill="none" stroke="rgb(246,211,45)" stroke-opacity="0.270" stroke-width="11" stroke-linecap="round" stroke-linejoin="round"/>
  <path d="M893.9 400.6 L880.6 415.1 L882.5 414.8 L886.1 413.3 L889.7 411.9 L890.2 412.0 L890.2 412.6 L887.0 416.4 L880.5 422.2 L875.6 426.8 L877.8 426.8 L884.5 423.3 L879.1 427.1 L865.7 435.6 L857.1 438.1 L859.2 432.4 L863.2 426.9 L858.2 428.4 L849.7 432.2 L850.1 430.3 L858.8 423.0 L857.3 423.3 L848.0 428.6 L844.9 428.2 L850.9 421.8 L849.6 421.0 L838.2 427.8 L830.0 432.6 L830.3 432.0 L831.6 431.2 L827.0 435.0 L823.4 437.7 L825.9 436.3 L827.0 435.9 L819.2 441.5 L808.4 448.3 L807.5 448.1 L810.4 445.2 L809.7 445.9 L807.3 448.8 L807.5 450.7 L813.3 449.2 L821.4 446.5 L818.3 451.7 L802.2 463.0 L789.8 469.3 L789.4 466.0 L797.4 456.1 L799.1 454.4 L789.3 462.2 L781.6 468.4 L783.7 467.6 L792.7 461.9 L793.4 462.9 L785.0 469.6 L781.6 471.9 L789.1 468.2 L797.7 465.3 L801.8 467.3 L802.6 472.8 L807.6 473.9 L815.7 471.4 L816.3 472.9 L809.3 478.7 L809.0 479.4 L820.0 472.8 L824.6 471.4 L824.2 474.3 L826.5 475.1 L832.7 472.4 L831.7 473.6 L837.0 470.5 L837.9 469.9 L839.8 468.8 L838.6 470.2 L838.5 471.1 L846.1 466.8 L851.3 463.9 L843.4 470.3 L837.7 474.7" fill="none" stroke="rgb(246,211,45)" stroke-opacity="0.270" stroke-width="11" stroke-linecap="round" stroke-linejoin="round"/>
  <path d="M845.7 443.5 L849.0 440.0 L855.1 438.1 L861.7 435.0 L871.7 431.5 L872.8 433.7 L862.5 443.9 L857.1 448.9 L861.3 446.9 L868.7 443.1 L866.3 446.3 L862.5 450.7 L864.1 451.6 L869.0 450.4 L867.9 453.2 L862.6 459.2 L863.3 459.7 L872.8 452.5 L878.0 449.1 L872.2 454.2 L867.3 458.3 L870.2 456.0 L878.6 449.2 L880.1 448.0" fill="none" stroke="rgb(246,211,45)" stroke-opacity="0.270" stroke-width="11" stroke-linecap="round" stroke-linejoin="round"/>
  <path d="M884.9 423.4 L886.7 420.4" fill="none" stroke="rgb(246,211,45)" stroke-opacity="0.270" stroke-width="11" stroke-linecap="round" stroke-linejoin="round"/>
  <path d="M898.3 391.3 L900.4 388.3 L901.4 387.3 L904.7 384.0 L906.7 381.7 L905.0 381.5 L907.0 378.8 L912.8 374.0 L912.9 373.2 L904.5 377.4 L901.7 378.8" fill="none" stroke="rgb(246,211,45)" stroke-opacity="0.270" stroke-width="11" stroke-linecap="round" stroke-linejoin="round"/>
  <path d="M749.1 447.4 L747.8 449.0 L744.5 452.2 L744.2 452.7 L745.0 451.6 L749.6 447.2 L751.4 445.9 L744.0 451.6 L736.6 456.9 L741.9 451.2 L752.5 442.6 L754.6 441.1 L746.9 446.5 L746.0 446.3 L752.2 439.7 L754.3 436.3 L750.9 436.9 L752.4 434.6 L758.3 430.0 L761.2 428.1 L762.5 426.6 L763.1 426.0 L764.5 424.6 L756.5 429.6 L753.7 430.7 L761.4 423.3 L771.6 413.1 L769.9 413.2 L759.8 419.2 L758.7 418.2 L764.2 411.5 L765.4 409.1 L762.5 410.0 L765.2 406.8 L772.0 400.9 L771.4 400.2 L767.3 401.8 L770.2 397.8 L775.1 391.8 L775.0 390.0 L772.2 390.2 L773.5 386.6 L779.1 379.5 L783.4 374.3 L781.7 372.9 L780.1 372.1 L779.2 370.7 L776.2 370.8 L776.8 368.7 L781.6 363.4 L783.3 360.4 L777.2 361.6 L774.8 361.4 L779.0 356.4 L781.7 353.0 L774.9 355.3 L771.3 356.5 L774.2 352.0 L781.0 345.0 L781.7 343.1 L780.0 343.1 L779.6 342.4 L784.5 337.0 L787.4 334.0 L786.1 333.1 L779.5 335.7 L776.8 336.3 L778.7 333.1 L781.3 329.4 L780.2 328.6 L777.8 328.5 L779.1 325.9 L779.9 323.6 L777.9 322.4 L776.3 321.8 L776.5 320.2 L778.3 317.9" fill="none" stroke="rgb(246,211,45)" stroke-opacity="0.270" stroke-width="11" stroke-linecap="round" stroke-linejoin="round"/>
  <path d="M463.0 435.4 L460.0 435.4 L463.0 431.6" fill="none" stroke="rgb(246,211,45)" stroke-opacity="0.270" stroke-width="11" stroke-linecap="round" stroke-linejoin="round"/>
  <path d="M480.3 425.2 L475.1 431.1 L474.0 432.5 L468.5 440.6 L472.8 442.7 L486.0 438.2 L490.6 439.9 L476.2 456.3 L472.2 463.0 L484.9 457.1 L497.1 452.1 L492.3 459.1 L486.9 465.7 L495.1 463.5 L504.8 460.3 L503.9 467.5 L506.5 471.1 L527.9 461.1 L543.0 453.4 L541.0 458.6 L531.0 469.0 L536.2 466.5 L552.0 453.9 L556.4 451.0 L545.5 461.1 L543.7 463.2 L554.4 456.4 L559.8 454.2 L552.8 461.7 L538.0 477.0 L539.6 475.8 L547.5 467.9 L550.7 463.3 L548.0 464.9 L546.3 466.3 L542.7 469.2 L534.6 475.6 L530.5 478.5 L529.8 478.8 L525.5 483.8 L523.0 486.4 L518.2 490.7 L524.6 485.5 L525.3 484.9 L526.3 484.0 L527.1 483.7 L528.4 483.5 L531.5 480.7 L535.4 477.7 L537.0 476.7" fill="none" stroke="rgb(246,211,45)" stroke-opacity="0.270" stroke-width="11" stroke-linecap="round" stroke-linejoin="round"/>
  <path d="M568.4 474.5 L567.1 477.1 L563.8 482.4 L577.4 472.8 L586.3 467.3 L577.4 474.6 L552.0 495.0 L549.0 497.7 L566.3 483.8 L579.8 473.6 L576.1 479.5 L570.6 485.9 L581.8 480.3 L596.6 470.4 L593.5 475.6 L581.9 488.1 L583.2 491.1 L596.5 482.8 L605.1 478.1 L603.8 481.4 L607.1 482.3 L619.7 476.1 L625.2 474.9 L619.9 482.7 L616.5 487.5" fill="none" stroke="rgb(246,211,45)" stroke-opacity="0.270" stroke-width="11" stroke-linecap="round" stroke-linejoin="round"/>
  <path d="M668.6 461.1 L669.9 462.3 L662.3 472.7 L660.7 476.5 L666.9 473.7 L673.7 469.8 L670.8 473.3 L664.6 479.3 L669.3 477.2 L675.4 474.1 L674.1 478.5 L673.2 482.1 L680.3 478.7 L686.8 475.3 L680.1 481.8 L672.3 489.0" fill="none" stroke="rgb(246,211,45)" stroke-opacity="0.270" stroke-width="11" stroke-linecap="round" stroke-linejoin="round"/>
  <path d="M408.7 480.5 L407.8 480.2 L404.3 481.7 L400.6 483.9 L396.0 486.8 L390.0 490.6 L388.7 491.4 L392.0 489.5 L400.2 484.2 L403.3 483.1 L396.9 490.5 L392.3 496.3 L398.7 494.3 L404.3 491.9 L401.8 498.7 L398.4 505.8 L407.7 504.0 L425.0 496.6 L424.1 502.4 L410.3 521.0 L407.9 528.8 L426.4 521.5 L442.8 513.7 L444.2 518.5 L439.3 528.8 L443.0 529.8 L458.2 520.2 L462.4 518.4 L453.9 528.7 L451.4 532.9 L461.3 527.2 L468.4 523.7" fill="none" stroke="rgb(246,211,45)" stroke-opacity="0.270" stroke-width="11" stroke-linecap="round" stroke-linejoin="round"/>
  <path d="M298.7 544.5 L295.5 547.5 L289.1 552.8 L284.7 555.9 L289.4 552.4 L303.4 541.4 L308.1 539.2 L300.6 548.9 L293.7 556.7 L299.1 553.5 L308.0 547.7 L305.9 551.1 L298.5 561.9 L302.1 562.3 L317.6 553.0 L331.7 547.1 L336.8 553.4 L335.0 569.1 L346.5 570.6 L371.5 560.5 L387.6 558.9 L384.3 571.5 L379.9 585.1 L393.2 583.7 L414.6 573.1 L417.1 577.1 L413.3 587.9 L423.7 588.5 L445.4 578.4 L453.7 577.9 L449.1 590.9 L454.5 594.7 L473.6 585.0 L497.8 574.0 L503.5 577.1 L506.7 583.9 L518.9 580.8 L536.8 571.5 L537.3 576.2 L516.8 597.8 L518.5 600.6 L538.8 586.4 L569.4 568.0 L578.6 567.8 L572.5 578.6 L575.9 580.8 L599.3 564.7 L610.8 558.5 L600.5 572.4 L596.5 579.0 L616.4 564.0 L638.2 546.9 L639.1 547.5 L629.2 557.8 L638.0 550.7 L661.5 531.7 L665.8 529.3 L654.2 540.3 L654.3 541.4 L673.4 526.6 L687.1 517.4 L685.3 520.7 L680.4 526.3 L683.5 525.2 L687.6 522.3 L684.3 525.1 L679.6 529.7 L687.8 524.5 L700.3 515.9 L695.0 521.7 L689.9 528.2 L700.0 520.9 L713.1 510.1 L707.0 515.3 L700.4 521.0 L707.1 515.7" fill="none" stroke="rgb(246,211,45)" stroke-opacity="0.270" stroke-width="11" stroke-linecap="round" stroke-linejoin="round"/>
  <path d="M590.5 403.2 L593.1 404.9 L594.9 405.1 L596.2 405.0 L608.8 403.4 L616.4 400.9 L621.0 399.3 L640.2 392.6 L661.6 385.3 L691.3 374.8 L722.5 363.6 L751.3 353.4 L776.0 344.7 L792.8 338.6 L807.8 332.9 L820.0 328.2 L828.2 325.3 L835.7 323.2 L838.3 322.9 L838.6 323.2 L836.6 320.4" fill="none" stroke="rgb(246,211,45)" stroke-opacity="0.270" stroke-width="11" stroke-linecap="round" stroke-linejoin="round"/>
  <path d="M934.4 302.8 L1090.2 261.3 L1114.9 127.8 L949.4 143.2 Z" fill="none" stroke="rgb(26,26,46)" stroke-opacity="1.000" stroke-width="8" stroke-linecap="round" stroke-linejoin="round"/>
</svg>