<?xml version="1.0" encoding="UTF-8"?>
<svg width="1366" height="717" viewBox="0 0 1366 717" xmlns="http://www.w3.org/2000/svg">
  <rect width="1366" height="717" fill="#f8f6f1"/>
  <!-- capa: Capa 1 -->
  <path d="M640.6 227.0 L641.0 226.8 L641.3 226.8 L642.0 226.8 L642.7 226.7 L643.5 226.3 L645.4 225.6 L649.1 224.4 L652.5 223.2 L656.4 221.8 L662.1 219.1 L666.3 217.0 L670.5 214.6 L675.6 211.1 L679.3 208.3 L682.9 205.1 L688.2 201.3 L692.0 197.8 L695.6 194.0 L700.3 189.5 L703.5 186.0 L706.7 182.7 L710.9 178.1 L714.0 174.8 L717.7 171.6 L722.2 166.4 L724.9 163.1 L727.6 160.0 L731.1 156.0 L733.4 153.3 L735.6 150.7 L738.4 147.1 L740.6 144.4 L742.7 141.8 L745.3 138.4 L746.8 135.9 L747.9 133.3 L749.3 130.4 L750.1 128.5 L750.7 127.0 L751.2 125.6 L751.5 124.8 L751.7 124.2 L751.4 125.3 L751.2 127.1 L750.7 129.8 L750.1 132.6 L749.8 133.7 L749.1 137.1 L748.3 140.3 L747.3 143.4 L746.2 148.4 L745.4 152.6 L744.6 158.8 L743.8 163.5 L743.1 170.5 L742.9 175.9 L742.9 181.6 L743.0 188.6 L743.3 194.2 L743.8 201.7 L744.7 207.3 L745.7 213.3 L747.2 221.7 L748.6 228.6 L750.1 235.4 L752.1 244.8 L753.7 251.7 L755.5 258.7 L758.0 267.5 L759.8 274.1 L762.0 281.5 L763.6 286.8 L765.9 293.3 L767.7 297.7 L769.6 301.8 L772.3 306.9 L774.4 310.2 L777.2 313.8 L779.2 316.2 L781.5 318.5 L782.8 319.5 L783.6 320.1 L784.2 320.4 L783.8 319.6" fill="none" stroke="rgb(255,120,0)" stroke-opacity="1.000" stroke-width="8" stroke-linecap="round" stroke-linejoin="round"/>
  <path d="M769.3 292.9 L770.0 293.8 L773.0 295.5 L775.9 296.1 L777.2 296.2 L782.0 295.8 L790.9 294.3 L798.9 291.9 L807.3 288.3 L818.9 282.3 L827.7 276.4 L836.7 269.3 L844.6 260.6 L854.6 249.1 L861.5 240.3 L870.0 228.0 L875.4 219.1 L882.1 208.1 L886.2 200.9 L889.8 193.3 L891.7 188.4 L893.6 184.1 L894.5 182.4 L895.0 181.4 L895.6 180.4 L895.6 182.4 L895.4 183.3 L894.6 187.2 L892.4 193.5 L889.2 201.5 L884.2 214.2 L879.8 224.8 L875.3 236.6 L870.7 252.7 L868.5 264.8 L866.8 281.0 L866.2 292.4 L866.8 306.0 L868.0 315.3 L870.6 326.9 L873.5 335.2 L876.9 342.1 L881.5 350.3 L885.6 355.5 L891.9 361.3 L896.7 364.9 L901.5 368.2 L908.0 372.2 L912.9 375.2 L919.0 378.7 L921.8 380.3 L922.7 380.8 L922.1 380.9" fill="none" stroke="rgb(255,120,0)" stroke-opacity="1.000" stroke-width="8" stroke-linecap="round" stroke-linejoin="round"/>
  <path d="M605.3 90.5 L605.7 91.3" fill="none" stroke="rgb(53,132,228)" stroke-opacity="1.000" stroke-width="8" stroke-linecap="round" stroke-linejoin="round"/>
  <path d="M605.6 83.4 L605.7 84.5 L604.5 90.2 L604.1 94.7 L604.1 96.4 L604.3 101.2 L605.1 105.4 L606.6 109.0 L609.6 112.7 L612.5 114.3 L617.6 114.0 L622.4 112.1 L627.1 109.5 L631.6 105.8 L632.7 104.0 L631.6 102.8 L629.4 103.9 L627.8 106.5 L626.2 111.5 L625.9 115.6 L626.5 119.0 L628.7 122.8 L631.5 124.6 L635.3 125.2 L640.8 124.3 L644.9 122.6 L648.8 120.1 L650.0 118.9 L647.9 119.2 L647.1 120.7 L646.4 122.8 L646.0 126.8 L646.4 132.1 L648.0 135.9 L652.0 139.7 L656.2 141.1 L660.5 140.2 L666.0 137.2 L669.0 134.3 L671.0 130.3 L671.3 128.7 L670.6 128.6 L669.2 131.1 L667.6 135.1 L666.5 141.9 L667.3 146.6 L670.6 150.4 L674.4 151.5 L680.2 149.6 L684.9 146.8 L688.6 143.5 L691.5 138.8 L692.4 137.0 L690.9 138.6 L688.3 143.4 L686.9 147.6 L686.8 151.4 L689.3 154.0 L692.8 153.8 L697.4 151.9 L703.5 148.0 L707.1 144.6 L709.3 141.7 L708.6 141.2 L705.2 143.5 L702.3 146.4 L700.5 150.9 L701.4 153.5 L704.8 156.0 L707.9 157.1 L710.7 156.8 L711.2 156.5 L710.4 155.9 L710.5 156.6 L711.3 157.5 L712.5 158.4 L713.6 159.2 L715.3 160.2 L718.9 162.0 L725.1 164.6 L732.9 167.0 L741.1 169.1 L748.9 170.3 L755.6 170.3 L758.7 169.6 L758.1 169.0 L755.8 168.5 L752.0 168.3 L749.9 168.7 L749.2 169.7 L750.4 171.1 L753.1 172.7 L758.2 174.9 L761.8 175.7 L765.9 175.3 L767.0 174.0 L766.4 172.1 L764.8 171.1 L764.0 170.8 L765.5 172.6 L768.1 173.9 L769.2 174.1 L772.7 174.1 L777.9 172.9 L781.5 171.0 L785.4 167.7 L787.0 165.0 L787.4 161.4 L786.8 159.7 L785.6 158.0 L785.2 157.3 L785.3 158.6 L785.3 160.1 L784.8 160.5 L783.7 159.6 L782.9 159.3 L778.5 158.8 L772.3 158.2 L765.8 157.0 L759.6 155.0 L757.0 153.4 L754.6 150.4 L752.9 148.2 L749.8 145.6 L747.3 144.0 L743.0 142.1 L739.0 141.1 L735.4 141.3 L732.7 142.9 L732.9 144.7 L735.2 147.1 L737.3 148.3 L739.5 148.0 L740.2 146.3 L740.4 144.0 L740.1 141.2 L739.4 139.9 L738.3 138.7 L737.6 138.3 L737.0 137.9" fill="none" stroke="rgb(53,132,228)" stroke-opacity="1.000" stroke-width="8" stroke-linecap="round" stroke-linejoin="round"/>
  <path d="M737.9 138.7 L737.9 137.9 L737.1 136.7 L735.2 135.0 L733.4 133.8 L731.4 132.7 L728.4 131.1 L725.4 129.8 L726.1 130.8 L727.4 131.5 L728.1 131.9 L730.3 132.6 L730.6 131.7 L729.0 128.8 L726.5 125.7 L721.7 122.0 L716.9 120.4 L710.3 120.6 L707.2 122.1 L706.1 124.2 L708.0 126.8 L710.8 127.7 L713.7 127.0 L715.6 124.6" fill="none" stroke="rgb(53,132,228)" stroke-opacity="1.000" stroke-width="8" stroke-linecap="round" stroke-linejoin="round"/>
  <path d="M669.3 100.0 L672.7 102.8 L676.1 103.7 L676.9 101.9 L674.4 96.9 L669.6 92.4 L663.3 88.3 L653.8 84.8 L647.4 84.1 L642.2 84.9 L641.4 86.3 L643.4 88.4 L646.2 89.5 L649.5 89.1 L649.8 87.2 L646.4 82.9 L641.8 79.6 L636.6 77.4 L631.0 76.8 L629.0 77.9 L629.6 81.1 L632.1 84.1 L636.2 86.8 L638.0 86.9 L637.2 83.9 L634.2 80.3 L628.3 75.9 L623.9 74.0 L620.8 74.1 L619.7 76.3 L620.9 78.7 L623.6 81.3 L625.4 82.4 L625.8 81.9 L624.4 79.6 L621.8 77.2 L617.8 75.1 L615.8 75.3 L615.5 77.7 L616.6 80.5 L618.5 83.5 L619.4 84.1 L619.2 83.3 L617.7 81.2 L615.0 79.2 L613.2 79.0 L612.3 81.0 L612.8 83.6 L614.1 85.6 L614.9 86.0 L614.9 84.8 L614.4 82.8" fill="none" stroke="rgb(53,132,228)" stroke-opacity="1.000" stroke-width="8" stroke-linecap="round" stroke-linejoin="round"/>
  <path d="M612.3 83.5 L611.1 85.2 L610.6 86.7 L610.0 88.2 L609.5 89.4 L609.8 87.8 L609.9 87.2 L609.9 85.6 L609.7 84.3 L609.3 83.7 L608.7 84.7 L607.9 87.3 L607.7 88.7 L608.0 88.3 L608.3 87.2 L608.5 86.5 L608.5 83.2 L608.5 82.1 L608.2 82.8 L607.7 85.4 L607.5 89.4 L607.7 91.1 L608.4 91.3 L609.2 89.3 L610.3 85.4 L611.0 82.6 L611.2 82.1 L610.5 86.5 L610.2 91.6 L611.3 96.1 L613.2 96.7 L615.8 93.7 L617.6 89.9 L618.9 86.4 L618.9 84.3 L616.5 87.1 L614.4 94.0 L614.1 98.3 L615.5 99.4 L617.9 97.7 L622.3 93.5 L625.7 89.8 L626.4 89.1 L624.9 90.7 L621.2 96.2 L618.0 101.7 L618.2 103.4 L621.6 102.7 L625.7 99.8 L631.3 95.5 L634.0 93.5 L633.5 93.7 L630.2 95.7 L626.1 99.7 L625.6 101.4 L628.8 101.0 L633.4 98.9 L641.1 95.5 L643.9 94.5 L643.0 95.6 L639.1 98.2 L637.5 99.2 L638.9 98.6 L642.2 96.6 L647.0 93.3 L649.8 92.0 L649.5 92.6 L644.9 96.1 L641.6 98.5 L640.9 99.8 L643.2 99.2 L647.7 96.8 L653.9 93.6 L656.4 93.0 L654.7 96.0 L650.4 100.1 L644.5 104.6 L643.7 106.6 L645.7 106.7 L652.2 104.6 L658.4 101.8 L661.1 100.9 L660.1 102.5 L654.5 106.4 L649.5 109.6 L649.0 110.4 L652.7 109.5 L657.4 107.5 L661.7 105.7 L664.0 105.3 L661.2 107.8 L657.0 110.7 L653.0 114.4 L653.2 115.7 L656.0 115.4 L662.0 113.4 L666.8 112.0 L667.8 112.3 L666.2 114.1 L661.2 118.2 L657.5 121.5 L657.9 122.6 L661.2 122.3 L668.6 120.3 L676.1 118.2 L680.0 117.6 L676.1 120.7 L672.3 122.7 L668.7 124.5 L665.1 126.7 L666.6 126.9 L674.3 124.8 L685.0 121.8 L692.4 120.5 L691.4 122.1 L685.0 124.9 L675.3 128.7 L671.6 130.5 L673.4 130.4 L679.1 128.5 L689.2 125.6 L695.2 123.7 L697.7 123.5 L694.5 125.2 L690.7 127.1 L689.4 128.5 L693.6 128.8 L699.2 127.7 L704.1 126.8 L706.5 126.9 L703.3 128.5 L699.3 130.4 L696.5 131.9 L697.8 132.1 L704.1 130.6 L710.4 129.0 L717.7 127.9 L719.0 128.1 L714.8 130.3 L709.4 132.6 L705.0 135.2 L710.4 135.2 L716.4 134.1 L718.5 133.8 L723.3 133.1 L725.2 133.3 L722.8 134.7 L716.1 137.9 L712.6 139.7 L712.8 141.0 L716.3 140.7 L722.4 139.0 L725.9 137.7 L722.5 139.3 L718.1 140.8 L716.8 141.2 L714.4 141.7 L715.0 141.9 L716.9 141.7 L719.4 141.3 L720.7 141.0 L719.7 141.6 L718.1 142.5 L717.1 143.8 L717.7 144.9 L720.2 145.5 L726.1 145.1 L732.3 144.8 L734.0 145.1 L731.6 146.6 L727.3 148.4 L723.7 150.0 L722.8 151.1 L727.3 151.2 L733.2 150.8 L740.1 150.4 L742.2 150.7 L739.8 152.1 L734.4 154.3 L731.7 156.0 L731.4 156.9 L735.5 157.7 L740.6 157.4 L746.3 157.1 L747.3 157.2 L745.1 158.1 L739.8 159.5 L737.9 160.3 L738.7 160.8 L744.3 160.8 L751.8 160.0 L756.3 159.8 L757.1 159.9 L754.1 160.9 L747.5 162.5 L745.1 163.4 L746.3 163.5 L752.4 162.5 L758.0 161.4 L763.2 159.6 L764.3 159.2 L761.9 159.3 L758.5 159.8 L756.6 160.1 L758.8 159.8 L763.1 159.1 L768.1 158.1 L769.5 157.9 L768.1 157.9 L764.3 158.5 L762.4 158.9 L766.0 158.1 L769.1 157.3 L769.9 157.0 L771.4 156.4 L769.7 156.3 L765.4 156.6 L758.3 157.1 L756.1 157.2 L757.4 157.1 L763.7 156.4 L768.0 156.0 L769.3 155.9 L765.7 156.4 L761.8 156.9 L759.4 157.5 L759.9 158.0 L763.0 159.0 L765.7 159.4 L767.5 159.8 L765.7 160.4 L764.8 160.8 L765.6 161.3 L769.5 161.5 L772.1 161.3 L773.4 161.3 L777.2 161.5 L775.3 162.8 L772.7 163.6 L771.7 164.0 L774.7 164.0 L778.5 163.3 L779.8 163.0 L783.6 162.3 L782.4 162.6 L780.4 163.4 L777.6 164.0 L772.2 165.1 L764.8 165.3 L762.4 164.8 L763.1 163.5" fill="none" stroke="rgb(53,132,228)" stroke-opacity="1.000" stroke-width="8" stroke-linecap="round" stroke-linejoin="round"/>
  <path d="M733.6 157.8 L730.6 158.1 L727.0 158.3 L724.3 157.8" fill="none" stroke="rgb(53,132,228)" stroke-opacity="1.000" stroke-width="8" stroke-linecap="round" stroke-linejoin="round"/>
  <path d="M721.2 154.8 L718.4 154.9 L721.2 154.4 L726.3 153.0 L733.7 151.2 L737.2 150.5 L732.7 151.1 L731.6 151.3 L730.3 151.8 L732.9 152.7 L739.3 152.5 L744.5 152.7 L745.4 152.8 L743.5 153.3 L742.6 153.4 L743.6 153.7 L746.2 153.5 L748.9 153.1 L750.8 153.0 L752.6 152.8 L753.2 152.6 L753.6 152.0 L755.2 151.1 L756.1 150.5 L755.8 148.7 L755.1 147.6 L752.9 146.7 L751.6 146.4 L745.7 146.3 L733.9 146.1 L724.4 146.3 L714.5 148.0 L711.2 150.3 L712.3 151.9 L716.7 153.2 L723.4 152.4 L729.4 150.6 L737.6 147.0 L741.1 144.3 L739.0 142.7 L729.1 143.9 L719.7 146.3 L710.5 150.2 L708.9 152.2 L711.9 152.5 L719.8 149.2 L723.1 146.7 L723.8 144.5 L721.6 143.6 L720.2 143.6" fill="none" stroke="rgb(53,132,228)" stroke-opacity="1.000" stroke-width="8" stroke-linecap="round" stroke-linejoin="round"/>
  <path d="M719.8 135.4 L721.2 132.6 L719.6 130.8 L715.0 130.4 L706.5 132.5 L700.0 135.3 L693.6 138.5 L692.0 139.7 L693.7 139.4 L698.7 136.8 L702.7 134.0 L706.5 130.9 L706.7 129.9 L703.9 131.1 L697.5 135.0 L693.3 138.4 L691.7 141.6 L692.6 142.0" fill="none" stroke="rgb(53,132,228)" stroke-opacity="1.000" stroke-width="8" stroke-linecap="round" stroke-linejoin="round"/>
  <path d="M703.1 134.7 L706.9 129.8 L707.6 128.2 L707.5 127.2 L705.0 125.8 L701.0 126.6 L693.5 130.2 L688.4 133.1 L692.5 130.5 L697.4 127.2 L699.8 125.1 L701.3 123.6 L700.6 122.4 L695.2 123.4 L687.8 125.1 L685.3 125.3 L686.1 124.4 L690.9 122.0 L693.8 120.4 L694.3 119.6 L690.8 120.2 L686.3 121.4 L680.7 122.0 L680.0 121.7 L683.0 119.6 L686.4 117.4 L688.8 114.5 L688.8 113.3 L686.8 112.5 L681.3 113.4 L674.7 115.8 L672.7 119.2 L674.7 120.9 L681.4 119.9 L686.9 117.4 L691.8 112.6 L691.8 108.7 L688.2 107.5 L679.7 109.1 L671.4 112.6 L668.1 115.3 L668.0 116.8 L670.7 116.9 L677.1 114.7 L683.3 110.6 L685.7 105.6 L683.6 102.4 L678.7 101.5 L670.7 103.8 L664.8 108.9 L663.3 112.4 L666.0 115.5 L672.8 115.1 L677.7 112.8 L682.1 107.6 L681.9 102.3 L676.7 99.0 L670.6 98.5 L662.0 102.9 L656.8 107.5 L654.3 112.8 L656.2 114.3 L660.2 112.3 L665.6 107.2 L668.0 100.4 L667.1 96.1 L661.8 93.6 L655.6 94.9 L647.7 99.8 L644.4 103.1 L644.8 105.5 L649.8 104.5 L655.3 100.4 L657.7 94.9 L656.8 92.4 L651.7 91.1 L643.6 93.1 L637.8 95.8 L632.2 98.8 L631.4 99.5 L634.5 97.5 L638.0 93.7 L638.5 90.6 L635.5 89.4 L631.5 90.6 L625.3 94.6 L620.9 98.8 L620.9 100.1 L625.2 98.7 L631.2 94.1 L634.8 89.5 L636.2 84.9 L633.7 83.6 L629.3 85.2 L622.8 90.2 L620.0 94.4 L620.7 96.3 L624.0 95.5 L627.7 92.0 L629.6 88.1 L629.8 83.8 L627.2 82.6 L623.8 84.7 L619.5 89.6 L617.6 94.0 L618.4 96.3 L620.4 96.2 L621.1 95.7" fill="none" stroke="rgb(53,132,228)" stroke-opacity="1.000" stroke-width="8" stroke-linecap="round" stroke-linejoin="round"/>
  <path d="M623.6 91.8 L619.7 87.8 L617.3 89.1 L615.1 91.0 L612.5 94.9 L611.2 99.1 L612.2 100.8 L614.4 100.4 L616.1 99.2 L617.4 98.4 L616.2 99.2 L613.9 101.0 L612.9 102.0 L611.9 102.8 L612.2 102.3 L612.7 101.4 L613.2 100.1 L613.9 96.6 L613.7 94.1 L612.4 93.4 L610.1 94.8 L608.7 97.1 L607.8 100.7 L607.6 103.8 L607.6 104.9 L608.5 103.1 L609.0 101.2 L609.0 100.3 L608.6 99.5 L606.6 100.9 L605.2 102.8 L605.0 104.5 L606.5 106.0 L609.4 107.0 L612.0 106.6 L615.5 105.4 L616.6 105.1 L617.3 104.9 L616.9 105.2 L617.1 104.6 L617.7 103.2 L617.8 102.4 L617.9 101.7 L617.3 103.3 L617.1 104.1 L616.4 106.6 L617.1 108.2 L620.5 107.1 L624.6 104.5 L627.8 101.9 L632.0 98.4 L635.1 95.6 L637.3 93.9 L637.9 93.8 L637.3 95.7 L634.6 100.1 L633.3 104.2 L633.4 108.4 L635.6 109.2 L639.1 107.6 L641.8 105.3 L644.6 102.0 L640.8 103.1 L638.1 105.9 L637.5 106.8 L637.0 108.3 L639.2 108.4 L642.6 106.6 L643.8 105.7 L642.4 106.9 L639.1 109.9 L637.5 112.9 L638.3 114.7 L640.0 115.4 L643.0 114.9 L645.5 113.7 L646.0 113.7 L644.2 115.5 L641.2 117.7 L640.2 119.3 L640.7 119.9 L643.6 120.0 L648.4 119.0 L654.3 118.4 L656.6 118.5 L655.9 120.8 L652.2 124.1 L650.2 126.2 L651.6 128.4 L654.8 129.2 L659.6 129.1 L663.2 129.6 L663.5 130.8 L661.5 133.2 L657.6 136.0 L656.2 137.2 L658.1 136.5 L661.8 135.0 L666.8 133.0 L668.8 132.5 L667.2 133.5 L662.6 135.7 L660.5 137.0 L661.3 137.6 L665.6 137.0 L670.4 136.0 L673.1 135.6 L673.8 135.8 L673.0 136.3 L675.5 136.5 L677.1 136.1 L678.5 135.8 L679.7 135.7 L678.2 137.0 L676.0 138.4 L675.0 139.4 L676.7 139.9 L679.4 139.7 L682.6 139.3 L683.5 139.0 L681.9 138.8 L679.2 139.7 L676.4 141.0 L675.6 141.8 L676.5 142.2 L677.6 141.8 L681.2 140.3 L685.0 139.1 L686.6 138.7 L685.5 139.5 L681.6 141.6 L678.8 143.2 L679.6 144.2 L682.4 143.9 L688.2 142.7 L692.9 141.4 L697.4 140.2 L698.1 140.0 L697.8 140.4 L697.4 141.1 L697.0 141.9 L697.7 142.0 L700.3 140.7 L702.7 138.7 L704.4 136.7 L706.0 135.1 L703.7 136.5 L701.7 137.9 L699.5 139.5 L695.5 143.5 L693.5 145.7 L693.3 146.2 L693.7 144.3 L693.8 143.4 L693.4 142.1 L691.5 141.9 L690.5 142.2 L685.5 144.2 L678.5 146.9 L673.9 149.0 L671.9 149.3 L673.9 147.0 L677.7 143.7 L679.5 141.5 L679.6 139.9 L676.8 138.9 L672.3 139.3 L668.2 139.8 L667.0 139.8 L667.8 139.9 L670.3 139.2 L673.7 137.7 L675.2 137.0 L674.8 137.6 L672.1 139.9 L669.8 142.4 L669.6 143.5 L671.0 143.2 L673.4 141.6 L674.6 141.0 L673.3 141.7 L670.2 143.2 L668.2 144.0 L667.5 144.3 L668.3 143.9 L670.3 142.5 L671.3 141.5 L671.7 140.7 L671.5 139.9 L669.8 138.7 L666.6 136.9 L661.9 134.7 L656.4 132.0 L652.2 129.9 L646.9 127.5 L642.7 125.5 L640.0 124.6 L639.2 124.4 L638.3 124.6 L638.2 125.9 L638.2 127.3 L638.0 128.4 L638.1 127.0 L638.5 125.8 L638.8 124.4 L639.2 122.2 L638.9 120.1 L637.5 118.1 L636.2 116.5 L635.4 115.4 L634.1 114.6 L633.4 114.6 L633.0 114.8 L632.6 115.1 L631.9 115.1 L631.1 117.0 L630.8 117.7 L630.0 119.7 L629.7 120.2 L632.4 118.7 L635.2 116.8 L636.1 116.3 L638.4 114.8 L636.3 115.0 L635.6 115.2 L633.6 115.6 L631.9 115.5" fill="none" stroke="rgb(53,132,228)" stroke-opacity="1.000" stroke-width="8" stroke-linecap="round" stroke-linejoin="round"/>
  <path d="M620.5 113.9 L618.6 113.9 L618.6 112.9 L620.1 111.2 L620.8 110.6 L622.1 109.2 L619.5 108.9 L617.9 109.3 L616.6 109.6 L615.1 110.0 L615.6 108.3" fill="none" stroke="rgb(53,132,228)" stroke-opacity="1.000" stroke-width="8" stroke-linecap="round" stroke-linejoin="round"/>
  <path d="M819.2 259.5 L819.5 258.8 L819.5 257.8 L819.6 256.7 L819.7 255.9 L819.5 254.9 L819.0 254.0 L818.3 253.1 L817.8 252.4 L817.0 251.7 L816.3 251.1 L815.5 250.6 L814.4 250.2 L813.5 250.0 L812.7 250.0 L811.3 250.4 L810.1 251.0 L808.4 252.4 L807.2 253.6 L805.2 255.9 L803.5 259.6 L802.1 264.2 L801.4 268.9 L802.3 273.2 L804.2 276.3 L807.6 279.2 L810.9 280.4 L813.3 280.6 L816.8 280.6 L820.4 280.3 L822.6 280.0 L823.3 279.3 L822.6 278.3 L822.5 279.0 L822.3 283.8 L822.3 285.9 L822.5 288.2 L824.0 292.6 L826.9 296.4 L830.2 299.2 L836.8 302.8 L844.5 305.1 L852.9 306.4 L858.7 306.7 L865.2 306.2 L869.5 304.2 L871.0 300.7 L870.9 298.0 L869.7 294.9 L869.3 295.3 L869.0 296.2 L868.9 297.4 L869.2 299.7 L871.0 303.8 L873.8 308.1 L877.3 312.5 L881.1 315.9 L884.0 318.0 L888.3 320.6 L892.5 322.7 L896.9 323.6 L900.4 323.5 L905.3 322.6 L910.1 320.9 L913.8 318.6 L915.3 316.4 L915.7 314.2 L914.1 314.7 L913.4 316.2 L913.2 319.4 L913.7 321.0 L914.2 322.9 L916.1 326.8 L918.9 330.5 L921.9 333.3 L926.7 336.6 L932.1 339.7 L936.8 342.0 L943.5 344.5 L950.2 346.1 L956.8 346.5 L962.0 345.7 L964.5 343.8 L966.0 339.6 L965.7 334.9 L963.9 330.3 L961.8 326.6 L959.9 324.5 L958.9 323.6 L957.5 322.8 L955.6 321.6 L954.3 320.4 L953.2 319.8 L952.1 320.0 L951.7 320.8 L951.6 322.2 L952.1 324.1 L952.9 325.0 L954.7 323.4 L955.4 322.1 L955.8 320.7 L955.2 317.2 L953.6 314.6 L950.7 311.7 L947.2 308.8 L941.4 304.5 L936.9 301.7 L930.5 297.9 L923.4 293.8 L917.1 290.9 L913.5 290.2 L910.0 291.0 L908.0 293.5 L907.3 296.7 L908.6 300.1 L910.9 302.4 L914.5 304.7 L917.7 305.2 L919.0 303.4 L918.8 301.0 L917.2 297.4 L914.3 293.5 L909.8 289.3 L904.1 284.9 L899.6 281.5 L893.1 277.2 L888.1 274.5 L882.4 272.5 L877.4 272.4 L874.2 272.9 L872.4 274.0 L871.2 275.4 L870.4 277.6 L870.6 280.1 L872.0 282.5 L873.9 284.0 L875.5 284.5 L877.2 283.2 L877.5 281.2 L876.3 277.9 L873.5 273.9 L870.2 271.4 L867.5 269.9 L863.3 268.5 L859.4 268.5 L856.4 269.6 L855.0 271.0 L854.4 272.9 L854.7 273.8 L856.1 274.5 L857.0 274.1 L857.6 272.8 L857.8 272.1 L857.6 270.9 L857.0 269.6 L856.3 268.6 L854.5 266.8 L853.6 266.2 L849.3 263.8 L843.8 263.0 L839.9 263.8 L839.0 264.9 L839.6 267.0 L841.5 269.4 L843.2 270.5 L845.0 270.3 L845.9 268.1 L844.8 265.2 L841.8 262.2 L838.9 260.4 L834.7 258.7 L830.1 259.1 L826.9 260.1 L823.8 261.6 L822.6 263.6 L823.6 265.4 L824.7 266.2 L823.9 264.0 L822.1 262.1 L821.2 261.3 L818.0 259.5 L813.5 258.6 L810.8 259.6 L809.8 262.2 L810.1 265.5 L811.4 267.3 L813.6 267.8 L815.5 265.8 L815.9 263.8 L813.7 261.2 L809.4 259.4 L805.5 260.5 L804.1 262.9 L804.1 267.4 L806.2 272.3 L810.0 274.8 L814.2 274.4 L816.6 272.6 L817.9 269.0 L816.3 264.8 L813.3 263.0 L810.2 264.8 L809.3 267.3 L811.1 271.5 L815.9 274.9 L821.5 275.9 L824.7 274.9 L826.6 272.0 L825.4 268.1 L822.7 265.8 L820.4 266.2 L820.5 268.7 L824.3 271.7 L831.6 274.4 L837.6 275.6 L842.5 275.5 L843.0 275.0 L839.4 274.4 L835.0 275.9 L833.7 278.5 L835.8 283.1 L841.3 287.5 L848.2 290.6 L852.7 291.0 L856.4 289.5 L855.6 286.0 L850.6 282.4 L846.4 281.9 L842.7 284.3 L842.3 288.7 L844.9 293.3 L848.2 295.5 L853.1 296.0 L856.7 293.3 L857.3 289.7 L854.2 284.0 L847.9 280.5 L842.1 281.4 L839.4 285.8 L839.2 291.6 L841.6 295.6 L845.1 296.8 L850.9 295.3 L856.3 291.4 L857.9 282.9 L853.7 277.8 L846.4 277.0 L841.0 280.5 L839.9 285.5 L841.7 292.0 L845.6 296.9 L851.3 299.0 L856.2 298.3 L863.1 294.9 L866.9 288.5" fill="none" stroke="rgb(53,132,228)" stroke-opacity="1.000" stroke-width="8" stroke-linecap="round" stroke-linejoin="round"/>
  <path d="M857.8 281.8 L853.4 283.5 L852.0 286.3 L851.9 288.9 L854.4 292.5 L861.8 296.3 L870.4 297.3 L876.9 296.6 L882.2 294.1 L882.9 289.7 L880.8 286.7 L877.5 287.5 L876.0 291.7 L879.3 296.6 L886.2 299.5 L894.0 299.0 L898.6 297.4 L900.2 294.5 L896.4 291.7 L889.6 292.5 L885.9 296.2 L887.5 301.3 L892.0 304.3 L899.5 305.9 L905.3 305.1 L906.4 302.6 L903.3 300.1 L893.5 298.5 L888.3 301.5 L890.3 305.9 L895.8 308.9 L900.3 309.0 L904.5 307.1 L905.0 304.1 L901.1 300.9 L894.2 300.3 L889.8 303.3 L889.8 307.3 L894.2 312.6 L900.7 316.1 L906.0 316.2 L908.0 313.7 L906.8 310.7 L901.1 306.9 L893.8 305.9 L890.5 308.2 L892.4 312.0 L896.5 314.4 L903.2 315.4 L910.6 314.7 L917.0 313.5 L920.7 312.3 L921.0 309.2 L915.2 307.1 L909.4 308.3 L908.5 310.8 L913.0 315.4 L921.8 319.4 L933.1 321.3 L936.6 321.3 L934.0 320.3 L931.2 322.0 L930.6 322.9 L930.6 327.0 L933.8 330.2 L941.5 333.9 L949.6 335.3 L955.1 335.0 L954.1 333.0 L947.8 331.1 L941.7 332.3 L939.8 335.2 L941.5 338.1 L944.0 339.8" fill="none" stroke="rgb(53,132,228)" stroke-opacity="1.000" stroke-width="8" stroke-linecap="round" stroke-linejoin="round"/>
  <path d="M959.5 334.4 L957.7 332.0 L955.3 330.2 L947.2 325.8 L938.9 323.9 L935.4 324.8 L936.8 327.0 L942.1 330.1 L946.7 329.6 L947.7 326.2 L945.6 321.5 L941.1 317.3 L934.5 315.7 L929.3 317.6 L928.3 319.6 L930.5 322.3 L936.0 323.3 L940.8 321.6 L942.2 318.7 L939.2 315.2 L933.0 313.4 L927.1 313.1 L925.7 313.6 L927.5 315.6 L932.2 317.4 L936.8 317.1 L939.5 314.9 L939.0 311.8 L934.3 309.2 L926.8 308.7 L921.5 309.7 L921.7 311.3 L926.1 313.7 L929.6 314.2 L932.0 312.4 L931.0 307.3 L924.9 302.0 L915.2 298.7 L906.9 299.1 L904.1 301.4 L905.7 303.5 L906.7 303.4 L906.3 300.9 L904.6 297.0 L902.3 294.0 L897.4 291.4 L890.6 291.7 L886.0 293.5 L886.6 295.5 L890.0 296.6 L894.1 295.3 L894.9 291.7 L891.7 287.5 L885.3 284.7 L878.1 285.3 L873.7 286.8 L874.7 288.5 L878.8 289.8 L885.1 289.7 L888.8 287.4 L888.6 284.8 L885.4 282.6 L882.0 281.8 L877.5 282.3 L877.7 283.6 L882.0 285.4 L887.8 285.5 L890.9 284.6 L890.8 283.3 L888.2 281.1 L883.2 280.5 L877.3 281.7 L876.6 284.2 L882.8 287.4 L888.8 288.3 L894.3 287.6 L895.6 286.2 L894.3 284.1 L893.3 283.1 L894.0 283.5 L897.8 285.1 L902.2 287.1 L906.1 289.1 L908.9 290.8 L906.0 289.8 L899.7 287.4 L896.8 286.4 L881.2 282.3 L867.5 280.0 L853.6 278.1 L849.5 277.0 L851.6 275.8 L857.1 275.3 L864.3 274.7 L868.6 274.5 L863.9 276.7 L859.6 278.8 L858.6 279.5 L856.9 282.4 L858.7 284.3 L859.8 284.9" fill="none" stroke="rgb(53,132,228)" stroke-opacity="1.000" stroke-width="8" stroke-linecap="round" stroke-linejoin="round"/>
  <path d="M868.0 286.1 L865.2 281.1 L858.0 279.8 L850.6 280.1 L846.0 280.7 L845.3 280.8 L846.4 279.8 L848.3 277.3 L849.3 274.3 L848.7 271.4 L846.0 269.8 L840.5 270.5 L836.3 271.9 L833.9 273.9 L835.0 275.1 L836.8 274.3 L837.7 272.2 L837.2 270.5 L835.3 269.3 L830.9 269.2 L828.0 271.2 L827.1 273.4 L828.1 274.6 L829.9 274.2 L832.8 272.6 L833.6 270.8 L831.6 269.0 L828.0 268.4 L825.2 270.5 L824.4 274.6 L826.2 279.3 L832.4 284.0 L840.7 288.5 L843.7 290.5 L841.6 291.3 L835.6 291.9 L833.8 293.2 L834.3 294.9 L835.9 296.9 L838.5 298.5 L840.5 297.7 L840.7 296.7 L836.7 295.3 L831.2 295.3 L830.6 297.0 L835.3 299.3 L841.3 300.3 L845.6 299.8 L844.5 298.5 L838.5 295.8 L832.5 294.2 L828.6 293.7 L826.2 293.5 L828.4 294.2 L835.5 296.4 L843.4 297.8 L848.2 298.2 L843.7 296.7 L842.2 296.3 L844.5 297.1 L849.4 298.2 L851.3 298.6 L859.5 299.9 L866.3 300.0 L870.4 299.3 L872.9 299.2 L874.7 299.5 L875.6 300.0 L879.3 302.3 L886.0 305.5 L890.8 308.6 L890.1 310.9 L888.2 312.5 L888.9 313.2 L889.8 313.8 L889.0 314.7 L889.6 315.6 L891.9 317.5" fill="none" stroke="rgb(53,132,228)" stroke-opacity="1.000" stroke-width="8" stroke-linecap="round" stroke-linejoin="round"/>
  <path d="M884.0 310.9 L882.3 311.2 L881.7 312.2 L882.3 313.1 L883.9 313.8 L884.9 314.1 L889.8 315.3 L895.4 316.5 L900.1 317.3 L903.3 318.1 L905.6 318.8 L908.9 320.1 L913.6 321.7 L918.6 323.0 L925.5 324.5 L930.1 325.0 L932.4 325.5 L933.7 326.7 L934.0 329.1 L932.2 331.2 L930.9 332.8 L931.8 333.5 L935.2 334.2 L938.1 334.2 L939.6 334.1 L936.6 334.2 L935.9 334.3 L935.0 334.8 L935.5 335.5 L936.8 336.5 L934.8 336.5 L933.6 336.5 L933.6 337.5 L935.4 338.7 L936.2 339.1 L940.4 341.1 L945.5 343.0 L951.0 344.9 L956.8 346.5 L962.5 347.7 L966.0 348.5 L968.6 349.2 L967.7 349.1 L965.2 349.2 L966.2 350.8 L968.1 351.8 L969.0 352.1 L972.0 352.7 L974.5 352.4 L975.8 350.8 L975.6 347.6 L971.7 342.0 L962.9 334.8 L953.9 329.6 L950.8 328.1 L951.6 328.2 L955.5 328.6 L957.2 328.3 L955.1 326.9 L948.7 325.4 L942.3 324.5 L941.3 324.7 L944.5 326.0 L946.6 326.6 L945.8 326.1 L943.4 325.2 L940.6 324.4 L939.3 324.1 L940.2 324.6 L942.6 325.7 L943.8 326.4" fill="none" stroke="rgb(53,132,228)" stroke-opacity="1.000" stroke-width="8" stroke-linecap="round" stroke-linejoin="round"/>
  <path d="M767.2 289.5 L766.7 289.6 L766.2 290.2 L765.5 291.2 L765.3 291.7 L764.2 293.7 L763.5 295.9 L763.7 298.1 L765.6 300.5 L768.6 303.2 L771.3 305.1 L772.1 306.6 L772.1 307.9 L771.6 309.9 L771.4 312.2 L771.5 314.9 L772.7 317.6 L775.8 320.1 L779.3 322.1 L780.2 323.2 L778.3 324.4 L775.5 325.6 L774.1 327.4 L774.4 329.3 L776.7 331.8 L779.4 334.4 L780.1 336.7 L778.7 338.9 L777.3 340.7 L776.5 343.0 L777.8 345.4 L779.4 347.8 L779.6 349.2 L779.1 350.3 L778.4 352.1 L777.5 354.2 L776.6 356.6 L776.4 359.1 L777.3 361.5 L779.0 363.9 L779.9 365.8 L779.1 367.5 L777.7 368.6 L776.7 370.2 L777.0 371.6 L777.8 373.1 L777.5 374.7 L775.1 376.2 L773.2 378.0 L772.9 379.9 L773.2 381.8 L773.5 383.4 L773.9 384.5 L774.4 385.5 L774.4 387.0 L772.9 388.5 L771.7 390.4 L771.5 392.1 L770.0 393.3 L767.9 394.5 L767.1 395.7 L767.3 397.0 L767.7 398.2 L768.2 399.5 L768.4 401.1 L768.4 402.9 L767.8 404.6 L766.5 406.1 L764.4 407.3 L761.4 407.7 L757.6 407.2 L755.1 406.6 L754.6 406.5 L752.7 406.2 L750.8 406.1 L748.7 405.9 L745.5 405.5 L745.0 405.6 L745.0 406.5 L744.2 406.8 L743.3 407.0 L741.9 407.8 L741.3 408.7 L742.6 410.1 L744.3 411.1 L745.0 411.6 L743.5 411.7 L742.4 412.0 L740.9 412.2 L738.6 412.0 L738.0 412.0 L738.7 412.4 L739.6 412.8 L739.0 413.0 L736.9 413.3 L735.1 413.8 L734.0 414.3 L733.7 414.7 L734.1 415.2 L734.6 415.6" fill="none" stroke="rgb(53,132,228)" stroke-opacity="1.000" stroke-width="8" stroke-linecap="round" stroke-linejoin="round"/>
  <path d="M717.8 280.5 L716.9 280.7 L716.5 280.7 L713.5 280.9 L712.0 280.9 L712.4 280.9 L710.2 280.5 L708.5 280.2 L706.8 280.0 L703.7 279.3 L702.7 279.1 L703.3 279.5 L705.1 279.8 L706.4 279.7 L703.7 278.8 L700.7 278.5 L699.7 278.2 L697.3 277.5 L700.0 277.8 L701.2 277.7 L702.2 277.2 L702.3 276.5 L699.7 274.9 L695.9 273.8 L688.6 271.9 L686.9 271.5 L688.1 271.3 L692.0 271.9 L697.6 272.7 L698.7 272.8 L697.6 273.1 L694.7 273.9 L692.9 274.9 L692.5 276.1" fill="none" stroke="rgb(134,94,60)" stroke-opacity="1.000" stroke-width="8" stroke-linecap="round" stroke-linejoin="round"/>
  <path d="M709.7 289.3 L705.7 289.2 L704.2 288.9 L705.8 289.2" fill="none" stroke="rgb(134,94,60)" stroke-opacity="1.000" stroke-width="8" stroke-linecap="round" stroke-linejoin="round"/>
  <path d="M710.8 289.6 L710.0 289.5 L711.0 289.7 L711.5 289.8 L712.4 289.9 L711.6 290.2 L710.8 290.4 L710.4 290.7 L711.1 291.3 L711.7 291.7" fill="none" stroke="rgb(134,94,60)" stroke-opacity="1.000" stroke-width="8" stroke-linecap="round" stroke-linejoin="round"/>
  <path d="M715.5 294.2 L712.2 294.4 L709.5 294.7" fill="none" stroke="rgb(134,94,60)" stroke-opacity="1.000" stroke-width="8" stroke-linecap="round" stroke-linejoin="round"/>
  <path d="M715.5 296.0 L714.6 296.6 L714.0 296.9 L714.2 297.6 L716.7 299.1" fill="none" stroke="rgb(134,94,60)" stroke-opacity="1.000" stroke-width="8" stroke-linecap="round" stroke-linejoin="round"/>
  <path d="M718.5 319.5 L719.5 319.6 L723.0 320.2 L723.9 320.3 L723.6 320.6 L722.7 320.9 L724.5 320.6 L725.6 320.4 L726.3 320.3 L726.0 319.4 L724.1 318.3 L720.0 317.6 L716.7 316.8 L717.5 316.3 L721.0 315.9 L723.1 315.7 L720.5 314.9 L713.9 314.4 L709.1 314.4 L712.7 315.3 L714.5 316.0 L714.0 317.6 L712.5 318.6 L710.8 320.0 L710.9 321.6 L715.0 323.8 L720.9 326.3 L722.3 328.5 L716.6 331.0 L710.0 333.0 L710.1 334.2 L717.2 335.1 L724.1 335.5 L723.6 335.7 L717.1 335.8 L712.4 335.8 L713.0 336.3 L715.7 337.1 L716.3 337.6 L716.0 338.0 L717.5 339.0 L721.1 340.3 L723.5 341.6 L721.8 342.7 L715.9 343.8 L713.6 344.6 L719.2 346.3 L727.7 348.7 L729.0 351.1 L722.8 353.0 L717.6 355.3 L716.8 356.5 L718.3 358.0 L721.0 359.4 L722.1 360.0" fill="none" stroke="rgb(134,94,60)" stroke-opacity="1.000" stroke-width="8" stroke-linecap="round" stroke-linejoin="round"/>
  <path d="M753.6 304.0 L752.7 303.4 L752.8 301.6 L753.0 301.1 L753.0 300.3 L752.4 299.6 L749.7 300.2 L745.6 301.0 L744.8 301.3 L747.1 301.9 L749.4 302.2 L750.0 302.5 L747.4 303.4 L744.4 304.9 L743.6 306.7 L745.5 309.2 L747.5 312.1 L747.7 315.2 L745.4 318.6 L744.0 321.7 L745.8 324.8 L749.0 327.7 L750.6 329.9 L749.7 331.8 L747.9 334.0 L747.3 336.4 L748.7 338.2 L750.1 339.5 L750.3 340.5 L747.9 342.0 L743.1 343.2 L740.2 344.5 L742.3 346.1 L746.7 347.7 L748.2 348.5 L746.4 349.6 L743.4 350.8 L741.6 352.1 L742.3 353.3 L744.9 355.1 L745.1 356.2 L740.3 357.3 L733.1 358.1 L731.3 359.0 L736.9 359.9 L743.5 361.5 L742.9 362.9 L737.4 364.5 L735.5 365.7 L739.7 366.8 L743.6 367.3 L741.7 367.9 L737.6 367.6 L736.9 367.5 L739.5 367.7 L741.9 368.3 L737.7 368.6 L731.1 368.2 L729.3 368.5 L733.8 370.1 L739.3 372.6 L738.9 374.4 L732.8 375.5 L728.4 375.7 L730.3 376.7 L735.1 377.5 L727.9 376.9 L721.8 375.9 L720.3 375.7 L719.3 375.5" fill="none" stroke="rgb(134,94,60)" stroke-opacity="1.000" stroke-width="8" stroke-linecap="round" stroke-linejoin="round"/>
  <path d="M807.3 341.2 L805.1 339.9 L803.0 339.0 L802.4 338.8 L802.2 337.9 L802.0 337.0 L801.3 336.6 L800.0 336.4 L796.4 336.2 L795.0 336.4 L796.3 336.9 L796.7 338.7 L796.6 339.8 L795.9 341.1 L793.5 343.5 L793.2 345.6 L796.5 348.6 L800.7 351.5 L801.3 353.6 L797.9 355.2 L794.3 356.4 L794.8 358.2 L798.6 360.7 L801.7 363.0 L802.0 365.4 L798.4 368.8 L791.1 371.2 L787.7 374.0 L793.8 378.6 L801.2 382.4 L801.6 384.3 L794.2 385.2 L787.5 385.9 L788.1 387.4 L795.0 390.1 L800.2 392.1 L799.6 393.1 L795.7 393.7 L794.6 394.6 L797.1 396.8 L799.5 398.7 L799.9 400.2 L799.2 401.5 L799.2 402.4 L800.2 403.7 L800.1 405.2 L798.9 406.4 L797.2 407.5 L797.1 408.6 L799.4 410.7 L800.4 412.5 L797.4 414.1 L792.3 414.7 L791.8 415.9 L796.7 418.8 L801.1 421.3 L798.6 423.3 L790.2 423.9 L785.3 425.5 L786.2 427.9 L789.2 430.8 L790.0 433.2 L789.2 434.9 L788.4 436.0 L786.2 437.2 L782.0 438.6 L779.0 440.5 L779.1 441.7 L779.6 441.9" fill="none" stroke="rgb(134,94,60)" stroke-opacity="1.000" stroke-width="8" stroke-linecap="round" stroke-linejoin="round"/>
  <path d="M813.9 333.5 L813.3 333.7 L813.5 334.6 L815.0 336.3 L818.9 338.3 L826.2 340.4 L833.4 343.2 L834.5 344.3 L832.5 345.3 L832.9 346.0 L837.5 348.0 L842.0 349.5 L844.6 350.5 L845.9 351.3 L844.2 352.1 L842.6 352.2 L845.7 353.4 L854.9 355.4 L863.8 358.0 L865.0 359.7 L859.8 361.5 L855.9 363.1 L857.9 365.6 L865.1 368.9 L872.4 371.9 L875.2 373.7 L875.6 374.7 L875.0 375.9 L875.4 377.5 L876.4 379.8 L878.4 382.5 L883.1 385.8 L888.6 389.5 L891.4 392.4 L892.1 395.4 L895.4 398.0 L902.3 400.7 L906.3 402.1 L904.7 402.8 L905.5 403.6 L906.3 404.0 L909.9 405.2 L916.7 407.7 L920.5 409.3 L921.9 410.0 L919.3 410.2 L918.8 410.3 L923.7 412.1 L931.4 414.9 L933.9 416.1 L930.7 416.8 L928.4 416.3" fill="none" stroke="rgb(134,94,60)" stroke-opacity="1.000" stroke-width="8" stroke-linecap="round" stroke-linejoin="round"/>
  <path d="M643.9 235.3 L642.8 234.6 L642.4 234.6 L641.7 234.8 L640.4 235.5 L639.6 236.3 L639.9 236.9 L642.5 237.5 L644.4 237.8 L643.5 239.8 L642.7 240.7 L643.5 242.3 L645.0 242.8 L647.0 243.1 L651.4 243.9 L655.3 245.1 L657.3 246.4 L656.8 248.1 L656.4 249.4 L659.8 250.3 L665.1 251.3 L669.3 252.8 L669.9 254.7 L666.7 257.4 L664.8 259.1 L669.1 260.7 L678.4 261.4 L686.3 262.9 L686.4 265.3 L681.5 268.3 L678.9 271.2 L681.7 274.1 L688.4 276.8 L695.6 279.7 L700.1 281.8 L699.8 282.8 L695.8 283.7 L693.8 284.0 L694.4 284.2" fill="none" stroke="rgb(134,94,60)" stroke-opacity="1.000" stroke-width="8" stroke-linecap="round" stroke-linejoin="round"/>
  <path d="M630.6 237.0 L631.4 236.9 L632.1 236.6 L632.9 236.5 L634.1 236.6 L634.2 237.3 L633.1 238.6 L632.7 239.6 L633.6 241.1 L634.4 242.2 L635.0 242.8 L634.5 242.9 L634.1 243.1 L632.5 243.8 L632.0 244.2 L633.2 245.2 L635.5 246.1 L636.0 246.6 L633.8 247.6 L630.1 248.8 L627.8 249.1 L629.0 247.8 L629.6 247.2 L629.8 246.8 L628.4 245.9 L623.7 245.4 L619.8 244.5 L617.9 243.5 L617.6 241.9 L615.5 241.8 L613.0 242.2 L612.1 242.2 L610.7 242.4 L611.0 242.1" fill="none" stroke="rgb(134,94,60)" stroke-opacity="1.000" stroke-width="8" stroke-linecap="round" stroke-linejoin="round"/>
  <path d="M614.6 240.9 L611.8 241.5 L609.7 242.2 L608.1 243.0 L607.8 243.3 L608.5 244.0 L612.3 244.3 L617.8 245.2 L620.1 246.5" fill="none" stroke="rgb(134,94,60)" stroke-opacity="1.000" stroke-width="8" stroke-linecap="round" stroke-linejoin="round"/>
  <path d="M616.7 259.5 L616.7 260.3 L616.8 261.2 L616.8 262.0 L616.6 260.5 L616.4 259.4 L615.9 255.6 L614.7 249.1 L613.0 241.6 L612.3 238.3 L612.7 239.7 L614.8 248.4 L617.9 259.5 L620.3 267.0 L620.8 266.3 L620.2 260.0 L618.4 250.7 L616.4 240.4 L615.9 236.6 L617.8 242.2 L621.9 255.1 L625.6 265.4 L627.9 268.8 L628.8 265.2 L628.6 258.6 L627.6 250.2 L628.1 247.5 L630.4 253.7 L634.7 268.3 L637.0 273.9 L638.4 274.1 L638.1 266.6 L636.6 257.5 L635.9 251.4 L638.0 254.1 L641.8 265.7 L645.5 274.4 L648.3 276.6 L649.5 274.1 L648.2 268.5 L646.2 263.7 L646.6 266.8 L648.5 273.1 L650.6 275.5 L651.8 273.2 L651.6 268.6 L650.7 263.9 L651.1 265.7 L653.3 273.0 L656.0 278.3 L658.2 278.6 L659.5 273.0 L659.2 267.6" fill="none" stroke="rgb(46,194,126)" stroke-opacity="1.000" stroke-width="8" stroke-linecap="round" stroke-linejoin="round"/>
  <path d="M658.8 258.1 L662.0 273.2 L664.1 284.7 L665.9 288.1 L666.8 284.7 L666.3 276.0" fill="none" stroke="rgb(46,194,126)" stroke-opacity="1.000" stroke-width="8" stroke-linecap="round" stroke-linejoin="round"/>
  <path d="M662.9 258.0 L664.7 267.7 L666.7 278.4 L667.9 284.4 L669.9 290.1 L671.0 288.2 L671.3 276.7" fill="none" stroke="rgb(46,194,126)" stroke-opacity="1.000" stroke-width="8" stroke-linecap="round" stroke-linejoin="round"/>
  <path d="M670.1 261.7 L673.3 278.2 L674.0 282.1 L676.0 291.6 L679.2 296.9 L681.0 292.2 L681.4 287.7" fill="none" stroke="rgb(46,194,126)" stroke-opacity="1.000" stroke-width="8" stroke-linecap="round" stroke-linejoin="round"/>
  <path d="M681.5 266.5 L684.8 281.1 L687.1 293.6 L687.6 296.9 L690.1 305.1 L691.3 302.6 L691.7 293.7 L691.5 290.5" fill="none" stroke="rgb(46,194,126)" stroke-opacity="1.000" stroke-width="8" stroke-linecap="round" stroke-linejoin="round"/>
  <path d="M690.5 279.6 L693.7 301.5 L695.2 304.4 L695.8 304.5 L696.8 299.8 L695.8 288.3 L694.0 278.0 L694.0 280.9 L696.0 294.9 L697.7 306.5 L698.9 308.9 L699.6 303.1 L699.1 294.7" fill="none" stroke="rgb(46,194,126)" stroke-opacity="1.000" stroke-width="8" stroke-linecap="round" stroke-linejoin="round"/>
  <path d="M697.1 279.8 L699.3 299.7 L699.8 306.3 L700.1 313.1 L699.9 316.5 L699.7 316.8" fill="none" stroke="rgb(46,194,126)" stroke-opacity="1.000" stroke-width="8" stroke-linecap="round" stroke-linejoin="round"/>
  <path d="M594.3 265.3 L594.7 265.9 L594.7 265.4 L594.8 265.0 L594.7 256.9 L592.6 247.7 L589.2 236.6 L587.6 231.9 L588.5 235.0 L592.5 247.9 L596.1 262.1 L598.0 270.5 L598.5 272.6 L598.3 270.8 L595.7 260.4 L592.7 247.0 L590.7 236.4 L591.1 237.2 L595.9 254.0 L601.2 268.6 L606.0 277.2 L608.9 278.4 L609.4 271.9 L607.6 260.1 L606.4 252.7 L607.1 254.7 L611.5 270.6 L615.8 281.8 L618.8 285.9 L619.3 282.0 L617.7 271.4 L617.1 267.8" fill="none" stroke="rgb(46,194,126)" stroke-opacity="1.000" stroke-width="8" stroke-linecap="round" stroke-linejoin="round"/>
  <path d="M615.0 253.2 L625.1 277.9 L629.1 288.2 L630.1 289.4 L630.5 285.7 L628.6 274.9" fill="none" stroke="rgb(46,194,126)" stroke-opacity="1.000" stroke-width="8" stroke-linecap="round" stroke-linejoin="round"/>
  <path d="M626.4 263.0 L631.2 277.0 L634.6 287.3 L635.6 289.8 L638.8 293.5 L639.0 286.3 L638.4 280.0" fill="none" stroke="rgb(46,194,126)" stroke-opacity="1.000" stroke-width="8" stroke-linecap="round" stroke-linejoin="round"/>
  <path d="M636.9 266.6 L642.8 280.3 L645.5 291.1 L646.9 295.1 L648.7 297.0 L649.7 290.4 L649.7 280.4" fill="none" stroke="rgb(46,194,126)" stroke-opacity="1.000" stroke-width="8" stroke-linecap="round" stroke-linejoin="round"/>
  <path d="M649.6 269.4 L657.1 293.6 L658.2 299.2 L659.4 302.2 L661.5 302.5 L663.1 294.5 L663.2 280.6 L664.5 278.7 L666.2 291.3 L668.2 303.2 L671.0 306.8 L673.9 303.3 L675.7 294.1 L676.6 285.4 L679.0 293.4 L681.3 308.3 L683.6 315.3 L686.3 314.5 L689.0 305.1 L689.2 294.8 L690.1 306.8 L690.1 309.6 L690.4 313.7 L691.2 315.9 L693.8 316.3 L697.5 313.1 L699.2 307.2 L700.5 317.3 L700.7 319.6 L701.1 323.6" fill="none" stroke="rgb(46,194,126)" stroke-opacity="1.000" stroke-width="8" stroke-linecap="round" stroke-linejoin="round"/>
  <path d="M807.6 348.6 L808.4 349.4 L809.4 350.6 L810.3 351.7 L810.6 352.5 L811.0 353.2 L811.6 354.1 L812.1 354.9 L812.9 353.9 L814.3 352.0 L815.7 349.5 L816.3 348.3 L816.3 349.4 L815.7 353.8 L815.1 359.0 L815.4 360.4 L817.1 358.5 L819.4 352.1 L820.2 346.3 L820.5 343.8 L820.4 348.1 L819.7 359.1 L819.9 370.3 L821.3 371.4 L823.1 367.8 L824.5 361.4 L825.2 356.7" fill="none" stroke="rgb(46,194,126)" stroke-opacity="1.000" stroke-width="8" stroke-linecap="round" stroke-linejoin="round"/>
  <path d="M826.5 348.1 L825.3 373.2 L824.9 376.1 L825.2 381.5 L827.7 382.0 L832.0 378.2 L833.8 374.7" fill="none" stroke="rgb(46,194,126)" stroke-opacity="1.000" stroke-width="8" stroke-linecap="round" stroke-linejoin="round"/>
  <path d="M837.3 362.8 L835.7 383.4 L835.8 386.7 L837.9 393.3 L845.3 394.7 L851.3 390.9 L854.8 384.2 L855.2 383.5 L853.5 390.5 L853.4 396.5 L857.7 396.5 L861.6 392.9 L863.4 386.7 L863.5 385.8 L861.8 394.8 L860.7 407.6 L864.8 410.8 L871.9 408.3 L876.5 403.5" fill="none" stroke="rgb(46,194,126)" stroke-opacity="1.000" stroke-width="8" stroke-linecap="round" stroke-linejoin="round"/>
  <path d="M879.9 394.4 L875.1 409.9 L874.9 412.2 L876.9 416.6 L884.8 417.7 L892.0 414.3 L897.0 408.6 L897.1 410.4 L893.2 422.1 L892.9 429.4 L898.0 431.5 L906.7 427.3 L909.7 423.5" fill="none" stroke="rgb(46,194,126)" stroke-opacity="1.000" stroke-width="8" stroke-linecap="round" stroke-linejoin="round"/>
  <path d="M913.2 415.6 L906.6 436.0 L906.8 439.9 L909.8 443.5 L917.2 443.5 L926.5 437.7" fill="none" stroke="rgb(46,194,126)" stroke-opacity="1.000" stroke-width="8" stroke-linecap="round" stroke-linejoin="round"/>
  <path d="M933.6 429.2 L930.0 444.2 L928.0 450.5 L928.1 451.8 L931.9 454.2 L937.4 451.2 L944.5 439.6 L946.8 435.3 L945.1 444.6 L941.7 456.2 L942.7 462.8 L945.8 462.2 L948.9 456.0 L951.8 443.9 L952.4 441.3 L950.1 450.9 L946.7 462.2 L947.0 464.6 L948.7 462.9 L950.8 456.9 L951.3 455.0 L948.1 461.9 L941.5 469.9 L936.7 469.8 L929.7 463.1 L921.4 450.7" fill="none" stroke="rgb(46,194,126)" stroke-opacity="1.000" stroke-width="8" stroke-linecap="round" stroke-linejoin="round"/>
  <path d="M869.9 412.6 L867.1 407.6 L865.8 404.1 L863.5 394.3 L861.6 382.6 L859.5 372.5 L856.2 376.8 L851.7 390.8 L848.8 400.2 L849.4 401.4 L853.6 395.0 L855.1 385.2 L854.2 376.6 L852.5 378.1 L848.2 387.0 L845.7 392.2 L846.0 390.3 L846.2 384.2 L844.5 378.3 L842.4 377.9 L838.3 384.1 L837.0 386.4" fill="none" stroke="rgb(46,194,126)" stroke-opacity="1.000" stroke-width="8" stroke-linecap="round" stroke-linejoin="round"/>
  <path d="M812.1 395.3 L810.4 395.9 L809.6 396.1 L810.2 392.6 L811.2 389.6 L812.2 383.9 L812.5 375.1 L812.5 372.4 L812.3 379.1 L810.7 398.1 L809.9 404.6 L810.8 404.9 L813.2 399.2 L814.4 388.3 L814.7 378.0 L814.3 385.7 L812.8 400.3 L812.9 412.5 L817.5 411.9 L823.2 406.3" fill="none" stroke="rgb(46,194,126)" stroke-opacity="1.000" stroke-width="8" stroke-linecap="round" stroke-linejoin="round"/>
  <path d="M827.0 393.1 L826.4 408.7 L826.1 416.8 L827.3 419.6 L832.3 420.6 L837.7 417.0 L841.6 408.9 L843.0 406.7 L842.6 415.7 L843.3 423.4 L847.6 425.9 L855.3 423.0 L859.5 416.1 L860.6 414.1 L860.6 423.6 L862.8 430.0 L869.4 432.5 L877.1 431.2 L882.6 426.6 L884.0 426.4 L882.8 435.5 L882.7 443.3 L887.2 447.0 L896.1 446.1 L901.6 441.0 L903.2 437.4 L901.2 445.4 L899.6 453.1 L902.3 457.6 L908.7 458.4 L913.3 454.9 L913.7 446.5 L910.4 450.8 L906.9 459.8 L908.4 466.3 L914.6 468.5 L923.7 465.8 L927.7 458.4 L920.7 470.0 L916.7 477.5 L916.2 479.5 L920.0 484.5 L927.1 482.4 L933.0 474.8 L935.3 468.8 L931.3 475.8 L923.2 484.6 L914.9 489.7 L913.5 490.3" fill="none" stroke="rgb(46,194,126)" stroke-opacity="1.000" stroke-width="8" stroke-linecap="round" stroke-linejoin="round"/>
  <path d="M1216.3 598.5 L1218.5 596.9 L1220.1 595.7 L1223.3 593.5 L1224.1 592.7 L1225.1 592.2 L1225.3 593.2 L1224.5 593.9" fill="none" stroke="rgb(46,194,126)" stroke-opacity="1.000" stroke-width="8" stroke-linecap="round" stroke-linejoin="round"/>
  <path d="M553.9 243.4 L553.9 242.9 L553.3 239.8 L553.2 239.2 L553.1 238.4 L552.9 237.7 L552.7 237.0 L552.5 236.4" fill="none" stroke="rgb(46,194,126)" stroke-opacity="1.000" stroke-width="8" stroke-linecap="round" stroke-linejoin="round"/>
  <path d="M574.8 239.4 L574.8 237.9 L574.7 230.6 L574.6 230.0 L575.2 232.5 L575.6 234.8 L576.4 239.0 L577.4 243.6 L577.8 245.3 L578.1 243.7 L578.1 243.2 L578.0 242.1 L577.8 242.3 L577.8 242.8" fill="none" stroke="rgb(46,194,126)" stroke-opacity="1.000" stroke-width="8" stroke-linecap="round" stroke-linejoin="round"/>
  <path d="M620.9 288.0 L621.2 287.9 L621.3 282.2 L621.3 281.7 L622.1 284.0 L622.9 286.9 L624.0 290.6 L624.3 291.6 L624.7 290.0 L624.8 288.9 L624.8 288.5 L625.3 290.1 L625.6 291.2 L625.8 292.3 L626.3 293.8" fill="none" stroke="rgb(46,194,126)" stroke-opacity="1.000" stroke-width="8" stroke-linecap="round" stroke-linejoin="round"/>
  <path d="M694.4 332.3 L694.2 331.3 L694.3 329.0 L694.5 328.1 L694.6 327.6 L695.3 330.3 L695.4 331.3 L696.1 334.9 L696.7 337.3 L696.8 336.8 L696.9 335.9 L696.9 335.2 L696.9 334.2 L696.8 334.6 L696.5 335.3" fill="none" stroke="rgb(46,194,126)" stroke-opacity="1.000" stroke-width="8" stroke-linecap="round" stroke-linejoin="round"/>
  <path d="M650.5 299.6 L651.3 300.6 L651.5 303.2 L651.6 304.4 L651.7 306.0 L652.3 307.9 L652.7 308.5 L653.9 307.3 L655.4 304.8 L656.2 303.8 L656.6 304.0 L656.7 306.3 L656.9 308.9 L657.3 310.9 L658.0 311.7 L658.6 311.6 L658.9 311.5 L659.2 313.2 L659.7 315.9 L660.4 318.4 L661.3 319.6 L661.8 319.7 L661.9 319.3 L661.3 318.8" fill="none" stroke="rgb(46,194,126)" stroke-opacity="0.580" stroke-width="8" stroke-linecap="round" stroke-linejoin="round"/>
  <path d="M665.4 327.9 L665.2 327.0 L664.5 324.1 L664.2 322.1 L663.7 320.0 L663.4 318.5 L663.4 319.2 L663.9 322.2 L664.1 323.3 L664.7 327.6 L664.7 328.3 L665.0 326.8 L665.5 323.9 L665.6 321.8 L666.0 323.6 L666.3 325.6 L666.6 326.2 L667.3 325.7 L668.0 322.3 L668.3 320.1 L669.1 322.6 L670.1 324.7 L670.5 325.2 L672.9 325.4 L673.4 325.0" fill="none" stroke="rgb(46,194,126)" stroke-opacity="0.580" stroke-width="22" stroke-linecap="round" stroke-linejoin="round"/>
  <path d="M675.7 321.7 L676.5 322.6 L676.6 323.7 L677.1 327.1 L678.8 329.3 L680.3 327.5 L681.8 324.4 L683.5 319.2 L684.0 317.4 L684.8 320.2 L686.8 328.3 L689.9 333.2 L692.9 334.3 L695.2 331.0 L695.3 326.7 L695.1 324.5 L695.1 328.0 L695.8 333.5 L698.1 337.0 L699.3 335.6 L699.9 332.2 L700.1 326.3 L700.1 325.4 L699.9 330.6 L700.0 338.4 L700.7 340.8 L701.7 337.4 L702.7 331.7 L703.3 327.8" fill="none" stroke="rgb(46,194,126)" stroke-opacity="0.580" stroke-width="22" stroke-linecap="round" stroke-linejoin="round"/>
  <path d="M705.0 318.1 L704.8 329.6" fill="none" stroke="rgb(46,194,126)" stroke-opacity="0.580" stroke-width="22" stroke-linecap="round" stroke-linejoin="round"/>
  <path d="M705.8 337.6 L706.1 334.4 L706.1 331.8" fill="none" stroke="rgb(46,194,126)" stroke-opacity="0.580" stroke-width="22" stroke-linecap="round" stroke-linejoin="round"/>
  <path d="M706.2 323.9 L707.3 330.8 L707.8 338.2 L707.9 339.2 L708.1 339.8 L707.8 334.4 L706.9 328.2" fill="none" stroke="rgb(46,194,126)" stroke-opacity="0.580" stroke-width="22" stroke-linecap="round" stroke-linejoin="round"/>
  <path d="M702.5 302.1 L702.5 311.6" fill="none" stroke="rgb(46,194,126)" stroke-opacity="0.580" stroke-width="22" stroke-linecap="round" stroke-linejoin="round"/>
  <path d="M700.4 312.7 L699.2 306.4 L698.6 303.4 L698.0 301.5 L696.7 303.0 L696.1 303.7 L695.2 303.6 L693.3 302.0 L689.9 298.9 L686.2 296.3 L682.6 295.7 L678.2 300.0 L675.7 304.5 L675.5 305.8 L675.8 302.9 L675.9 297.4 L675.2 289.5 L674.4 283.2 L674.1 284.8 L674.0 298.6 L673.8 309.7 L674.1 314.5 L674.7 312.3 L673.9 305.9 L672.1 298.8 L670.9 296.5" fill="none" stroke="rgb(46,194,126)" stroke-opacity="0.580" stroke-width="22" stroke-linecap="round" stroke-linejoin="round"/>
  <path d="M679.3 289.3 L679.3 287.6 L679.3 286.9 L678.9 283.9 L677.9 280.4 L677.0 278.6 L676.1 277.7 L673.1 279.9 L669.7 285.8 L667.7 293.4 L668.5 299.0 L669.7 300.4 L670.1 298.5 L670.4 294.1 L669.9 284.5 L669.5 280.0" fill="none" stroke="rgb(46,194,126)" stroke-opacity="0.580" stroke-width="43" stroke-linecap="round" stroke-linejoin="round"/>
  <path d="M667.5 275.2 L667.1 285.7 L666.5 300.4 L666.5 308.8 L666.3 313.2 L666.3 314.1" fill="none" stroke="rgb(46,194,126)" stroke-opacity="0.580" stroke-width="43" stroke-linecap="round" stroke-linejoin="round"/>
  <path d="M662.8 293.5 L661.3 286.9 L659.2 280.9 L656.9 277.1 L654.8 276.3 L652.4 280.6 L650.5 286.5 L648.3 292.6 L646.0 300.1 L644.9 304.4 L644.7 306.8 L644.6 305.7 L644.3 301.0 L643.2 291.5 L641.5 283.2 L639.2 278.1 L637.1 277.8 L634.9 285.4 L633.6 294.5 L633.4 303.1 L634.0 307.9 L634.4 306.8 L633.9 298.6 L632.8 288.7 L631.4 279.4 L629.9 274.1 L629.1 274.7 L629.2 284.3 L628.9 293.8 L628.4 299.9 L628.0 299.8 L626.9 293.3 L623.9 281.4 L621.2 272.4 L619.0 268.6 L617.3 270.2 L616.3 277.9 L616.3 281.3 L616.1 280.3 L614.9 274.7 L612.7 267.0 L610.9 261.6 L610.0 262.3 L609.2 268.6 L609.1 270.6 L608.7 268.4 L607.8 263.3 L606.1 257.1 L603.8 252.2 L602.6 255.3 L602.0 263.0 L602.3 265.6 L602.8 263.8 L602.7 259.5 L601.7 253.6 L601.1 252.6 L601.0 257.4 L601.7 266.3 L601.8 268.4 L601.6 267.4 L600.3 262.4 L598.9 258.3 L598.4 259.3 L598.2 266.7 L598.5 275.9 L600.2 283.6 L602.9 285.2 L607.7 283.2 L611.7 280.7 L614.7 281.9 L617.0 290.4 L618.8 299.4 L622.8 307.6 L624.8 309.2" fill="none" stroke="rgb(46,194,126)" stroke-opacity="0.580" stroke-width="43" stroke-linecap="round" stroke-linejoin="round"/>
  <path d="M634.9 308.0 L635.4 307.5 L635.6 308.6 L636.8 311.6 L637.4 312.3 L641.5 314.0 L647.8 313.8 L653.4 312.0 L654.3 311.2 L653.9 313.2 L654.2 317.1 L657.4 320.6 L661.2 320.1 L665.6 316.6 L666.6 313.7 L665.7 315.4 L665.6 322.3 L667.6 326.1 L671.1 327.0 L674.8 323.5 L676.4 320.3 L676.7 319.7 L676.4 324.7 L677.5 331.0 L681.9 335.7 L684.1 336.1" fill="none" stroke="rgb(46,194,126)" stroke-opacity="0.580" stroke-width="43" stroke-linecap="round" stroke-linejoin="round"/>
  <path d="M691.0 333.0 L691.7 333.5 L691.7 337.5 L692.3 340.8 L694.3 346.0 L698.3 348.5 L701.2 347.7 L701.7 345.2 L700.5 344.7 L698.9 347.1 L698.7 351.3 L699.9 352.9" fill="none" stroke="rgb(46,194,126)" stroke-opacity="0.580" stroke-width="43" stroke-linecap="round" stroke-linejoin="round"/>
  <path d="M821.0 431.5 L819.8 430.8 L818.9 430.1 L818.0 428.7 L817.4 426.7 L817.2 424.6 L816.8 418.4 L816.4 407.3 L816.2 401.1 L816.1 408.7 L816.1 418.0 L816.0 423.6 L816.1 430.8 L816.6 431.3 L817.3 424.2 L817.3 414.3 L817.0 399.0 L817.0 396.2" fill="none" stroke="rgb(46,194,126)" stroke-opacity="0.580" stroke-width="43" stroke-linecap="round" stroke-linejoin="round"/>
  <path d="M817.9 386.5 L817.4 399.0 L817.1 407.6 L816.9 411.4 L816.9 413.5 L817.1 407.9 L817.5 396.6 L818.6 384.6" fill="none" stroke="rgb(46,194,126)" stroke-opacity="0.580" stroke-width="43" stroke-linecap="round" stroke-linejoin="round"/>
  <path d="M820.1 376.3 L818.8 399.2 L818.4 404.0 L818.3 404.9 L818.6 403.0 L819.3 397.3 L820.4 387.5 L821.3 382.8 L821.9 388.0 L822.3 398.3 L825.2 406.2 L829.0 406.6 L833.3 403.2 L837.8 397.5 L839.5 399.4 L839.3 413.5 L839.3 424.0 L841.4 427.9 L845.5 423.2 L848.6 414.9 L851.8 404.3 L851.9 406.0 L850.4 420.1 L850.1 432.3 L852.4 439.3 L857.6 439.0 L862.3 433.5 L868.1 423.1 L870.8 421.3 L869.8 429.1 L866.8 440.2 L867.6 448.8 L871.5 448.8 L878.1 442.4 L883.3 434.3 L886.5 430.8 L884.6 440.7 L878.2 461.3 L876.1 471.5 L881.8 475.1 L891.7 471.0 L903.5 457.9 L907.5 453.1 L904.0 457.7 L894.4 472.3 L890.9 479.9 L893.9 480.9 L901.9 473.7 L907.7 462.7 L910.4 455.6 L908.5 462.2 L902.7 478.0 L899.0 489.1 L901.4 490.0 L909.2 483.7 L914.9 471.9 L917.7 462.0 L915.0 466.5 L909.1 479.7 L906.2 489.4 L909.3 489.5 L914.3 481.6 L918.4 465.3 L919.6 459.2 L917.9 464.4 L912.2 480.7 L911.5 487.8 L917.2 487.3 L923.2 480.8 L929.1 465.0 L929.9 459.8 L924.5 468.4 L920.9 479.8 L922.6 483.5 L926.5 480.3 L930.2 473.2 L931.7 465.0 L928.9 465.6 L922.9 474.2 L919.6 481.9 L919.0 483.8 L918.4 481.0 L911.1 473.8 L896.8 468.8 L875.0 467.3 L859.3 468.9 L857.0 469.9 L860.7 468.2 L860.5 463.5 L855.2 457.8 L848.2 458.7 L834.2 465.8 L824.6 466.9 L823.8 466.4" fill="none" stroke="rgb(46,194,126)" stroke-opacity="0.580" stroke-width="43" stroke-linecap="round" stroke-linejoin="round"/>
  <path d="M828.0 438.1 L823.8 440.7 L818.5 448.4 L813.2 455.8 L813.2 456.7" fill="none" stroke="rgb(46,194,126)" stroke-opacity="0.580" stroke-width="43" stroke-linecap="round" stroke-linejoin="round"/>
  <path d="M818.2 438.4 L815.5 439.2 L814.1 440.9 L811.3 446.2 L810.3 451.5 L812.9 453.5 L818.9 452.0 L820.3 450.4 L816.2 452.3 L811.3 456.4 L809.2 460.4 L811.4 460.9 L813.8 459.6 L811.8 457.8 L808.7 456.4" fill="none" stroke="rgb(46,194,126)" stroke-opacity="0.580" stroke-width="43" stroke-linecap="round" stroke-linejoin="round"/>
  <path d="M770.0 337.5 L769.8 336.0 L769.8 335.0 L769.9 334.4 L769.7 333.0 L769.2 331.9 L768.9 331.3 L768.5 330.2 L767.8 328.4 L767.3 326.9 L767.1 326.1 L767.1 325.1 L767.3 324.7 L767.5 323.2 L767.5 321.4 L767.4 320.8 L766.6 319.1 L765.8 318.9 L764.9 319.1 L763.2 320.2 L762.7 320.8" fill="none" stroke="rgb(53,132,228)" stroke-opacity="0.580" stroke-width="26" stroke-linecap="round" stroke-linejoin="round"/>
  <path d="M762.1 314.4 L761.3 314.8 L760.8 314.9" fill="none" stroke="rgb(53,132,228)" stroke-opacity="0.580" stroke-width="26" stroke-linecap="round" stroke-linejoin="round"/>
  <path d="M761.5 314.6 L761.1 317.8 L760.4 327.9 L761.3 332.3 L762.6 337.0 L762.5 341.5 L761.2 345.4 L760.2 348.3 L760.0 349.6 L760.2 351.1 L760.5 353.2 L760.0 356.7 L760.9 359.3 L763.0 361.9 L763.4 364.1 L760.7 367.4 L757.2 369.6 L757.1 371.9 L760.3 373.7 L762.6 374.3 L761.9 374.4 L760.7 375.3 L759.2 376.5 L757.7 378.1 L756.9 380.1" fill="none" stroke="rgb(53,132,228)" stroke-opacity="0.580" stroke-width="26" stroke-linecap="round" stroke-linejoin="round"/>
  <path d="M759.8 381.4 L759.0 381.1 L755.4 381.5 L752.0 382.6 L751.1 383.4" fill="none" stroke="rgb(53,132,228)" stroke-opacity="0.580" stroke-width="26" stroke-linecap="round" stroke-linejoin="round"/>
  <path d="M755.3 382.9 L754.1 383.6 L753.1 384.4 L751.1 386.2 L749.8 386.9 L748.9 386.7 L748.3 386.6 L746.9 387.0 L746.9 387.6 L747.8 388.0 L746.1 388.5 L744.9 388.8 L742.5 389.5 L739.7 390.8 L738.4 392.6 L738.5 393.8 L739.0 395.0 L737.5 397.0 L736.6 397.5 L735.7 398.3 L735.4 398.6 L734.4 399.1 L731.4 399.6 L729.5 400.0 L729.4 400.7 L730.7 401.2 L731.0 400.8 L730.3 400.3 L728.8 399.4 L727.8 398.4 L726.0 397.0 L725.2 396.7 L725.3 396.3 L725.4 395.8 L723.5 395.1 L720.6 394.3 L719.9 393.5 L719.5 392.8 L718.7 392.5 L718.3 392.5 L715.6 393.8 L713.9 394.7 L714.8 395.5 L717.0 395.6 L718.7 396.2 L719.0 398.3 L718.8 402.1 L718.3 405.5 L718.9 409.0 L720.9 410.7 L722.4 411.5 L723.1 411.9 L723.5 413.1 L723.7 415.8 L724.5 419.1 L727.4 421.7 L732.7 425.3 L732.5 427.9 L728.5 428.8 L725.8 429.6 L726.2 429.6 L725.5 428.8" fill="none" stroke="rgb(53,132,228)" stroke-opacity="0.580" stroke-width="26" stroke-linecap="round" stroke-linejoin="round"/>
  <path d="M759.5 375.8 L760.2 376.3 L760.3 377.2 L760.1 378.3 L759.1 380.4 L757.1 383.6 L756.6 385.1" fill="none" stroke="rgb(53,132,228)" stroke-opacity="0.580" stroke-width="26" stroke-linecap="round" stroke-linejoin="round"/>
  <path d="M754.3 391.2 L754.8 391.2 L755.5 390.9 L757.0 390.0 L760.0 387.3 L762.3 384.1 L764.1 378.5 L764.5 374.8 L764.4 374.0 L764.5 371.6 L765.0 369.9 L765.5 368.5 L766.1 364.8 L766.1 362.3 L765.9 359.8 L765.7 358.3 L765.5 356.3 L766.1 354.3 L766.5 353.0 L765.0 350.8 L763.3 349.2 L763.4 346.8 L764.9 343.6 L765.4 341.0 L765.6 337.8 L765.0 335.1 L764.0 333.3 L763.8 330.7 L764.6 328.7 L765.0 326.2 L764.9 324.3 L764.7 321.8 L764.9 319.8 L765.0 318.0 L764.8 316.4 L764.9 315.3 L765.6 314.2 L766.2 313.8 L766.2 313.2 L765.0 311.8 L763.1 309.7 L762.4 307.1 L762.3 304.9 L761.4 303.3 L760.7 302.6 L760.8 301.6 L759.8 299.5 L759.2 298.3 L758.8 297.0 L758.7 294.6 L758.0 292.4 L757.1 290.7 L757.0 290.0 L757.3 289.3 L757.5 288.1 L757.8 287.1 L758.1 285.7 L758.2 285.2 L757.7 284.5 L758.2 284.9 L758.3 285.8 L758.1 286.5 L757.4 287.5 L757.0 289.7 L756.3 293.9 L756.8 298.0 L759.3 302.6 L761.5 308.2 L761.9 313.6 L761.4 320.5 L761.3 326.9 L762.9 331.2 L765.0 335.6 L765.7 339.0 L765.5 343.1 L765.1 347.1 L764.0 350.6 L762.0 354.7 L761.5 358.0 L762.4 361.5 L762.2 364.7 L759.7 367.3 L755.3 370.6 L752.6 374.1 L752.4 376.6 L752.8 377.8 L751.5 379.2 L746.1 380.0 L741.1 380.6 L740.4 381.3 L741.0 382.3 L738.5 383.4 L733.3 384.7 L730.2 385.9 L728.4 387.5 L727.5 388.9 L723.8 391.1 L717.4 393.2 L715.0 396.2 L717.5 398.8 L723.3 402.7 L726.2 406.5 L725.6 409.7 L723.7 413.9 L723.6 417.9 L725.8 423.4 L727.9 429.3 L728.5 432.7" fill="none" stroke="rgb(53,132,228)" stroke-opacity="0.580" stroke-width="26" stroke-linecap="round" stroke-linejoin="round"/>
  <path d="M742.0 171.9 L742.1 172.7 L741.5 173.5 L740.5 174.3 L737.3 175.5 L732.9 175.0 L729.3 171.4 L728.7 166.9 L730.7 163.9 L733.5 164.9 L735.0 168.8 L734.6 177.6 L730.0 182.9 L725.7 183.0 L720.6 177.0 L718.8 170.8 L719.0 162.9 L720.0 160.6 L720.9 164.1 L719.1 174.0 L714.8 179.1 L708.9 180.0 L704.0 174.5 L702.3 168.2 L702.1 164.1 L702.4 165.1 L701.5 171.8 L696.6 176.1 L692.9 175.6" fill="none" stroke="rgb(53,132,228)" stroke-opacity="0.580" stroke-width="26" stroke-linecap="round" stroke-linejoin="round"/>
  <path d="M689.6 169.6 L688.0 171.3 L686.1 171.2 L683.5 169.8" fill="none" stroke="rgb(53,132,228)" stroke-opacity="0.580" stroke-width="26" stroke-linecap="round" stroke-linejoin="round"/>
  <path d="M680.0 158.3 L679.0 160.5 L676.9 161.2 L675.1 160.8" fill="none" stroke="rgb(53,132,228)" stroke-opacity="0.580" stroke-width="26" stroke-linecap="round" stroke-linejoin="round"/>
  <path d="M665.9 140.4 L665.4 143.3 L664.9 145.3 L663.1 149.1 L659.0 150.9 L655.7 148.4 L653.3 141.9 L653.5 135.1 L654.6 134.9 L655.1 140.4 L652.6 146.3 L648.5 147.6 L645.0 143.9 L643.7 137.4 L643.6 132.0 L643.5 139.1 L643.1 140.0 L641.0 141.1 L639.3 138.7 L638.5 131.5 L638.5 125.4 L637.2 123.5 L634.2 128.0 L632.0 130.9 L630.7 130.4" fill="none" stroke="rgb(53,132,228)" stroke-opacity="0.580" stroke-width="26" stroke-linecap="round" stroke-linejoin="round"/>
  <path d="M624.4 111.8 L623.7 111.3 L622.9 113.0 L620.4 118.0 L619.1 119.2 L618.1 116.1 L617.9 111.9 L618.0 108.5 L618.2 109.9 L618.3 116.5 L617.8 121.1 L617.6 122.7 L617.4 120.8 L616.9 115.5 L615.9 108.8 L615.7 107.4 L616.6 113.3 L616.4 119.3 L615.2 121.8 L613.5 119.2 L611.3 112.7 L609.4 106.4 L609.1 105.7" fill="none" stroke="rgb(53,132,228)" stroke-opacity="0.580" stroke-width="26" stroke-linecap="round" stroke-linejoin="round"/>
  <path d="M815.1 285.2 L814.6 283.2 L813.8 284.3 L813.5 286.2 L813.4 288.2 L814.8 292.0 L818.5 292.9 L819.5 292.7" fill="none" stroke="rgb(53,132,228)" stroke-opacity="0.580" stroke-width="26" stroke-linecap="round" stroke-linejoin="round"/>
  <path d="M837.8 297.5 L838.4 296.3 L837.6 298.3 L837.2 301.1 L838.1 303.0 L842.6 305.8 L851.0 306.7 L855.8 305.6 L856.6 305.1 L855.0 307.8 L855.6 312.3 L859.0 315.7 L861.9 315.1 L866.1 311.7 L869.1 308.9 L869.8 309.3 L870.5 314.2 L875.3 320.6 L882.3 323.4 L888.0 321.7 L892.5 316.6 L893.3 313.8 L891.9 316.0 L891.1 321.9 L893.2 325.0 L897.6 324.6 L902.2 322.3 L903.5 321.2 L903.2 324.4 L904.3 329.8 L910.3 334.9 L918.6 335.2 L924.7 333.2 L927.8 330.3 L927.1 331.2 L925.5 337.0 L927.9 341.3 L932.6 341.1 L937.6 339.0 L940.1 337.7 L938.6 340.6 L938.7 345.2 L944.5 349.9 L953.8 350.7 L960.6 349.4 L963.4 347.3 L961.8 352.4 L962.3 354.4 L964.7 357.1 L971.0 359.7 L974.5 357.9 L975.0 354.9 L974.7 352.3 L974.4 353.4 L972.8 359.5 L975.0 361.8 L977.3 359.9 L978.6 356.2 L977.9 354.8" fill="none" stroke="rgb(53,132,228)" stroke-opacity="0.580" stroke-width="26" stroke-linecap="round" stroke-linejoin="round"/>
  <path d="M805.4 255.5 L805.4 254.4 L804.2 253.5 L801.7 255.6 L797.7 260.1 L796.5 262.9 L798.2 263.4" fill="none" stroke="rgb(53,132,228)" stroke-opacity="0.580" stroke-width="26" stroke-linecap="round" stroke-linejoin="round"/>
  <path d="M801.1 260.7 L799.5 258.3 L798.5 259.4 L797.3 262.8 L797.3 270.0 L800.2 275.3 L803.8 275.3 L804.0 273.2 L800.8 272.7 L797.9 279.5 L798.9 285.9 L804.8 291.8 L806.9 292.3" fill="none" stroke="rgb(53,132,228)" stroke-opacity="0.580" stroke-width="26" stroke-linecap="round" stroke-linejoin="round"/>
  <path d="M751.2 174.4 L752.4 174.6 L755.2 175.1 L758.2 174.1 L759.8 171.6 L758.2 174.7 L758.3 177.3 L760.1 180.9 L767.4 182.3" fill="none" stroke="rgb(53,132,228)" stroke-opacity="0.580" stroke-width="26" stroke-linecap="round" stroke-linejoin="round"/>
  <path d="M774.1 176.5 L774.9 170.8 L774.8 171.9 L774.8 172.8 L776.2 177.0 L781.2 180.1" fill="none" stroke="rgb(53,132,228)" stroke-opacity="0.580" stroke-width="26" stroke-linecap="round" stroke-linejoin="round"/>
  <path d="M789.3 175.2 L789.9 173.3 L789.5 175.7 L791.1 178.2 L793.3 179.7 L799.2 180.7" fill="none" stroke="rgb(53,132,228)" stroke-opacity="0.580" stroke-width="26" stroke-linecap="round" stroke-linejoin="round"/>
  <path d="M800.5 177.5 L797.6 175.7" fill="none" stroke="rgb(53,132,228)" stroke-opacity="0.580" stroke-width="26" stroke-linecap="round" stroke-linejoin="round"/>
  <path d="M757.9 346.5 L756.3 345.3 L754.4 343.9 L753.2 342.7 L752.2 341.8 L751.4 340.9 L750.6 340.4 L750.0 340.4 L749.5 340.0 L749.6 338.0 L749.7 336.9 L749.6 336.2 L749.4 335.6 L749.7 334.7 L750.8 333.9 L751.9 333.9" fill="none" stroke="rgb(53,132,228)" stroke-opacity="0.580" stroke-width="26" stroke-linecap="round" stroke-linejoin="round"/>
  <path d="M844.1 177.1 L843.5 177.4 L843.7 178.8 L844.1 181.7 L844.5 183.9 L844.7 185.7 L845.2 189.3 L846.4 194.1 L847.8 198.1 L848.9 200.7 L850.3 204.0 L851.1 206.5 L852.3 209.9 L853.1 212.7 L854.5 216.4 L856.2 219.6 L857.2 221.5 L858.2 223.4 L858.3 221.3 L858.0 219.8 L856.8 217.1 L855.6 214.7" fill="none" stroke="rgb(255,120,0)" stroke-opacity="0.580" stroke-width="11" stroke-linecap="round" stroke-linejoin="round"/>
  <path d="M867.2 192.6 L867.2 193.6 L866.9 195.4 L866.6 197.4 L866.4 199.2 L866.1 204.9 L866.0 217.9 L865.9 220.3 L865.7 223.0 L865.6 225.5 L865.5 226.6 L865.1 225.6 L864.8 223.1 L864.7 221.5" fill="none" stroke="rgb(255,120,0)" stroke-opacity="0.580" stroke-width="11" stroke-linecap="round" stroke-linejoin="round"/>
  <path d="M851.2 189.1 L851.8 191.8 L852.0 194.8 L852.7 200.7 L853.5 208.3 L853.9 214.4 L854.2 215.6 L854.6 214.9 L856.3 207.7 L857.8 200.8 L858.5 198.4 L858.8 204.3 L859.5 214.7 L859.9 222.6 L860.2 224.4" fill="none" stroke="rgb(255,120,0)" stroke-opacity="0.580" stroke-width="11" stroke-linecap="round" stroke-linejoin="round"/>
  <path d="M843.1 204.7 L843.1 205.7 L843.6 207.3 L844.3 207.8 L845.2 209.3 L847.6 213.2 L849.8 216.7 L852.6 221.9 L854.5 225.0 L855.8 226.5 L857.0 226.1 L858.4 221.8 L860.1 216.3 L861.1 213.5 L860.2 217.5 L860.0 219.4 L860.3 222.7 L861.6 226.9 L863.6 229.9 L864.5 230.3 L865.2 227.5 L866.0 224.9 L866.0 226.4" fill="none" stroke="rgb(255,120,0)" stroke-opacity="0.580" stroke-width="11" stroke-linecap="round" stroke-linejoin="round"/>
  <path d="M881.3 231.7 L882.1 232.7 L882.6 234.3 L882.9 233.5" fill="none" stroke="rgb(255,120,0)" stroke-opacity="0.580" stroke-width="11" stroke-linecap="round" stroke-linejoin="round"/>
  <path d="M857.2 187.8 L857.6 186.5 L858.0 189.3 L858.3 191.5 L859.1 200.9 L860.4 213.6 L861.7 223.5 L862.1 224.6 L863.0 217.4 L863.6 208.7 L864.3 200.6 L864.5 199.9 L865.2 209.4 L865.7 222.9 L866.9 232.9 L867.5 236.2 L868.0 236.9" fill="none" stroke="rgb(255,120,0)" stroke-opacity="0.580" stroke-width="11" stroke-linecap="round" stroke-linejoin="round"/>
  <path d="M869.9 255.4 L870.8 260.1 L871.3 262.6 L871.6 265.4 L872.2 273.0 L872.8 280.6 L873.6 286.7 L874.1 288.7 L873.9 287.5 L872.8 282.1" fill="none" stroke="rgb(255,120,0)" stroke-opacity="0.580" stroke-width="11" stroke-linecap="round" stroke-linejoin="round"/>
  <path d="M872.1 273.9 L872.9 280.6 L873.9 288.6 L874.8 295.1 L877.5 308.5 L879.5 314.7 L881.2 316.1 L881.7 313.0" fill="none" stroke="rgb(255,120,0)" stroke-opacity="0.580" stroke-width="11" stroke-linecap="round" stroke-linejoin="round"/>
  <path d="M880.8 293.3 L880.9 295.8 L881.0 297.2 L881.9 305.1 L882.5 310.3 L882.6 311.4" fill="none" stroke="rgb(255,120,0)" stroke-opacity="0.580" stroke-width="11" stroke-linecap="round" stroke-linejoin="round"/>
  <path d="M891.5 189.1 L891.5 187.7 L891.6 186.7 L891.9 185.3 L892.8 183.1 L893.2 181.9 L893.7 181.2 L895.2 178.9 L896.6 176.9 L897.2 175.9 L897.1 177.3 L896.5 179.7 L896.2 180.4 L895.9 181.3 L895.8 182.3 L895.7 183.6 L895.6 184.6 L895.1 187.0 L893.0 193.3 L890.4 201.5 L888.7 211.0 L888.8 219.4 L891.1 226.0 L893.7 228.6 L896.0 226.9 L899.3 220.9 L902.8 212.2 L904.7 205.7 L901.0 210.4 L899.3 214.1 L896.4 221.2 L893.1 233.8 L892.9 241.0 L895.6 243.9 L899.9 240.5 L902.1 236.1 L901.4 233.5 L894.5 237.0 L889.9 241.4 L887.1 245.0 L889.9 240.7 L891.1 237.9 L892.2 234.1 L891.9 232.4 L886.9 237.3 L879.3 244.8 L874.8 247.7 L875.4 247.7" fill="none" stroke="rgb(255,120,0)" stroke-opacity="0.580" stroke-width="11" stroke-linecap="round" stroke-linejoin="round"/>
  <path d="M878.1 248.3 L880.8 246.1 L882.0 244.1 L882.2 243.1 L880.8 245.6 L881.7 246.8 L883.1 246.5 L883.7 245.9 L882.5 247.1 L881.8 248.1 L881.4 249.4 L881.6 251.0 L882.2 252.0" fill="none" stroke="rgb(255,120,0)" stroke-opacity="0.580" stroke-width="11" stroke-linecap="round" stroke-linejoin="round"/>
  <path d="M883.6 335.2 L883.1 335.7 L883.3 336.9 L887.1 340.6 L894.0 344.9 L899.0 348.3 L899.1 351.0 L896.6 353.4 L899.9 355.9 L906.9 358.6 L915.3 362.7 L915.1 366.0 L909.6 367.7 L907.3 369.5 L907.6 370.5 L912.6 372.2 L919.8 374.1" fill="none" stroke="rgb(255,120,0)" stroke-opacity="0.580" stroke-width="11" stroke-linecap="round" stroke-linejoin="round"/>
  <path d="M920.6 374.8 L909.7 374.0 L912.4 375.3" fill="none" stroke="rgb(255,120,0)" stroke-opacity="0.580" stroke-width="11" stroke-linecap="round" stroke-linejoin="round"/>
  <path d="M942.6 387.7 L940.6 388.6 L937.7 390.0 L936.8 391.7 L942.2 394.7 L948.9 397.3 L949.9 397.8 L948.5 397.5 L949.8 397.7 L951.5 397.8 L946.9 396.4 L942.7 395.5 L944.6 396.2 L947.5 397.1 L945.0 396.7 L937.6 394.8 L935.9 393.9 L938.1 393.0 L936.9 391.3 L927.3 386.7 L919.5 383.5 L921.6 383.0 L920.7 383.0 L917.5 382.7 L915.0 382.1 L909.0 379.3" fill="none" stroke="rgb(255,120,0)" stroke-opacity="0.580" stroke-width="11" stroke-linecap="round" stroke-linejoin="round"/>
  <path d="M898.5 372.7 L891.0 367.5 L890.1 366.8" fill="none" stroke="rgb(255,120,0)" stroke-opacity="0.580" stroke-width="11" stroke-linecap="round" stroke-linejoin="round"/>
  <path d="M883.7 361.7 L880.0 359.1 L877.0 357.5 L875.7 355.7 L876.0 354.6 L872.9 352.6 L868.3 349.9 L867.2 348.8" fill="none" stroke="rgb(255,120,0)" stroke-opacity="0.580" stroke-width="11" stroke-linecap="round" stroke-linejoin="round"/>
  <path d="M867.9 343.2 L861.4 341.8 L859.2 341.1 L857.0 340.4 L860.2 339.3 L868.2 339.4 L872.6 340.1" fill="none" stroke="rgb(255,120,0)" stroke-opacity="0.580" stroke-width="11" stroke-linecap="round" stroke-linejoin="round"/>
  <path d="M930.2 399.6 L931.8 399.2 L933.2 397.9 L934.1 397.0 L935.6 395.6 L936.7 394.5 L934.4 396.2 L932.9 398.8 L933.7 399.6 L936.8 400.9 L940.9 401.3 L941.9 401.6 L938.6 402.9 L936.1 404.7 L939.0 407.0 L943.6 409.0 L945.3 410.2 L942.7 412.0 L940.8 413.0 L943.2 414.9 L945.9 411.9 L943.7 407.3 L941.1 403.7 L934.5 398.5" fill="none" stroke="rgb(255,120,0)" stroke-opacity="0.580" stroke-width="11" stroke-linecap="round" stroke-linejoin="round"/>
  <path d="M868.1 210.2 L868.4 209.5 L868.2 208.4 L868.6 205.3 L868.8 204.2 L869.4 198.6 L868.9 190.8 L867.5 178.0 L865.2 165.3 L862.2 157.9 L858.5 157.4 L855.5 165.2 L854.8 181.9 L856.7 194.4 L860.4 205.2 L863.2 208.6 L864.9 203.9 L866.6 191.9 L869.6 175.9 L873.3 164.5 L874.9 162.2 L873.5 168.9 L868.1 185.8 L862.5 202.0 L861.4 209.6 L862.1 207.4 L865.0 192.9 L867.7 173.1" fill="none" stroke="rgb(255,120,0)" stroke-opacity="0.580" stroke-width="11" stroke-linecap="round" stroke-linejoin="round"/>
  <path d="M859.7 203.1 L860.7 211.8 L862.7 216.3 L865.9 221.4 L879.3 226.8 L900.4 224.3 L919.9 219.6 L927.5 218.3" fill="none" stroke="rgb(255,120,0)" stroke-opacity="0.580" stroke-width="11" stroke-linecap="round" stroke-linejoin="round"/>
  <path d="M914.7 223.8 L896.4 230.2 L901.9 231.8 L912.4 231.4 L920.4 231.2 L939.0 232.4 L944.1 234.7 L937.1 237.7 L932.5 238.9 L936.1 239.4 L946.3 237.2 L948.7 236.1 L933.4 236.5 L911.2 237.0 L897.7 235.4 L894.7 231.3 L900.2 223.2 L909.8 209.5 L912.7 199.8 L912.1 198.8" fill="none" stroke="rgb(255,120,0)" stroke-opacity="0.580" stroke-width="11" stroke-linecap="round" stroke-linejoin="round"/>
  <path d="M899.4 198.6 L877.8 203.6 L891.0 197.5 L904.4 187.6 L909.3 183.9" fill="none" stroke="rgb(255,120,0)" stroke-opacity="0.580" stroke-width="11" stroke-linecap="round" stroke-linejoin="round"/>
  <path d="M885.5 192.9 L870.0 196.3 L868.5 196.4 L869.3 195.3 L874.6 189.4 L885.3 177.3 L890.1 172.7 L889.1 174.7 L881.2 181.9 L869.3 191.3 L864.3 195.5 L865.7 193.5 L869.8 184.0 L870.0 173.5 L866.1 168.0" fill="none" stroke="rgb(255,120,0)" stroke-opacity="0.580" stroke-width="11" stroke-linecap="round" stroke-linejoin="round"/>
  <path d="M834.4 165.5 L830.5 165.1 L831.2 165.1" fill="none" stroke="rgb(255,120,0)" stroke-opacity="0.580" stroke-width="11" stroke-linecap="round" stroke-linejoin="round"/>
  <path d="M917.2 372.5 L918.0 372.9 L920.6 374.6 L921.5 375.3 L923.1 376.5 L926.1 378.5 L929.7 380.6 L932.6 382.4 L934.7 383.6 L937.2 385.1 L938.9 386.3 L941.5 388.4 L944.6 391.2 L948.3 394.2 L952.3 397.2 L955.0 399.8 L956.6 401.6 L958.1 403.7 L959.1 405.8 L960.0 407.8 L961.3 411.1 L962.2 414.1 L962.6 417.7 L963.3 421.6 L963.5 425.2 L963.4 428.4 L963.1 430.8 L962.8 432.8 L962.8 434.0 L962.8 435.4 L963.0 436.6 L963.0 435.9 L962.8 433.6" fill="none" stroke="rgb(255,120,0)" stroke-opacity="0.000" stroke-width="11" stroke-linecap="round" stroke-linejoin="round"/>
  <path d="M954.6 412.8 L954.3 412.0 L954.3 410.6 L954.8 410.3 L958.2 414.3 L960.6 417.4 L962.2 419.7 L965.1 424.7 L966.5 427.3 L966.7 428.8 L966.6 429.5 L966.5 430.5 L966.3 431.3 L966.1 432.4 L964.5 431.1" fill="none" stroke="rgb(255,120,0)" stroke-opacity="0.000" stroke-width="11" stroke-linecap="round" stroke-linejoin="round"/>
  <path d="M930.4 388.5 L932.5 386.6 L933.4 386.9 L935.2 388.4 L937.1 390.2 L944.1 395.8 L950.8 401.2 L953.9 404.7 L953.8 406.9 L952.3 409.4 L952.5 411.4 L955.5 413.3 L957.7 414.0 L959.4 414.6 L957.5 418.5 L957.1 419.2 L957.6 422.1 L964.0 426.6 L971.3 430.8 L974.8 432.8 L972.4 434.3 L966.0 435.5 L964.8 436.4 L968.3 437.9 L971.9 438.4 L970.6 439.5 L969.3 440.3 L968.4 441.4 L971.8 443.8 L980.3 446.2 L983.6 447.1 L980.2 446.5 L972.2 445.1 L978.1 444.6 L979.7 444.5 L974.1 441.0" fill="none" stroke="rgb(255,120,0)" stroke-opacity="0.000" stroke-width="11" stroke-linecap="round" stroke-linejoin="round"/>
  <path d="M918.5 396.2 L919.3 396.6 L919.8 396.3 L920.9 396.7 L925.9 397.8 L927.1 397.9 L924.7 397.8 L923.4 397.8 L922.7 398.0" fill="none" stroke="rgb(255,120,0)" stroke-opacity="0.340" stroke-width="11" stroke-linecap="round" stroke-linejoin="round"/>
  <path d="M938.2 391.9 L936.0 390.3 L935.0 389.3 L932.8 386.7 L930.9 384.8 L928.7 383.2 L927.8 382.8 L926.8 382.0 L925.4 381.3 L924.8 380.7 L926.6 381.5 L927.6 382.1 L932.5 384.6 L938.9 388.5 L941.4 391.5 L943.0 395.2 L944.0 398.4 L947.5 402.1 L952.8 405.7 L956.2 407.7 L957.6 408.5 L957.3 409.3 L956.4 411.3 L957.0 414.6 L958.5 417.4 L959.1 418.1" fill="none" stroke="rgb(255,120,0)" stroke-opacity="0.340" stroke-width="11" stroke-linecap="round" stroke-linejoin="round"/>
  <path d="M977.5 434.7 L979.1 434.2 L982.6 433.7 L984.4 433.5 L985.1 433.4 L983.2 438.6 L983.0 439.8 L983.4 443.7 L985.3 445.1 L990.3 444.6 L993.6 444.7 L990.8 446.3 L989.0 447.5" fill="none" stroke="rgb(255,120,0)" stroke-opacity="1.000" stroke-width="11" stroke-linecap="round" stroke-linejoin="round"/>
  <path d="M906.0 369.8 L906.4 370.6 L907.5 371.1 L910.5 372.7 L916.8 375.9 L923.1 379.4 L926.6 381.9 L930.0 384.9 L933.9 388.0 L938.1 390.6 L942.5 393.3 L946.4 396.3 L950.5 399.8 L954.9 403.2 L957.3 405.9 L958.2 408.1 L960.4 411.4 L964.3 414.9 L968.7 418.4 L972.5 421.6 L974.5 424.3 L976.6 427.2 L980.7 430.8 L986.4 434.9 L991.1 438.2 L994.1 441.3 L994.0 443.4 L994.1 444.9 L996.0 447.7 L997.5 449.1 L997.9 450.0 L993.8 450.1 L989.4 450.0 L989.1 450.7 L990.1 451.4 L988.9 452.1 L987.8 452.7 L987.1 452.9" fill="none" stroke="rgb(255,120,0)" stroke-opacity="1.000" stroke-width="11" stroke-linecap="round" stroke-linejoin="round"/>
  <path d="M999.7 466.4 L1000.5 467.2 L1000.9 468.0 L1001.5 468.8 L999.6 471.0 L991.7 470.9 L986.9 470.9 L984.7 471.5 L984.1 473.5 L989.6 473.5 L997.1 471.7 L1002.9 470.4 L1003.0 469.8 L995.5 470.0 L989.1 470.6 L997.1 470.7 L1000.8 469.6 L1001.6 469.2 L997.9 467.7 L988.1 468.1 L983.6 467.9 L989.2 467.3 L996.9 465.8 L998.4 464.6 L986.7 464.3 L987.1 465.5 L987.3 466.4 L986.2 467.6 L976.3 468.4 L963.1 468.6 L965.3 470.6 L978.7 476.0 L969.9 475.2 L967.2 475.0 L965.7 475.7 L966.1 478.1 L963.5 479.8 L958.9 479.9 L959.7 481.5 L968.1 485.9 L971.3 488.3 L965.1 487.8 L961.1 487.1 L963.0 488.9 L964.0 490.4 L958.5 490.9 L956.0 492.1 L958.7 494.1 L953.3 493.6 L942.6 491.8 L942.7 493.6 L951.0 498.9 L949.7 501.2 L938.6 501.0 L934.9 502.4 L941.1 507.6 L943.0 510.0 L934.0 509.7 L926.6 509.8 L934.2 515.0 L946.5 522.0 L942.6 523.5 L931.5 522.8 L926.6 524.7 L932.1 527.9 L928.8 527.2 L917.7 523.2 L922.5 524.1 L936.3 529.0 L941.8 532.6 L927.0 530.0 L911.2 527.0 L906.9 526.7 L907.1 527.4 L900.7 525.4 L890.4 521.3 L892.7 521.4 L906.2 526.0 L903.2 524.9 L880.4 517.2 L867.3 512.3 L872.4 511.2 L882.2 511.8 L876.3 507.7 L860.9 500.0 L858.4 496.6 L862.0 497.0 L869.8 498.4 L842.2 487.3 L844.6 486.8 L848.7 487.1 L857.4 488.3 L858.7 487.6 L849.7 484.3 L845.4 482.6 L847.3 483.2 L850.3 484.5 L851.6 485.8 L855.1 489.5 L857.1 493.0 L856.4 495.3 L847.9 495.1 L840.6 494.0 L843.7 494.6 L847.2 495.3 L839.2 493.0 L826.5 489.9 L822.2 488.4 L824.9 489.1 L817.3 486.8 L815.2 485.9 L814.4 485.2 L818.8 485.0 L819.1 484.1 L809.7 480.7 L801.3 477.3 L800.8 476.0 L805.8 474.8 L805.6 471.6 L799.0 468.5 L790.6 463.8 L790.7 460.8 L795.3 460.5 L796.0 460.0 L786.8 458.6 L782.3 458.4 L787.5 460.8 L793.6 463.5 L792.7 465.5 L791.7 465.7 L796.8 467.4" fill="none" stroke="rgb(255,120,0)" stroke-opacity="1.000" stroke-width="11" stroke-linecap="round" stroke-linejoin="round"/>
  <path d="M936.8 374.7 L937.5 375.2 L940.4 375.7 L941.3 375.7" fill="none" stroke="rgb(255,120,0)" stroke-opacity="1.000" stroke-width="11" stroke-linecap="round" stroke-linejoin="round"/>
  <path d="M971.7 386.9 L962.3 387.3 L949.3 388.0 L951.4 391.1 L969.6 397.3 L982.7 403.0 L980.7 405.0 L977.0 405.4 L975.9 406.5 L981.7 407.4 L982.6 407.5 L985.1 409.2 L989.1 410.9 L997.4 414.2 L1005.8 418.4 L999.5 418.7 L990.3 418.1 L994.5 420.3 L1000.7 422.4" fill="none" stroke="rgb(255,120,0)" stroke-opacity="1.000" stroke-width="11" stroke-linecap="round" stroke-linejoin="round"/>
  <path d="M1010.3 425.8 L998.6 423.8 L1003.1 426.2 L1008.6 428.3 L1017.3 431.7 L1019.2 433.4 L1011.2 432.8 L1009.8 433.7 L1021.5 438.4 L1036.8 444.0 L1038.6 446.1 L1034.6 446.0 L1038.2 448.9 L1049.1 454.5 L1050.1 457.1 L1039.9 457.6 L1038.4 460.8 L1053.3 468.3 L1062.6 474.4 L1052.5 475.6 L1040.0 476.8 L1038.1 480.9 L1041.1 485.5 L1041.2 488.6 L1035.7 489.9 L1035.1 493.5 L1044.7 500.4 L1048.1 505.2 L1039.8 507.4 L1034.2 510.2 L1035.3 514.6 L1036.6 518.5 L1040.2 523.3 L1046.5 529.5 L1043.8 532.8 L1035.0 534.9 L1032.7 539.5 L1033.7 545.6 L1027.7 548.2 L1016.6 548.0 L1014.6 551.0 L1025.0 558.6 L1028.8 564.1 L1015.2 563.2 L1002.9 563.0 L1004.7 567.9 L1007.6 572.2 L998.6 571.5 L991.9 571.5 L997.3 576.7 L1000.7 580.8 L998.7 582.3 L992.2 583.8 L984.5 584.4 L984.9 588.3 L993.0 595.0 L991.9 597.2 L980.6 595.5 L976.0 596.3 L977.4 599.2 L976.4 600.8 L972.0 601.3 L970.2 603.3 L975.1 608.6 L984.9 617.2 L983.8 620.0 L967.6 615.3 L956.8 612.4 L957.5 612.9 L960.6 614.5 L954.6 612.4 L946.6 609.4 L950.1 612.3 L959.1 618.2 L960.3 620.9 L956.6 622.5 L953.4 624.2 L949.3 624.2 L942.7 621.7 L939.6 620.3 L940.7 621.2" fill="none" stroke="rgb(255,120,0)" stroke-opacity="1.000" stroke-width="11" stroke-linecap="round" stroke-linejoin="round"/>
  <path d="M952.6 630.1 L945.1 631.1 L944.3 633.1 L945.6 635.1 L954.9 642.8 L957.3 646.6 L955.9 647.2 L957.7 649.6 L965.7 655.0 L967.8 657.0 L961.2 654.3 L959.2 653.7 L964.4 656.5 L968.0 658.2" fill="none" stroke="rgb(255,120,0)" stroke-opacity="1.000" stroke-width="11" stroke-linecap="round" stroke-linejoin="round"/>
  <path d="M665.3 234.0 L664.7 233.6 L663.8 233.6 L662.6 234.0 L661.5 234.1 L656.8 234.1 L651.1 233.3 L648.7 231.9 L648.9 230.6" fill="none" stroke="rgb(255,120,0)" stroke-opacity="1.000" stroke-width="11" stroke-linecap="round" stroke-linejoin="round"/>
  <path d="M650.0 229.1 L642.4 227.8 L641.3 227.4 L641.1 226.4 L641.0 224.8 L637.9 223.8 L631.9 223.1 L627.4 221.8 L626.1 220.5 L625.1 219.0 L622.2 217.8 L619.3 217.0 L619.9 215.9 L619.4 215.7 L618.5 215.7 L616.6 215.6 L615.8 215.3 L614.0 213.8 L613.0 213.5 L611.7 212.8 L610.9 211.6 L609.7 210.3 L607.5 208.7 L605.7 207.7 L604.8 206.5 L603.9 205.0 L602.7 202.4 L600.7 198.9 L597.3 193.6 L592.7 185.2 L588.9 177.1 L585.7 168.9 L583.0 160.6 L579.5 153.3 L575.4 146.2 L572.7 138.8 L572.2 130.5 L572.7 123.2 L570.1 118.4 L565.9 115.5 L563.7 112.1 L563.3 107.6 L562.7 103.6 L560.2 100.6 L558.2 98.8 L556.8 97.9 L555.1 97.3 L552.6 98.0 L550.5 99.5 L549.3 102.8 L548.9 106.4 L547.6 113.0 L547.7 121.9 L549.8 128.1 L550.5 133.0 L548.7 139.0 L545.9 145.1 L543.2 150.7 L540.1 156.3 L536.6 161.4 L533.0 165.7 L529.9 168.9 L528.8 170.9 L527.7 172.3 L524.9 174.5 L521.6 177.8 L520.4 180.0 L520.4 180.6 L520.3 182.1 L518.2 184.6 L516.4 187.5 L514.6 189.7 L512.5 191.2 L511.3 192.0 L510.8 192.3 L509.6 192.8 L507.1 193.4 L504.7 193.1 L503.0 192.1 L501.3 190.4 L500.3 189.1 L499.0 188.6 L497.9 189.3 L498.6 190.4 L500.5 190.7 L500.7 190.8 L500.0 192.8 L499.1 194.1 L498.8 194.3 L498.6 194.7 L498.4 194.8 L498.2 195.0" fill="none" stroke="rgb(255,120,0)" stroke-opacity="1.000" stroke-width="11" stroke-linecap="round" stroke-linejoin="round"/>
  <path d="M573.0 223.8 L572.6 223.6 L569.9 224.6 L569.5 224.7 L568.3 225.0 L568.0 225.0 L566.1 225.0 L565.7 225.0 L564.3 225.2 L563.4 225.4 L562.5 225.5" fill="none" stroke="rgb(255,120,0)" stroke-opacity="1.000" stroke-width="11" stroke-linecap="round" stroke-linejoin="round"/>
  <path d="M987.0 496.0 L982.2 494.2 L979.9 495.0 L984.5 496.7 L987.0 497.3" fill="none" stroke="rgb(246,211,45)" stroke-opacity="0.270" stroke-width="11" stroke-linecap="round" stroke-linejoin="round"/>
  <path d="M986.5 497.5 L982.6 496.8 L979.3 496.7" fill="none" stroke="rgb(246,211,45)" stroke-opacity="0.270" stroke-width="11" stroke-linecap="round" stroke-linejoin="round"/>
  <path d="M990.2 495.2 L991.5 494.4 L991.7 493.8 L986.9 492.7 L984.2 492.6 L990.0 494.1 L999.0 494.6 L1000.7 494.3 L993.5 493.0 L988.7 492.6 L991.5 493.5 L997.9 494.0 L999.0 493.4 L991.4 491.9 L990.0 492.0 L993.2 492.6 L998.5 491.9 L998.6 491.1 L991.3 490.1 L986.9 489.8 L992.0 490.8 L1002.8 490.9 L1010.4 489.9 L1009.8 488.6 L1004.6 486.6 L1013.1 486.5 L1015.7 486.0 L1015.1 485.0 L1019.9 485.8 L1023.6 486.3 L1027.9 486.4 L1029.8 485.9 L1023.9 483.3 L1018.5 481.8 L1021.4 482.5 L1029.8 483.5 L1032.1 483.3 L1027.0 480.5 L1020.9 478.6 L1025.5 479.9 L1035.5 481.6 L1034.4 480.2 L1026.2 476.4 L1024.5 475.1 L1030.8 475.1 L1031.0 473.2 L1021.8 467.7 L1017.0 464.6 L1022.1 464.1 L1028.5 464.4 L1027.9 463.3 L1020.5 461.2 L1018.5 460.9 L1023.7 461.7 L1024.6 461.0 L1017.4 457.5 L1012.2 455.3 L1015.8 455.3 L1020.7 455.6 L1019.0 454.3 L1010.3 450.4 L1008.9 449.0 L1015.3 449.6 L1012.1 447.7 L998.9 442.9 L995.2 441.2 L1005.5 442.7 L1013.8 443.5 L1002.5 439.3 L994.3 436.4 L997.0 436.9 L999.3 437.0 L989.0 432.9 L980.6 429.7 L984.8 429.7 L998.9 432.7 L993.1 430.7 L981.7 427.7 L980.8 427.6" fill="none" stroke="rgb(246,211,45)" stroke-opacity="0.270" stroke-width="11" stroke-linecap="round" stroke-linejoin="round"/>
  <path d="M993.6 517.7 L987.9 516.9 L983.7 516.2 L990.3 516.9 L1003.2 519.3 L1007.4 520.1 L997.4 516.5 L992.9 514.7 L1005.6 517.6 L1024.6 523.2 L1023.1 523.1 L1002.4 516.6 L995.2 513.9 L1011.0 518.5 L1028.5 523.9 L1028.3 522.8 L1032.7 522.6 L1036.0 522.6 L1019.1 515.0 L1005.5 508.6 L1005.8 507.6 L1015.9 508.2 L1016.8 506.8 L1006.4 501.6 L999.0 497.8 L1004.1 498.3 L1011.1 500.2 L1009.4 499.3 L1000.1 495.8 L1006.0 496.3 L1007.2 496.6 L1005.8 496.1 L995.8 493.3 L992.4 492.6 L1001.0 496.0 L1012.1 501.5 L1007.1 504.6 L992.9 505.4 L987.3 509.3 L990.2 515.1 L992.4 519.2 L984.5 519.8 L973.8 519.0 L979.2 522.6 L994.7 530.6 L990.7 531.6 L975.3 528.8 L966.0 527.4 L967.1 529.6 L970.8 533.1 L961.3 531.7 L950.0 529.6 L950.9 531.7 L957.7 536.0 L958.7 538.3 L952.3 538.0 L948.8 537.7 L952.4 540.6 L956.1 542.7 L952.7 540.8 L947.8 537.5 L956.4 537.9 L977.5 542.3 L984.9 544.1 L967.3 535.8 L954.6 528.5 L956.3 527.1" fill="none" stroke="rgb(246,211,45)" stroke-opacity="0.270" stroke-width="11" stroke-linecap="round" stroke-linejoin="round"/>
  <path d="M985.5 529.7 L986.6 529.3 L985.0 528.2 L969.9 521.6 L951.4 513.3 L959.3 516.9 L974.2 527.0 L972.3 532.4 L959.8 537.1 L957.5 543.7 L963.7 550.4 L966.6 555.2 L964.9 556.8 L964.1 558.5 L965.0 561.1 L964.0 563.9 L960.2 565.9 L958.0 568.1 L961.3 572.6 L959.3 573.9 L947.5 569.3 L943.4 567.3 L946.9 568.8" fill="none" stroke="rgb(246,211,45)" stroke-opacity="0.270" stroke-width="11" stroke-linecap="round" stroke-linejoin="round"/>
  <path d="M957.1 575.4 L933.0 572.5 L936.3 575.3 L942.5 579.4 L949.0 583.7 L949.7 584.6 L949.7 585.4 L943.9 585.1 L932.5 581.7 L924.2 579.9 L927.8 583.4 L939.3 590.2 L930.0 586.0 L907.9 574.9 L894.6 564.6 L898.1 560.8 L904.4 559.9 L896.7 554.1 L883.8 545.9 L884.4 544.1 L897.8 548.0 L895.4 546.2 L881.5 538.9 L876.9 533.8 L885.9 534.6 L884.0 531.7 L867.5 523.8 L856.1 518.1 L856.5 517.8 L858.3 518.7 L852.1 517.0 L847.3 515.4 L850.6 517.1 L852.1 518.0 L841.8 514.3 L828.1 508.1 L827.1 506.6 L830.7 507.0 L829.7 506.9 L826.8 507.3 L827.1 509.8 L834.2 515.4 L844.5 523.1 L840.5 525.1 L820.4 516.9 L806.0 508.3 L805.5 504.2 L814.8 503.0 L816.8 503.2 L805.4 499.8 L796.8 497.3 L799.0 498.9 L809.3 503.7 L810.2 505.7 L800.5 502.8 L796.8 501.3 L805.1 506.1 L815.1 513.8 L819.9 521.3 L820.9 528.6 L826.9 536.4 L837.0 544.5 L837.6 547.1 L829.0 544.2 L828.5 544.5 L842.4 552.2 L848.4 556.9 L847.8 559.7 L850.7 564.0 L859.0 569.8 L857.6 569.8 L864.8 573.9 L866.1 574.6 L868.8 576.0 L867.0 575.8 L866.9 576.8 L877.7 583.2 L885.2 587.7 L873.7 583.3 L865.7 579.9" fill="none" stroke="rgb(246,211,45)" stroke-opacity="0.270" stroke-width="11" stroke-linecap="round" stroke-linejoin="round"/>
  <path d="M877.8 554.1 L882.6 554.6 L891.7 561.6 L901.8 568.0 L917.7 579.5 L919.3 584.2 L902.7 580.6 L894.3 578.3 L900.8 582.5 L912.3 589.6 L908.4 589.7 L902.4 589.2 L904.9 592.9 L912.5 599.3 L910.7 601.1 L902.2 600.0 L903.3 601.8 L918.6 608.6 L927.2 613.1 L917.5 609.8 L909.5 606.7 L914.2 608.6 L928.0 614.2 L930.7 615.3" fill="none" stroke="rgb(246,211,45)" stroke-opacity="0.270" stroke-width="11" stroke-linecap="round" stroke-linejoin="round"/>
  <path d="M940.0 591.0 L943.2 590.1" fill="none" stroke="rgb(246,211,45)" stroke-opacity="0.270" stroke-width="11" stroke-linecap="round" stroke-linejoin="round"/>
  <path d="M965.7 569.9 L969.9 569.5 L971.7 569.8 L978.4 571.0 L982.3 571.1 L979.1 567.9 L983.1 567.6 L995.0 571.0 L995.1 569.9 L978.3 561.1 L973.0 558.3" fill="none" stroke="rgb(246,211,45)" stroke-opacity="0.270" stroke-width="11" stroke-linecap="round" stroke-linejoin="round"/>
  <path d="M762.7 438.3 L761.4 438.7 L758.2 438.7 L757.9 438.9 L758.7 438.6 L763.1 438.6 L765.0 439.2 L757.7 437.5 L750.6 435.4 L755.7 434.9 L766.1 436.8 L768.1 437.4 L760.5 435.1 L759.6 433.9 L765.7 433.3 L767.8 431.9 L764.4 429.0 L765.8 428.1 L771.8 429.3 L774.8 430.2 L776.1 429.9 L776.8 430.0 L778.2 429.9 L769.9 426.9 L767.1 425.2 L775.0 425.2 L785.7 424.7 L784.0 423.1 L773.3 419.0 L772.1 416.8 L777.9 415.1 L779.1 413.7 L776.1 411.7 L778.9 411.0 L786.1 411.4 L785.5 410.1 L781.1 407.5 L784.2 406.0 L789.6 404.4 L789.4 402.2 L786.4 399.5 L787.7 396.7 L794.0 394.5 L798.9 392.9 L796.9 389.5 L795.1 386.8 L794.1 384.4 L790.7 381.4 L791.5 379.6 L796.9 378.3 L798.8 376.5 L791.8 371.8 L789.2 369.2 L793.9 367.5 L797.0 366.2 L789.2 362.2 L785.3 360.1 L788.5 357.7 L796.2 356.1 L796.9 354.5 L795.0 352.9 L794.6 351.6 L800.2 350.0 L803.6 349.2 L802.1 346.9 L794.4 343.6 L791.3 341.8 L793.5 339.7 L796.5 337.8 L795.3 335.9 L792.4 333.4 L794.0 331.5 L794.9 329.7 L792.6 326.3 L790.8 324.2 L791.1 322.5 L793.1 321.4" fill="none" stroke="rgb(246,211,45)" stroke-opacity="0.270" stroke-width="11" stroke-linecap="round" stroke-linejoin="round"/>
  <path d="M573.0 231.0 L571.6 229.6 L572.8 228.1" fill="none" stroke="rgb(246,211,45)" stroke-opacity="0.270" stroke-width="11" stroke-linecap="round" stroke-linejoin="round"/>
  <path d="M580.3 231.2 L578.2 233.3 L577.8 233.8 L575.6 237.3 L577.6 241.0 L583.5 243.8 L585.7 247.4 L579.7 252.8 L578.2 255.9 L583.7 257.7 L589.3 260.0 L587.3 262.9 L585.0 265.2 L588.8 267.7 L593.3 270.3 L593.2 275.4 L594.6 279.5 L605.0 283.4 L612.6 285.6 L611.7 288.7 L606.9 291.3 L609.5 292.3 L617.5 291.2 L619.8 291.4 L614.2 293.3 L613.4 294.0 L618.9 294.6 L621.9 296.1 L618.3 298.0 L610.8 301.8 L611.6 301.7 L615.6 300.0 L617.1 298.1 L615.7 297.8 L614.9 298.0 L613.1 298.3 L609.0 298.7 L606.9 298.5 L606.6 298.5 L604.6 300.0 L603.4 300.5 L601.2 301.1 L604.2 300.7 L604.5 300.7 L605.0 300.6 L605.4 300.8 L606.1 301.3 L607.5 300.9 L609.5 300.8 L610.3 300.9" fill="none" stroke="rgb(246,211,45)" stroke-opacity="0.270" stroke-width="11" stroke-linecap="round" stroke-linejoin="round"/>
  <path d="M627.4 318.0 L626.8 319.5 L625.1 321.7 L632.6 322.4 L637.7 323.5 L632.7 323.9 L619.0 324.6 L617.5 324.9 L626.6 324.4 L634.0 324.6 L632.1 327.1 L629.1 328.9 L635.5 331.5 L644.0 333.0 L642.3 335.3 L635.7 338.1 L636.6 341.5 L644.4 343.5 L649.6 345.3 L648.9 347.3 L651.0 350.4 L659.0 354.0 L662.5 357.0 L659.3 359.9 L657.2 361.6" fill="none" stroke="rgb(246,211,45)" stroke-opacity="0.270" stroke-width="11" stroke-linecap="round" stroke-linejoin="round"/>
  <path d="M693.1 377.9 L694.1 380.1 L688.6 383.6 L687.5 385.9 L692.1 388.3 L697.2 390.4 L695.1 391.3 L690.5 391.7 L694.0 393.6 L698.6 395.8 L697.7 398.9 L697.1 401.5 L702.5 404.4 L707.6 406.8 L702.4 407.2 L696.5 407.1" fill="none" stroke="rgb(246,211,45)" stroke-opacity="0.270" stroke-width="11" stroke-linecap="round" stroke-linejoin="round"/>
  <path d="M552.3 239.5 L551.9 238.8 L550.6 238.3 L549.3 238.3 L547.6 238.4 L545.5 238.4 L545.1 238.4 L546.3 238.5 L549.2 238.4 L550.3 238.9 L548.1 241.2 L546.7 243.3 L549.0 244.6 L551.0 245.4 L550.4 249.0 L549.4 252.4 L552.9 255.3 L559.4 258.0 L559.3 261.6 L554.6 268.2 L554.0 272.4 L561.0 276.1 L567.4 278.5 L568.3 282.6 L566.6 287.5 L568.2 290.1 L574.3 290.9 L576.1 291.8 L572.8 294.8 L571.9 296.6 L575.9 297.6 L578.9 298.8" fill="none" stroke="rgb(246,211,45)" stroke-opacity="0.270" stroke-width="11" stroke-linecap="round" stroke-linejoin="round"/>
  <path d="M516.7 236.7 L515.8 237.4 L514.1 238.2 L512.9 238.4 L514.2 238.1 L518.0 236.6 L519.4 237.1 L517.5 240.2 L515.7 242.3 L517.2 242.5 L519.8 242.3 L519.2 243.6 L517.4 247.4 L518.5 249.0 L523.0 249.4 L527.4 251.4 L529.4 257.5 L529.4 266.7 L533.4 272.5 L541.7 277.0 L547.5 283.3 L546.8 290.1 L545.8 297.0 L550.6 302.4 L558.4 305.8 L559.6 309.8 L558.5 315.2 L562.7 321.0 L571.2 325.5 L574.7 329.6 L573.2 336.2 L575.7 341.8 L583.7 345.9 L594.4 352.2 L597.2 357.9 L599.0 364.9 L604.9 370.3 L613.7 375.0 L614.1 378.9 L604.5 381.7 L605.4 384.9 L615.2 387.6 L631.3 394.7 L636.5 401.1 L633.3 405.2 L635.4 409.6 L648.8 414.2 L655.7 417.9 L649.7 421.4 L647.5 423.7 L659.5 427.0 L673.4 430.3 L674.0 431.6 L667.7 432.3 L673.4 433.5 L689.5 436.9 L692.7 438.6 L684.5 438.3 L684.5 439.3 L698.3 442.9 L708.8 447.0 L707.4 448.4 L703.7 449.1 L706.1 451.0 L709.3 452.1 L706.7 451.5 L703.1 451.4 L709.5 454.3 L719.4 458.2 L715.2 458.6 L711.2 459.7 L719.3 462.7 L730.1 465.2 L725.1 464.2 L719.6 463.1 L725.1 464.7" fill="none" stroke="rgb(246,211,45)" stroke-opacity="0.270" stroke-width="11" stroke-linecap="round" stroke-linejoin="round"/>
  <path d="M638.0 270.9 L639.7 273.9 L640.8 275.2 L641.6 275.9 L649.5 282.2 L654.4 284.7 L657.4 286.2 L670.4 292.5 L685.8 300.3 L709.1 311.6 L736.1 324.5 L764.0 338.0 L790.4 350.9 L810.0 360.1 L828.5 368.7 L844.6 375.9 L855.8 381.3 L866.5 387.2 L870.4 389.9 L870.7 390.6 L867.9 384.5" fill="none" stroke="rgb(246,211,45)" stroke-opacity="0.270" stroke-width="11" stroke-linecap="round" stroke-linejoin="round"/>
</svg>