<svg viewBox="0 0 1920 1080" xmlns="http://www.w3.org/2000/svg" style="background: #1a1a1a">
  <path d="M 935.765 328.3203 L 932.7567 328.07748 L 821.8493 317.7338 L 771.4882 313.68753 L 782.5631 314.5773 L 777.01746 314.13174 L 768.8103 312.10117 L 763.30774 311.6611 L 768.8103 312.10117 L 785.4161 313.42926 L 802.17065 314.76926 L 810.6044 315.44376 L 819.076 316.12128 L 836.081 318.87723 L 850.42035 320.02936 L 861.9278 322.36063 L 870.63995 323.0638 L 879.357 325.18176 L 885.21643 325.65686 L 885.1513 328.48843 L 891.03375 328.9697 L 902.8528 329.93674 L 905.8426 328.75473 L 905.88995 325.909 L 908.78955 330.42252 L 908.7222 334.70786 L 908.65466 339.00446 L 905.4128 354.59225 L 905.36456 357.48843 L 905.4128 354.59225 L 905.4609 351.7012 L 899.5478 348.29865 L 887.71234 345.83652 L 872.9871 344.56604 L 858.3744 343.30524 L 840.98566 341.80487 L 832.3506 341.0598 L 823.989 334.70023 L 815.6321 329.78552 L 812.9225 326.76297 L 815.6939 328.39114 L 818.5931 327.23325 L 824.745 316.57465 L 836.081 318.87723 L 847.3985 323.99432 L 855.96216 327.50958 L 864.57983 331.04703 L 873.3275 331.77246 L 870.44604 330.11615 L 864.6212 329.63522 L 861.4595 337.87735 L 861.63025 332.21777 L 858.8579 327.74762 L 864.4971 333.87427 L 873.02515 343.13956 L 875.92316 344.81934 L 881.94525 339.61432 L 882.1491 331.0824 L 882.21686 328.24832 L 882.2844 325.41913 L 882.3857 321.1846 L 882.5872 312.74857 L 882.72107 307.14883 L 882.9873 296.0072 L 883.11975 290.46518 L 894.6658 295.47055 L 897.5613 297.07703 L 900.515 295.89777 L 906.3821 296.32632 L 912.26697 296.75616 L 924.0752 299.0233 L 932.9944 299.67795 L 938.96344 300.11615" fill="none" stroke="rgba(26, 26, 46, 1)" stroke-width="2" stroke-linecap="round" stroke-linejoin="round" />
  <path d="M 908.68335 538.7671 L 905.57135 535.11176 L 847.27795 503.5571 L 797.2246 477.11923 L 760.052 460.46884 L 734.85034 449.9976 L 704.54065 439.0692 L 672.26056 426.62527 L 635.80444 409.65555 L 612.9389 398.70035 L 595.3395 391.23245 L 587.91327 387.67157" fill="none" stroke="rgba(26, 26, 46, 1)" stroke-width="2" stroke-linecap="round" stroke-linejoin="round" />
  <path d="M 1311.9784 495.9505 L 1315.7428 496.37543 L 1319.1527 493.36322 L 1322.0166 485.21292 L 1324.5063 473.6855 L 1325.8883 452.10895 L 1327.9827 437.42535 L 1330.4277 426.1569 L 1329.3328 416.24615 L 1328.4253 408.03183 L 1328.0635 404.75742 L 1327.342 398.22784 L 1334.1765 394.00015 L 1340.6411 386.5218 L 1347.2859 380.67297 L 1353.7346 373.21158 L 1360.37 367.37155 L 1359.9786 364.15198 L 1359.5881 360.93866 L 1363.0948 359.6304" fill="none" stroke="rgba(26, 26, 46, 1)" stroke-width="2" stroke-linecap="round" stroke-linejoin="round" />
  <path d="M 990.1427 271.3312 L 993.1825 271.52924 L 1036.2372 274.33453 L 1089.9141 280.70663 L 1118.9546 284.06903 L 1148.355 286.016 L 1171.517 287.54984 L 1184.8702 288.4341 L 1194.8336 287.61734 L 1208.1028 285.53256 L 1218.1549 284.70654 L 1228.2471 283.87723 L 1238.3794 283.04456 L 1245.1123 281.9894 L 1255.3102 281.15036 L 1265.6919 281.80838 L 1275.9766 280.96527 L 1282.8053 279.89954 L 1289.8053 280.33832 L 1296.5116 277.76056 L 1303.389 276.68726 L 1313.8193 275.82813 L 1320.9098 276.26254 L 1331.414 275.39935 L 1334.9841 275.61688 L 1342.1421 276.0529 L 1345.5469 274.74988 L 1349.1389 274.96744 L 1352.737 275.18536 L 1356.3412 275.40366" fill="none" stroke="rgba(26, 26, 46, 1)" stroke-width="2" stroke-linecap="round" stroke-linejoin="round" />
  <path d="M 330.36053 326.27484 L 436.1864 279.27194 L 487.50433 264.48505 L 530.1641 248.80464 L 545.4522 242.35696 L 552.958 240.35722 L 560.63873 237.11897 L 570.90076 232.79236 L 583.4683 229.83646 L 591.065 227.80945 L 596.23535 225.63164 L 606.5944 221.26834 L 611.50964 221.554 L 616.4384 221.84042 L 621.38086 222.12766 L 626.33704 222.4157 L 631.3069 222.70453 L 636.2907 222.99414 L 643.7923 223.43011 L 648.6872 224.97266 L 661.06134 228.2241 L 673.3127 234.03522 L 687.8297 245.18092 L 697.5582 253.56499 L 707.3901 262.03818 L 714.8831 267.79803 L 730.3256 275.4846 L 737.8916 282.68335 L 748.4033 287.47034 L 759.087 290.95407 L 767.03156 295.60687 L 777.7869 300.5034 L 794.1965 305.874 L 810.8584 309.92972 L 827.64246 315.4148 L 836.13416 317.48553 L 841.8545 317.94302 L 847.5438 319.79822 L 853.25525 321.66064 L 861.843 325.17084 L 867.65155 325.64398 L 870.5237 327.29153 L 879.2166 330.8403 L 885.02075 334.16626 L 899.7068 339.68573 L 908.56433 344.75095 L 917.52405 346.96237 L 926.53345 349.1861 L 935.593 351.42215 L 947.7583 352.47635 L 963.0724 353.8034 L 975.4105 354.87253 L 990.9289 354.74225 L 1012.7998 352.1874 L 1031.5819 344.89685 L 1047.2927 338.79846 L 1066.3135 334.41525 L 1078.9304 328.01907 L 1088.3356 321.36542 L 1094.566 315.94482 L 1097.3678 305.88202 L 1099.9661 291.49503 L 1102.2246 270.0135 L 1101.7784 259.98575 L 1101.5248 254.28381 L 1101.2721 248.60225 L 1101.146 245.76906 L 1104.1344 241.70677 L 1107.185 239.05975 L 1110.2352 236.41328 L 1119.8087 236.93642 L 1129.4275 237.46199 L 1135.9442 239.23398 L 1142.5695 242.43834 L 1162.3687 247.83067 L 1192.7927 259.68362 L 1206.62 266.3356 L 1228.2471 283.87723 L 1243.7915 305.8409 L 1259.2202 323.62445 L 1278.6136 343.54938 L 1283.4054 356.37973 L 1285.4352 376.9866 L 1286.6971 389.79684 L 1287.3317 396.23926 L 1287.6499 399.46988" fill="none" stroke="rgba(231, 76, 60, 1)" stroke-width="2" stroke-linecap="round" stroke-linejoin="round" />
  <path d="M 1287.4907 397.85376 L 1283.7153 395.9137 L 1194.4899 376.96353 L 1019.2393 360.15756 L 917.5053 348.4071 L 870.05566 344.31308 L 829.53723 339.40356 L 787.1001 334.36148 L 762.059 332.2196 L 742.8132 330.5734 L 726.4746 329.1759 L 707.59454 327.561 L 686.1396 327.08456 L 656.56256 331.30014 L 634.9552 337.5025 L 621.4883 341.69327 L 608.2182 344.5285 L 597.5584 347.58945 L 576.8118 349.67905 L 561.57574 349.5742 L 546.1229 352.1163 L 528.30005 354.40244 L 513.2315 355.59616 L 498.0812 358.0944 L 490.25906 361.3065 L 485.05212 363.4447 L 474.85056 366.40045 L 467.26987 368.28317 L 462.09503 370.40967 L 454.34445 373.5946 L 451.56207 375.96707 L 451.15762 378.5944" fill="none" stroke="rgba(231, 76, 60, 1)" stroke-width="2" stroke-linecap="round" stroke-linejoin="round" />
</svg>
